if (_typeface_js && _typeface_js.loadFace) _typeface_js.loadFace({"glyphs":{"Ẩ":{"x_min":-7,"x_max":843,"ha":833,"o":"m -7 0 l 333 1010 l 499 1010 l 840 0 l 698 0 l 607 282 l 220 282 l 129 0 l -7 0 m 569 397 l 413 872 l 258 397 l 569 397 m 638 1112 l 530 1112 l 404 1251 l 280 1112 l 175 1112 l 329 1335 l 483 1335 l 638 1112 m 843 1288 q 820 1218 843 1245 q 754 1178 798 1192 l 754 1132 l 679 1132 l 679 1214 q 726 1235 710 1222 q 743 1275 743 1248 q 730 1304 743 1291 q 695 1318 717 1318 q 661 1314 674 1318 q 633 1305 649 1311 l 631 1305 l 631 1376 q 668 1384 643 1380 q 719 1389 693 1389 q 808 1359 773 1389 q 843 1288 843 1330 "},"ﺲ":{"x_min":62,"x_max":1800,"ha":1799,"o":"m 1800 0 l 1719 0 q 1625 24 1676 0 q 1549 87 1573 49 q 1469 19 1517 42 q 1352 -4 1421 -4 q 1249 14 1300 -4 q 1175 63 1199 32 q 1095 13 1136 31 q 983 -4 1055 -4 q 887 8 932 -4 q 816 40 841 21 q 693 -192 805 -97 q 416 -288 580 -288 q 271 -268 337 -288 q 158 -206 204 -248 q 87 -97 112 -164 q 62 62 62 -30 q 70 196 62 130 q 81 272 79 263 l 204 272 l 204 261 q 185 174 196 236 q 175 61 175 113 q 235 -102 175 -44 q 416 -160 295 -160 q 630 -86 557 -160 q 703 134 703 -12 q 699 269 703 191 q 695 369 696 348 l 816 369 q 857 177 816 230 q 983 124 899 124 q 1095 167 1057 124 q 1133 290 1133 211 l 1133 369 l 1246 369 l 1246 267 q 1276 160 1246 197 q 1354 124 1306 124 q 1463 168 1430 124 q 1497 311 1497 212 l 1497 486 l 1610 486 l 1610 310 q 1645 171 1610 215 q 1749 128 1681 128 l 1800 128 l 1800 0 m 1681 0 l 1681 0 "},"ǻ":{"x_min":39,"x_max":642,"ha":729,"o":"m 514 186 l 514 397 q 399 385 468 392 q 287 365 330 378 q 204 318 237 350 q 171 228 171 285 q 207 130 171 163 q 314 97 243 97 q 422 122 374 97 q 514 186 471 148 m 514 80 q 472 48 498 69 q 421 15 446 27 q 356 -11 388 -2 q 268 -21 325 -21 q 179 -3 221 -21 q 105 46 137 14 q 57 123 75 77 q 39 219 39 169 q 72 354 39 298 q 177 441 105 409 q 327 482 240 471 q 514 499 413 493 l 514 523 q 500 595 514 568 q 462 637 486 622 q 407 659 438 653 q 330 665 377 665 q 218 649 274 665 q 108 612 162 634 l 101 612 l 101 741 q 150 752 121 747 q 218 763 180 757 q 184 812 197 784 q 171 874 171 840 q 224 997 171 948 q 356 1046 278 1046 q 488 997 434 1046 q 542 874 542 948 q 524 804 542 836 q 482 753 507 773 q 599 676 557 729 q 642 518 642 622 l 642 0 l 514 0 l 514 80 m 444 874 q 419 936 444 911 q 356 962 395 962 q 293 936 318 962 q 269 874 269 911 q 293 810 269 835 q 356 785 318 785 q 419 810 394 785 q 444 874 444 836 m 544 1250 l 379 1064 l 278 1064 l 379 1250 l 544 1250 "},"":{"x_min":-815,"x_max":-273,"ha":0,"o":"m -273 1359 q -323 1200 -279 1253 q -439 1148 -367 1148 q -505 1160 -475 1148 q -563 1200 -534 1173 q -614 1243 -593 1228 q -657 1258 -636 1257 q -704 1227 -690 1258 q -720 1145 -717 1196 l -815 1145 q -763 1302 -810 1249 q -648 1356 -716 1356 q -585 1342 -614 1356 q -526 1303 -555 1329 q -474 1263 -497 1277 q -431 1250 -450 1250 q -384 1280 -399 1250 q -368 1359 -370 1310 l -273 1359 "},"Ổ":{"x_min":45,"x_max":938,"ha":983,"o":"m 816 893 q 906 729 874 827 q 938 504 938 630 q 906 282 938 381 q 816 116 875 183 q 672 12 754 46 q 491 -21 590 -21 q 306 13 388 -21 q 165 116 224 48 q 76 282 107 183 q 45 504 45 380 q 76 728 45 632 q 166 893 108 824 q 307 996 224 961 q 491 1031 389 1031 q 676 995 594 1031 q 816 893 759 959 m 798 504 q 776 682 798 605 q 715 810 754 759 q 618 888 675 862 q 491 915 562 915 q 364 889 418 915 q 267 810 309 864 q 206 681 227 759 q 185 504 185 603 q 268 200 185 305 q 491 95 351 95 q 715 200 632 95 q 798 504 798 305 m 716 1112 l 608 1112 l 482 1251 l 358 1112 l 253 1112 l 407 1335 l 561 1335 l 716 1112 m 921 1288 q 898 1218 921 1245 q 832 1178 876 1192 l 832 1132 l 757 1132 l 757 1214 q 804 1235 788 1222 q 821 1275 821 1248 q 808 1304 821 1291 q 773 1318 795 1318 q 739 1314 752 1318 q 711 1305 727 1311 l 709 1305 l 709 1376 q 746 1384 721 1380 q 797 1389 771 1389 q 886 1359 851 1389 q 921 1288 921 1330 "},"ب":{"x_min":62,"x_max":1059,"ha":1121,"o":"m 560 120 q 385 135 460 120 q 260 183 309 151 q 194 253 213 213 q 175 340 175 292 q 182 402 175 361 q 193 460 189 442 l 193 467 l 76 467 q 67 406 72 444 q 62 331 62 369 q 185 80 62 168 q 559 -8 309 -8 q 935 79 812 -8 q 1059 331 1059 167 q 1053 406 1059 369 q 1045 467 1048 444 l 928 467 l 928 460 q 938 402 931 442 q 946 340 946 361 q 926 253 946 292 q 860 183 906 214 q 736 135 811 151 q 560 120 661 120 m 611 -216 l 511 -216 l 511 -116 l 611 -116 l 611 -216 "},"׃":{"x_min":165,"x_max":327,"ha":491,"o":"m 327 666 l 165 666 l 165 859 l 327 859 l 327 666 m 327 0 l 165 0 l 165 193 l 327 193 l 327 0 "},"":{"x_min":-533,"x_max":-388,"ha":0,"o":"m -388 -259 l -533 -259 l -533 -127 l -388 -127 l -388 -259 "},"ط":{"x_min":-14,"x_max":901,"ha":936,"o":"m 901 276 q 874 169 901 219 q 795 81 848 118 q 665 22 743 44 q 480 0 586 0 l -14 0 l -14 128 l 118 128 q 126 134 118 128 q 143 149 134 140 q 160 169 153 160 q 168 187 168 177 l 168 1055 l 281 1055 l 281 323 q 457 486 360 420 q 633 553 553 553 q 823 477 745 553 q 901 276 901 401 m 788 274 q 741 384 788 340 q 631 428 694 428 q 541 396 590 428 q 441 316 492 364 q 352 222 395 274 q 281 128 308 170 l 399 128 q 538 134 457 128 q 663 154 618 140 q 754 198 720 170 q 788 274 788 226 "},"ў":{"x_min":4,"x_max":688,"ha":692,"o":"m 688 758 l 280 -279 l 143 -279 l 279 37 l 4 758 l 141 758 l 348 196 l 554 758 l 688 758 m 571 1109 q 556 1003 571 1050 q 516 922 542 955 q 446 868 485 886 q 347 851 408 851 q 250 869 292 851 q 180 922 208 888 q 138 1004 152 956 q 124 1109 124 1051 l 234 1109 q 262 977 234 1017 q 347 937 290 937 q 431 976 401 937 q 461 1109 461 1016 l 571 1109 "},"ţ":{"x_min":14,"x_max":463,"ha":465,"o":"m 317 -14 q 156 46 213 -11 q 100 232 100 105 l 100 652 l 14 652 l 14 758 l 100 758 l 100 976 l 228 976 l 228 758 l 463 758 l 463 652 l 228 652 l 228 291 q 230 202 228 234 q 245 144 232 171 q 283 108 257 120 q 352 97 308 97 q 413 106 384 97 q 455 121 442 115 l 463 121 l 463 6 q 442 1 454 4 q 416 -3 429 -1 q 417 -27 416 -13 q 419 -60 419 -41 q 360 -227 419 -169 q 210 -286 301 -286 q 151 -281 185 -286 q 91 -269 118 -277 l 91 -161 l 97 -161 q 140 -176 113 -168 q 193 -184 166 -184 q 288 -157 257 -184 q 319 -72 319 -130 q 318 -45 319 -59 q 317 -14 318 -30 "},"í":{"x_min":83,"x_max":369,"ha":317,"o":"m 223 0 l 95 0 l 95 758 l 223 758 l 223 0 m 369 1137 l 183 883 l 83 883 l 204 1137 l 369 1137 "},"◦":{"x_min":76,"x_max":416,"ha":492,"o":"m 246 629 q 366 579 316 629 q 416 459 416 529 q 366 338 416 388 q 246 289 316 289 q 125 338 175 289 q 76 459 76 388 q 125 579 76 529 q 246 629 174 629 m 246 577 q 162 542 196 577 q 128 459 128 507 q 162 375 128 409 q 246 341 197 341 q 329 375 294 341 q 364 459 364 409 q 329 542 364 507 q 246 577 295 577 "},"ņ":{"x_min":92,"x_max":688,"ha":775,"o":"m 688 0 l 560 0 l 560 431 q 554 529 560 484 q 535 601 549 574 q 492 644 520 630 q 416 658 464 658 q 318 632 369 658 q 220 566 268 607 l 220 0 l 92 0 l 92 758 l 220 758 l 220 673 q 332 751 276 724 q 449 779 388 779 q 624 705 561 779 q 688 491 688 631 l 688 0 m 470 14 q 473 -16 471 1 q 475 -59 475 -35 q 416 -227 475 -169 q 266 -286 357 -286 q 207 -281 241 -286 q 147 -269 174 -277 l 147 -161 l 153 -161 q 195 -176 169 -168 q 249 -184 222 -184 q 339 -157 312 -184 q 366 -71 366 -130 q 366 -33 366 -54 q 364 14 365 -12 l 470 14 "},"ỳ":{"x_min":4,"x_max":688,"ha":692,"o":"m 688 758 l 280 -279 l 143 -279 l 279 37 l 4 758 l 141 758 l 348 196 l 554 758 l 688 758 m 448 883 l 347 883 l 162 1137 l 326 1137 l 448 883 "},"Ύ":{"x_min":0,"x_max":1006,"ha":997,"o":"m 1006 1010 l 665 447 l 665 0 l 531 0 l 531 432 l 190 1010 l 338 1010 l 598 564 l 863 1010 l 1006 1010 m 165 1010 l 131 750 l 33 750 l 0 1010 l 165 1010 "},"ѕ":{"x_min":46,"x_max":594,"ha":620,"o":"m 297 -18 q 155 2 221 -18 q 46 45 89 22 l 46 189 l 52 189 q 91 160 69 175 q 149 127 113 144 q 221 100 182 112 q 302 89 260 89 q 367 96 333 89 q 419 114 402 103 q 453 147 442 129 q 464 200 464 165 q 439 269 464 246 q 351 308 414 293 q 287 322 326 314 q 214 339 247 330 q 88 417 127 364 q 49 544 49 470 q 126 711 49 647 q 331 776 203 776 q 458 760 395 776 q 566 721 522 744 l 566 585 l 559 585 q 450 646 510 623 q 329 669 390 669 q 222 642 265 669 q 179 562 179 615 q 204 491 179 514 q 287 452 230 467 q 351 437 316 445 q 425 421 386 430 q 551 351 509 400 q 594 218 594 302 q 574 126 594 169 q 518 51 555 82 q 426 0 477 17 q 297 -18 374 -18 "},"Ш":{"x_min":102,"x_max":1208,"ha":1310,"o":"m 1208 0 l 102 0 l 102 1010 l 236 1010 l 236 116 l 588 116 l 588 1010 l 722 1010 l 722 116 l 1074 116 l 1074 1010 l 1208 1010 l 1208 0 "},"Ψ":{"x_min":88,"x_max":1014,"ha":1102,"o":"m 291 398 q 374 354 325 369 q 484 335 422 339 l 484 1010 l 618 1010 l 618 335 q 728 354 679 340 q 810 398 777 368 q 862 475 844 428 q 880 595 880 523 l 880 1010 l 1014 1010 l 1014 611 q 987 433 1014 505 q 911 316 961 361 q 787 248 860 271 q 618 219 714 225 l 618 0 l 484 0 l 484 219 q 315 248 388 226 q 190 316 241 270 q 114 432 140 360 q 88 611 88 503 l 88 1010 l 222 1010 l 222 595 q 239 475 222 523 q 291 398 257 428 "},"ؤ":{"x_min":-80,"x_max":515,"ha":579,"o":"m 515 125 q 454 -88 515 0 q 285 -221 393 -176 q 108 -273 199 -259 q -80 -288 18 -288 l -80 -160 q 88 -149 9 -160 q 224 -115 166 -137 q 350 -33 303 -85 q 398 104 398 19 q 355 87 388 98 q 292 77 321 77 q 110 139 175 77 q 46 291 46 201 q 112 470 46 394 q 260 546 179 546 q 444 428 373 546 q 515 125 515 311 m 389 231 q 381 281 389 250 q 356 345 372 313 q 318 396 341 374 q 269 418 295 418 q 192 379 222 418 q 163 296 163 341 q 199 230 163 256 q 298 205 236 205 q 352 214 327 205 q 389 231 378 223 m 373 659 l 145 659 l 145 723 l 195 723 q 168 751 179 731 q 158 791 158 770 q 189 867 158 835 q 275 900 221 900 q 328 895 311 900 q 353 889 346 891 l 353 820 l 348 820 q 316 830 339 824 q 277 836 294 836 q 232 823 247 836 q 218 791 218 811 q 249 742 218 761 q 322 723 280 723 l 373 723 l 373 659 "},"ŭ":{"x_min":87,"x_max":683,"ha":775,"o":"m 683 0 l 555 0 l 555 84 q 443 5 495 32 q 325 -21 390 -21 q 231 -4 275 -21 q 155 46 188 11 q 104 135 122 82 q 87 266 87 189 l 87 758 l 215 758 l 215 326 q 219 225 215 265 q 239 156 223 186 q 281 113 254 127 q 358 100 308 100 q 458 126 405 100 q 555 191 510 153 l 555 758 l 683 758 l 683 0 m 609 1109 q 594 1003 609 1050 q 554 922 580 955 q 484 868 523 886 q 385 851 446 851 q 288 869 330 851 q 218 922 246 888 q 176 1004 190 956 q 162 1109 162 1051 l 272 1109 q 300 977 272 1017 q 385 937 328 937 q 469 976 439 937 q 499 1109 499 1016 l 609 1109 "},"ﺴ":{"x_min":-16,"x_max":1489,"ha":1474,"o":"m 1226 87 q 1142 17 1191 39 q 1029 -4 1093 -4 q 927 14 977 -4 q 851 63 876 32 q 772 13 813 31 q 659 -4 731 -4 q 519 23 577 -4 q 429 96 460 50 q 336 23 383 46 q 228 0 289 0 l -16 0 l -16 128 l 223 128 q 299 142 268 128 q 345 179 329 156 q 369 233 363 204 q 376 296 376 263 l 376 369 l 489 369 q 528 182 489 241 q 660 124 567 124 q 772 167 734 124 q 810 290 810 211 l 810 369 l 923 369 l 923 267 q 953 161 923 198 q 1031 124 983 124 q 1140 168 1107 124 q 1173 311 1173 213 l 1173 486 l 1286 486 l 1286 289 q 1323 171 1286 215 q 1425 128 1361 128 l 1489 128 l 1489 0 l 1394 0 q 1301 24 1352 0 q 1226 87 1250 49 m 1361 0 l 1361 0 "},"―":{"x_min":75,"x_max":1188,"ha":1263,"o":"m 1188 387 l 75 387 l 75 496 l 1188 496 l 1188 387 "},"שּׂ":{"x_min":102,"x_max":1092,"ha":1133,"o":"m 1092 859 q 940 386 1039 581 q 698 93 841 190 q 535 22 626 44 q 322 0 444 0 l 102 0 l 102 859 l 221 859 l 221 400 q 317 410 275 401 q 393 448 359 418 q 483 584 445 494 q 555 859 521 673 l 679 859 q 589 532 639 646 q 474 362 539 417 q 353 304 421 318 q 221 291 284 291 l 221 133 l 331 133 q 505 148 436 133 q 628 202 573 164 q 837 455 751 285 q 968 859 923 626 l 1092 859 m 207 966 q 194 933 207 946 q 161 921 181 921 q 128 933 141 921 q 116 966 116 946 q 128 999 116 986 q 161 1012 141 1012 q 194 999 181 1012 q 207 966 207 986 m 707 410 q 694 377 707 390 q 661 365 681 365 q 628 377 641 365 q 616 410 616 390 q 628 443 616 430 q 661 456 641 456 q 694 443 681 456 q 707 410 707 430 "},"ﺭ":{"x_min":-74,"x_max":447,"ha":503,"o":"m 447 126 q 395 -71 447 13 q 242 -210 344 -155 q 73 -271 160 -254 q -74 -288 -12 -288 l -74 -160 q 43 -148 -30 -160 q 174 -109 117 -136 q 291 -19 252 -73 q 330 104 330 33 q 307 223 330 162 q 245 341 284 283 l 245 350 l 376 350 q 424 241 402 301 q 447 126 447 181 "},"{":{"x_min":41,"x_max":601,"ha":667,"o":"m 601 -266 l 522 -266 q 331 -199 400 -266 q 263 -3 263 -132 l 263 97 q 254 192 263 144 q 220 273 245 239 q 155 324 195 307 q 55 342 114 342 l 41 342 l 41 447 l 55 447 q 155 464 114 447 q 220 515 195 481 q 254 596 245 549 q 263 691 263 644 l 263 792 q 331 988 263 921 q 522 1055 400 1055 l 601 1055 l 601 961 l 546 961 q 477 952 506 961 q 426 925 447 944 q 394 868 405 904 q 384 780 384 832 l 384 662 q 371 568 384 606 q 333 497 358 530 q 275 442 311 467 q 201 402 239 418 l 201 386 q 274 346 239 370 q 333 291 310 321 q 371 220 358 258 q 384 126 384 182 l 384 8 q 394 -79 384 -43 q 426 -136 405 -115 q 476 -163 447 -155 q 546 -172 506 -172 l 601 -172 l 601 -266 "},"ـ":{"x_min":-14,"x_max":368,"ha":355,"o":"m 368 0 l -14 0 l -14 128 l 368 128 l 368 0 "},"Ĳ":{"x_min":63,"x_max":919,"ha":1015,"o":"m 448 0 l 63 0 l 63 103 l 192 103 l 192 907 l 63 907 l 63 1010 l 455 1010 l 455 907 l 326 907 l 326 103 l 448 103 l 448 0 m 919 262 q 838 57 919 129 q 621 -14 758 -14 q 575 -12 604 -14 q 518 -7 547 -11 l 518 114 l 525 114 q 566 105 547 108 q 603 102 585 102 q 702 115 666 102 q 757 156 738 129 q 780 223 775 184 q 785 314 785 262 l 785 903 l 599 903 l 599 1010 l 919 1010 l 919 262 "},"ﺽ":{"x_min":62,"x_max":1542,"ha":1604,"o":"m 1542 276 q 1506 151 1542 204 q 1415 65 1471 98 q 1286 16 1359 33 q 1137 0 1214 0 l 749 0 q 635 -210 730 -133 q 389 -288 539 -288 q 150 -202 239 -288 q 62 38 62 -116 q 70 194 62 135 q 81 264 78 252 l 204 264 l 204 253 q 185 154 195 220 q 175 37 175 88 q 233 -111 175 -62 q 388 -160 292 -160 q 492 -146 445 -160 q 571 -98 539 -132 q 624 -3 607 -61 q 641 135 641 54 q 637 223 641 193 q 633 264 634 254 l 754 264 l 754 255 q 766 183 754 217 q 796 135 778 149 q 1032 429 897 305 q 1275 553 1167 553 q 1465 474 1389 553 q 1542 276 1542 396 m 1305 154 q 1403 207 1378 176 q 1429 274 1429 237 q 1386 380 1429 332 q 1273 428 1344 428 q 1183 396 1231 428 q 1082 316 1134 364 q 993 222 1036 274 q 922 128 949 170 l 1040 128 q 1179 134 1099 128 q 1305 154 1259 140 m 1205 721 l 1105 721 l 1105 821 l 1205 821 l 1205 721 "},"۰":{"x_min":228,"x_max":574,"ha":794,"o":"m 574 446 l 403 275 l 228 449 l 400 620 l 574 446 "},"ײ":{"x_min":14,"x_max":663,"ha":761,"o":"m 283 414 l 166 414 l 166 664 q 146 725 166 704 q 86 747 127 747 q 54 745 75 747 q 14 740 33 743 l 14 873 q 61 877 31 875 q 111 880 90 880 q 237 827 192 880 q 283 676 283 774 l 283 414 m 663 414 l 546 414 l 546 664 q 526 725 546 704 q 466 747 507 747 q 434 745 455 747 q 394 740 413 743 l 394 873 q 441 877 411 875 q 491 880 470 880 q 617 827 572 880 q 663 676 663 774 l 663 414 "},"Я":{"x_min":-3,"x_max":747,"ha":849,"o":"m 747 0 l 613 0 l 613 402 l 460 402 l 158 0 l -3 0 l 321 422 q 163 529 219 456 q 108 722 108 601 q 140 855 108 799 q 225 949 172 911 q 337 996 273 982 q 480 1010 402 1010 l 747 1010 l 747 0 m 613 514 l 613 894 l 473 894 q 379 886 415 894 q 315 859 344 879 q 266 800 284 838 q 249 717 249 762 q 261 627 249 663 q 301 564 274 591 q 376 524 332 534 q 478 514 420 514 l 613 514 "},"זּ":{"x_min":-1,"x_max":472,"ha":486,"o":"m 367 616 q 302 586 323 616 q 282 513 282 556 l 282 0 l 165 0 l 165 516 q 175 582 165 553 q 204 633 186 612 q 239 663 219 652 q 275 675 259 673 l 93 756 l 93 900 l 472 732 l 472 588 q 412 610 433 605 q 367 616 390 616 m 90 444 q 77 411 90 424 q 44 399 64 399 q 11 411 24 399 q -1 444 -1 424 q 11 477 -1 464 q 44 490 24 490 q 77 477 64 490 q 90 444 90 464 "},"ﻯ":{"x_min":62,"x_max":1152,"ha":1211,"o":"m 1152 574 l 1145 574 q 1034 625 1097 603 q 893 648 970 648 q 780 620 830 648 q 730 550 730 593 q 802 485 730 514 q 931 436 874 457 q 1004 405 965 423 q 1069 366 1043 386 q 1115 319 1098 345 q 1132 258 1132 294 q 967 65 1132 131 q 479 0 803 0 q 162 72 262 0 q 62 299 62 144 q 68 405 62 352 q 76 471 74 458 l 193 471 l 193 464 q 183 396 191 454 q 175 301 175 339 q 244 167 175 206 q 480 128 313 128 q 885 162 752 128 q 1019 257 1019 196 q 946 316 1019 288 q 818 364 874 343 q 744 397 781 379 q 679 437 707 415 q 634 487 651 459 q 617 551 617 515 q 695 706 617 640 q 895 773 774 773 q 1041 756 977 773 q 1152 718 1105 740 l 1152 574 "},"k":{"x_min":92,"x_max":720,"ha":692,"o":"m 720 0 l 552 0 l 269 365 l 220 316 l 220 0 l 92 0 l 92 1055 l 220 1055 l 220 437 l 519 758 l 678 758 l 366 441 l 720 0 "},"Ù":{"x_min":90,"x_max":821,"ha":911,"o":"m 455 -21 q 299 2 366 -21 q 186 71 233 25 q 111 198 133 124 q 90 379 90 272 l 90 1010 l 224 1010 l 224 380 q 232 262 224 310 q 267 176 241 214 q 341 115 294 136 q 455 94 387 94 q 567 115 518 94 q 643 176 616 136 q 677 262 668 215 q 687 376 687 308 l 687 1010 l 821 1010 l 821 379 q 799 199 821 274 q 724 71 778 124 q 612 2 676 25 q 455 -21 548 -21 m 580 1136 l 479 1136 l 294 1390 l 458 1390 l 580 1136 "},"":{"x_min":-674,"x_max":-132,"ha":0,"o":"m -132 1106 q -182 947 -138 1000 q -298 895 -226 895 q -364 907 -334 895 q -422 947 -393 920 q -473 990 -452 975 q -516 1005 -495 1004 q -563 974 -549 1005 q -579 892 -576 943 l -674 892 q -622 1049 -669 996 q -507 1103 -575 1103 q -444 1089 -473 1103 q -385 1050 -414 1076 q -333 1010 -356 1024 q -290 997 -309 997 q -243 1027 -258 997 q -227 1106 -229 1057 l -132 1106 "},"٫":{"x_min":161,"x_max":322,"ha":492,"o":"m 322 5 q 297 -104 322 -61 q 241 -175 272 -148 q 191 -208 215 -198 q 162 -220 167 -217 l 162 -127 q 176 -121 166 -125 q 201 -105 185 -118 q 227 -68 214 -93 q 240 -3 240 -42 l 161 -3 l 161 154 l 322 154 l 322 5 "},"ﭏ":{"x_min":28,"x_max":860,"ha":948,"o":"m 258 859 l 536 461 q 685 577 642 507 q 729 764 729 646 l 729 859 l 846 859 l 846 764 q 783 522 846 618 q 598 373 721 426 l 860 0 l 706 0 l 371 479 q 268 370 304 437 q 233 194 233 303 l 233 0 l 116 0 l 116 194 q 162 409 116 317 q 308 569 209 500 l 144 803 l 28 803 l 28 1135 l 145 1135 l 145 859 l 258 859 "},"В":{"x_min":102,"x_max":788,"ha":819,"o":"m 788 310 q 759 177 788 234 q 682 82 730 119 q 560 18 625 37 q 392 0 495 0 l 102 0 l 102 1010 l 370 1010 q 531 1002 478 1010 q 635 969 585 995 q 714 893 689 940 q 740 782 740 846 q 702 654 740 711 q 598 566 664 598 l 598 561 q 738 472 688 536 q 788 310 788 407 m 600 763 q 587 826 600 799 q 548 868 575 853 q 475 890 515 886 q 365 895 435 895 l 236 895 l 236 600 l 388 600 q 481 606 451 600 q 543 633 511 612 q 587 684 574 652 q 600 763 600 716 m 648 304 q 631 398 648 361 q 565 461 615 435 q 496 483 533 478 q 388 488 458 488 l 236 488 l 236 115 l 345 115 q 484 123 433 115 q 574 157 535 131 q 630 217 612 184 q 648 304 648 251 "},"ذ":{"x_min":62,"x_max":582,"ha":650,"o":"m 437 450 q 543 330 505 388 q 582 219 582 272 q 566 139 582 180 q 520 68 550 97 q 434 17 484 35 q 319 0 384 0 l 62 0 l 62 128 l 317 128 q 428 152 388 128 q 469 218 469 177 q 443 281 469 247 q 376 353 417 316 q 286 425 334 390 q 176 502 238 460 l 176 648 l 182 648 q 308 556 228 615 q 437 450 387 497 m 279 799 l 179 799 l 179 899 l 279 899 l 279 799 "},"Ẹ":{"x_min":102,"x_max":734,"ha":779,"o":"m 102 0 l 102 1010 l 734 1010 l 734 891 l 236 891 l 236 614 l 700 614 l 700 495 l 236 495 l 236 119 l 734 119 l 734 0 l 102 0 m 492 -259 l 347 -259 l 347 -127 l 492 -127 l 492 -259 "},"β":{"x_min":92,"x_max":734,"ha":771,"o":"m 734 300 q 645 75 734 164 q 423 -14 557 -14 q 316 0 371 -14 q 220 43 261 15 l 220 -279 l 92 -279 l 92 730 q 172 968 92 882 q 401 1055 253 1055 q 509 1039 457 1055 q 598 994 561 1024 q 660 916 638 963 q 682 810 682 870 q 635 660 682 724 q 507 570 589 595 l 507 559 q 671 473 608 542 q 734 300 734 405 m 602 304 q 580 402 602 364 q 521 460 558 439 q 438 489 485 481 q 341 497 392 497 l 318 497 l 318 606 l 341 606 q 426 615 384 606 q 492 645 468 625 q 536 705 522 670 q 550 792 550 741 q 506 907 550 868 q 391 946 463 946 q 310 928 343 946 q 257 881 278 910 q 228 812 237 851 q 220 730 220 772 l 220 146 q 310 110 263 120 q 403 101 357 101 q 552 153 502 101 q 602 304 602 206 "},"≠":{"x_min":130,"x_max":880,"ha":1011,"o":"m 880 246 l 494 246 l 423 19 l 320 19 l 391 246 l 130 246 l 130 351 l 423 351 l 481 534 l 130 534 l 130 639 l 514 639 l 585 866 l 689 866 l 617 639 l 880 639 l 880 534 l 585 534 l 527 351 l 880 351 l 880 246 "},"":{"x_min":-536,"x_max":-356,"ha":0,"o":"m -356 1243 l -422 1243 l -536 1390 l -412 1390 l -356 1243 "},"Ĥ":{"x_min":102,"x_max":836,"ha":938,"o":"m 836 0 l 702 0 l 702 495 l 236 495 l 236 0 l 102 0 l 102 1010 l 236 1010 l 236 614 l 702 614 l 702 1010 l 836 1010 l 836 0 m 701 1133 l 593 1133 l 467 1306 l 343 1133 l 238 1133 l 392 1390 l 546 1390 l 701 1133 "},"U":{"x_min":90,"x_max":821,"ha":911,"o":"m 455 -21 q 299 2 366 -21 q 186 71 233 25 q 111 198 133 124 q 90 379 90 272 l 90 1010 l 224 1010 l 224 380 q 232 262 224 310 q 267 176 241 214 q 341 115 294 136 q 455 94 387 94 q 567 115 518 94 q 643 176 616 136 q 677 262 668 215 q 687 376 687 308 l 687 1010 l 821 1010 l 821 379 q 799 199 821 274 q 724 71 778 124 q 612 2 676 25 q 455 -21 548 -21 "},"ﺢ":{"x_min":54,"x_max":988,"ha":973,"o":"m 988 0 l 905 0 q 747 49 795 0 q 700 213 700 99 l 700 381 q 476 359 576 378 q 309 304 377 340 q 203 210 240 267 q 167 75 167 153 q 244 -97 167 -31 q 444 -163 322 -163 q 610 -141 536 -163 q 739 -85 684 -120 l 746 -85 l 746 -221 q 620 -269 686 -251 q 445 -288 554 -288 q 291 -263 362 -288 q 167 -193 220 -239 q 84 -78 114 -146 q 54 76 54 -10 q 92 227 54 156 q 213 355 130 298 q 368 425 281 401 q 540 455 455 450 q 379 509 457 494 q 190 524 300 524 l 139 524 l 139 649 l 198 649 q 448 605 308 649 q 710 486 588 561 l 825 486 l 825 381 l 787 381 l 787 275 q 790 214 787 237 q 808 168 794 190 q 842 138 821 149 q 902 128 864 128 l 988 128 l 988 0 m 760 486 l 760 486 m 846 0 l 846 0 "},"ả":{"x_min":39,"x_max":642,"ha":729,"o":"m 514 186 l 514 397 q 399 385 468 392 q 287 365 330 378 q 204 318 237 350 q 171 228 171 285 q 207 130 171 163 q 314 97 243 97 q 422 122 374 97 q 514 186 471 148 m 514 80 q 472 48 498 69 q 421 15 446 27 q 356 -11 388 -2 q 268 -21 325 -21 q 179 -3 221 -21 q 105 46 137 14 q 57 123 75 77 q 39 219 39 169 q 72 354 39 298 q 177 441 105 409 q 327 482 240 471 q 514 499 413 493 l 514 523 q 500 595 514 567 q 462 637 486 622 q 403 657 438 652 q 330 663 368 663 q 227 649 286 663 q 108 612 167 636 l 101 612 l 101 741 q 202 763 136 751 q 332 776 267 776 q 463 763 410 776 q 559 719 517 751 q 621 638 601 688 q 642 518 642 589 l 642 0 l 514 0 l 514 80 m 465 1036 q 442 966 465 993 q 376 926 420 940 l 376 880 l 301 880 l 301 962 q 348 983 332 970 q 365 1023 365 996 q 352 1052 365 1039 q 317 1066 339 1066 q 283 1062 296 1066 q 255 1053 271 1059 l 253 1053 l 253 1124 q 290 1132 265 1128 q 341 1137 315 1137 q 430 1107 395 1137 q 465 1036 465 1078 "},"ﻌ":{"x_min":-16,"x_max":687,"ha":671,"o":"m 687 0 l 558 0 q 437 26 493 0 q 335 88 381 52 q 233 26 288 52 q 111 0 178 0 l -16 0 l -16 128 l 113 128 q 188 136 157 128 q 241 158 219 145 q 205 185 232 164 q 141 242 177 206 q 72 321 103 278 q 41 399 41 364 q 71 475 41 443 q 145 527 101 506 q 245 557 193 549 q 335 566 296 566 q 429 557 378 566 q 524 529 479 548 q 600 479 570 509 q 630 401 630 448 q 596 321 630 365 q 528 244 563 276 q 461 185 487 205 q 426 160 435 166 q 474 141 437 154 q 555 128 511 128 l 687 128 l 687 0 m 426 276 q 489 328 462 303 q 517 368 517 352 q 498 403 517 389 q 451 423 479 416 q 389 433 423 431 q 335 436 356 436 q 202 417 251 436 q 154 369 154 399 q 183 326 154 354 q 244 277 213 299 q 303 236 280 251 q 335 216 327 221 q 368 236 343 221 q 426 276 392 252 "},"ﮔ":{"x_min":-16,"x_max":585,"ha":667,"o":"m 585 904 l 205 721 q 156 696 183 711 q 129 670 129 681 q 157 634 129 658 q 212 588 185 610 l 393 440 q 486 336 458 386 q 514 233 514 285 q 498 142 514 186 q 452 68 482 98 q 366 17 417 34 q 251 0 316 0 l -16 0 l -16 128 l 249 128 q 366 158 332 128 q 401 232 401 188 q 372 303 401 263 q 263 410 343 343 l 77 562 q 22 616 45 588 q -1 676 -1 644 q 26 750 -1 718 q 149 828 54 783 l 585 1038 l 585 904 m 559 1105 l 8 840 l 8 908 l 559 1173 l 559 1105 "},"ﻤ":{"x_min":-16,"x_max":858,"ha":843,"o":"m 554 35 q 497 1 527 14 q 420 -11 466 -11 q 295 20 351 -11 q 206 95 239 52 q 129 26 180 53 q -10 0 78 0 l -16 0 l -16 128 l 6 128 q 106 164 70 128 q 150 286 141 201 q 168 377 154 337 q 209 452 181 417 q 275 504 234 485 q 370 524 315 524 q 516 478 452 524 q 622 340 580 432 q 717 187 664 246 q 811 128 769 128 l 858 128 l 858 0 l 813 0 q 715 30 763 0 q 623 133 668 60 q 595 81 613 108 q 554 35 577 54 m 526 221 q 486 343 526 291 q 384 395 446 395 q 295 363 327 395 q 263 279 263 331 q 305 163 263 213 q 411 114 347 114 q 494 145 462 114 q 526 221 526 176 m 639 229 l 639 229 m 708 0 l 708 0 "},"∕":{"x_min":-20,"x_max":621,"ha":601,"o":"m 621 1010 l 91 0 l -20 0 l 509 1010 l 621 1010 "},"ờ":{"x_min":39,"x_max":775,"ha":781,"o":"m 715 378 q 622 83 715 187 q 377 -21 530 -21 q 129 86 219 -21 q 39 378 39 194 q 132 673 39 568 q 377 779 225 779 q 442 773 411 779 q 502 758 473 768 l 562 758 q 648 780 623 758 q 673 850 673 802 q 665 906 673 875 q 650 952 658 937 l 650 959 l 758 959 q 771 903 767 927 q 775 845 775 879 q 736 730 775 773 q 624 673 697 686 q 691 547 668 622 q 715 378 715 473 m 583 378 q 529 597 583 525 q 377 669 476 669 q 224 597 278 669 q 171 378 171 525 q 224 162 171 236 q 377 89 278 89 q 529 161 475 89 q 583 378 583 233 m 453 883 l 352 883 l 167 1137 l 331 1137 l 453 883 "},"ﺤ":{"x_min":-16,"x_max":960,"ha":945,"o":"m 538 146 q 258 40 388 81 q 56 0 128 0 l -16 0 l -16 128 l 59 128 q 324 185 154 128 q 616 306 494 243 q 428 387 557 347 q 164 428 300 428 l 85 428 l 85 553 l 171 553 q 445 505 296 553 q 733 370 593 457 l 869 440 l 869 312 q 764 254 822 284 q 643 194 706 223 q 688 146 658 164 q 772 128 718 128 l 960 128 l 960 0 l 774 0 q 618 35 680 0 q 538 146 557 71 m 916 0 l 916 0 "},"Ϋ":{"x_min":-7,"x_max":809,"ha":800,"o":"m 809 1010 l 468 447 l 468 0 l 334 0 l 334 432 l -7 1010 l 141 1010 l 401 564 l 666 1010 l 809 1010 m 609 1137 l 473 1137 l 473 1269 l 609 1269 l 609 1137 m 329 1137 l 193 1137 l 193 1269 l 329 1269 l 329 1137 "},"ō":{"x_min":39,"x_max":715,"ha":754,"o":"m 715 378 q 622 83 715 187 q 377 -21 530 -21 q 129 86 219 -21 q 39 378 39 194 q 132 673 39 568 q 377 779 225 779 q 622 674 530 779 q 715 378 715 569 m 583 378 q 529 597 583 525 q 377 669 476 669 q 224 597 278 669 q 171 378 171 525 q 224 162 171 236 q 377 89 278 89 q 529 161 475 89 q 583 378 583 233 m 633 905 l 122 905 l 122 1010 l 633 1010 l 633 905 "},"ﻛ":{"x_min":-16,"x_max":585,"ha":667,"o":"m 585 905 l 205 722 q 156 696 184 712 q 129 670 129 681 q 154 637 129 660 q 212 588 179 615 l 393 440 q 486 336 458 386 q 514 233 514 285 q 498 142 514 186 q 452 68 482 98 q 367 17 417 34 q 251 0 316 0 l -16 0 l -16 128 l 249 128 q 363 155 325 128 q 401 232 401 182 q 372 303 401 263 q 263 410 344 343 l 77 562 q 23 616 46 589 q 0 676 0 644 q 38 758 0 724 q 149 828 76 793 l 585 1038 l 585 905 "},"ﺛ":{"x_min":-16,"x_max":301,"ha":389,"o":"m 298 307 q 229 81 298 162 q 40 0 161 0 l -16 0 l -16 128 l 44 128 q 149 177 113 128 q 185 315 185 226 l 185 486 l 298 486 l 298 307 m 101 658 l 1 658 l 1 758 l 101 758 l 101 658 m 301 658 l 201 658 l 201 758 l 301 758 l 301 658 m 201 799 l 101 799 l 101 899 l 201 899 l 201 799 "},"ö":{"x_min":39,"x_max":715,"ha":754,"o":"m 715 378 q 622 83 715 187 q 377 -21 530 -21 q 129 86 219 -21 q 39 378 39 194 q 132 673 39 568 q 377 779 225 779 q 622 674 530 779 q 715 378 715 569 m 583 378 q 529 597 583 525 q 377 669 476 669 q 224 597 278 669 q 171 378 171 525 q 224 162 171 236 q 377 89 278 89 q 529 161 475 89 q 583 378 583 233 m 585 884 l 449 884 l 449 1016 l 585 1016 l 585 884 m 305 884 l 169 884 l 169 1016 l 305 1016 l 305 884 "},"گ":{"x_min":62,"x_max":1201,"ha":1283,"o":"m 865 128 q 982 158 948 128 q 1017 232 1017 188 q 988 303 1017 262 q 879 409 960 343 l 693 562 q 639 616 662 589 q 616 676 616 644 q 643 750 616 718 q 765 828 670 782 l 1201 1038 l 1201 904 l 821 721 q 773 696 800 711 q 746 670 746 681 q 774 634 746 658 q 829 588 803 610 l 1009 440 q 1102 336 1074 386 q 1130 233 1130 285 q 1114 142 1130 186 q 1068 68 1098 98 q 983 17 1033 34 q 867 0 932 0 l 554 0 q 184 88 306 0 q 62 340 62 176 q 69 429 62 393 q 77 475 76 466 l 193 475 l 193 468 q 182 414 189 453 q 175 348 175 376 q 194 261 175 300 q 259 191 213 221 q 375 144 305 161 q 555 128 445 128 l 865 128 m 1175 1105 l 625 840 l 625 908 l 1175 1173 l 1175 1105 "},"А":{"x_min":-7,"x_max":840,"ha":833,"o":"m -7 0 l 333 1010 l 499 1010 l 840 0 l 698 0 l 607 282 l 220 282 l 129 0 l -7 0 m 569 397 l 413 872 l 258 397 l 569 397 "},"′":{"x_min":93,"x_max":387,"ha":408,"o":"m 387 1010 l 185 590 l 93 590 l 224 1010 l 387 1010 "},"ĭ":{"x_min":-31,"x_max":348,"ha":317,"o":"m 223 0 l 95 0 l 95 758 l 223 758 l 223 0 m 348 1093 q 300 923 348 988 q 158 858 253 858 q 17 922 65 858 q -31 1093 -31 987 l 68 1093 q 90 973 68 1009 q 158 937 112 937 q 225 970 202 937 q 249 1093 249 1003 l 348 1093 "},"8":{"x_min":50,"x_max":708,"ha":758,"o":"m 550 774 q 504 887 550 842 q 378 933 459 933 q 257 892 304 933 q 210 782 210 851 q 234 697 210 732 q 306 635 258 663 q 370 603 327 624 q 448 571 413 583 q 528 664 507 617 q 550 774 550 712 m 569 268 q 544 367 569 331 q 450 442 520 404 q 388 470 427 455 q 302 505 350 485 q 215 413 245 468 q 186 288 186 358 q 241 137 186 197 q 380 78 296 78 q 517 129 465 78 q 569 268 569 180 m 379 -23 q 241 0 303 -23 q 136 63 180 21 q 72 160 94 104 q 50 278 50 216 q 93 429 50 360 q 220 539 137 498 l 220 543 q 109 638 145 586 q 74 767 74 689 q 160 957 74 881 q 378 1033 246 1033 q 599 960 516 1033 q 683 775 683 888 q 643 641 683 708 q 528 537 603 575 l 528 533 q 662 433 617 492 q 708 281 708 374 q 614 64 708 151 q 379 -23 520 -23 "},"ﻱ":{"x_min":62,"x_max":1152,"ha":1211,"o":"m 1152 574 l 1145 574 q 1034 625 1097 603 q 893 648 970 648 q 780 620 830 648 q 730 550 730 593 q 802 485 730 514 q 931 436 874 457 q 1004 405 965 423 q 1069 366 1043 386 q 1115 319 1098 345 q 1132 258 1132 294 q 967 65 1132 131 q 479 0 803 0 q 162 72 262 0 q 62 299 62 144 q 68 405 62 352 q 76 471 74 458 l 193 471 l 193 464 q 183 396 191 454 q 175 301 175 339 q 244 167 175 206 q 480 128 313 128 q 885 162 752 128 q 1019 257 1019 196 q 946 316 1019 288 q 818 364 874 343 q 744 397 781 379 q 679 437 707 415 q 634 487 651 459 q 617 551 617 515 q 695 706 617 640 q 895 773 774 773 q 1041 756 977 773 q 1152 718 1105 740 l 1152 574 m 465 -197 l 365 -197 l 365 -97 l 465 -97 l 465 -197 m 646 -197 l 546 -197 l 546 -97 l 646 -97 l 646 -197 "},"ﺅ":{"x_min":-80,"x_max":515,"ha":579,"o":"m 515 125 q 454 -88 515 0 q 285 -221 393 -176 q 108 -273 199 -259 q -80 -288 18 -288 l -80 -160 q 88 -149 9 -160 q 224 -115 166 -137 q 350 -33 303 -85 q 398 104 398 19 q 355 87 388 98 q 292 77 321 77 q 110 139 175 77 q 46 291 46 201 q 112 470 46 394 q 260 546 179 546 q 444 428 373 546 q 515 125 515 311 m 389 231 q 381 281 389 250 q 356 345 372 313 q 318 396 341 374 q 269 418 295 418 q 192 379 222 418 q 163 296 163 341 q 199 230 163 256 q 298 205 236 205 q 352 214 327 205 q 389 231 378 223 m 373 659 l 145 659 l 145 723 l 195 723 q 168 751 179 731 q 158 791 158 770 q 189 867 158 835 q 275 900 221 900 q 328 895 311 900 q 353 889 346 891 l 353 820 l 348 820 q 316 830 339 824 q 277 836 294 836 q 232 823 247 836 q 218 791 218 811 q 249 742 218 761 q 322 723 280 723 l 373 723 l 373 659 "},"ﻸ":{"x_min":22,"x_max":987,"ha":986,"o":"m 906 0 q 771 41 827 0 q 689 166 714 83 q 539 43 628 87 q 354 0 451 0 q 228 4 286 0 q 160 9 169 8 l 160 144 l 166 144 q 246 133 187 138 q 355 128 306 128 q 389 132 377 128 q 401 136 401 136 l 35 1004 l 166 1004 l 516 178 q 611 266 572 201 q 650 390 650 332 l 650 1055 l 763 1055 l 763 382 q 768 291 763 331 q 792 210 773 252 q 835 151 807 174 q 904 128 862 128 l 987 128 l 987 0 l 906 0 m 846 0 l 846 0 m 250 1083 l 22 1083 l 22 1147 l 72 1147 q 45 1175 56 1155 q 35 1215 35 1194 q 66 1291 35 1259 q 152 1324 98 1324 q 205 1319 188 1324 q 230 1313 223 1315 l 230 1244 l 225 1244 q 193 1254 216 1248 q 154 1260 171 1260 q 109 1247 124 1260 q 95 1215 95 1235 q 126 1166 95 1185 q 199 1147 157 1147 l 250 1147 l 250 1083 "},"Ữ":{"x_min":90,"x_max":1046,"ha":999,"o":"m 455 -21 q 299 2 366 -21 q 186 71 233 25 q 111 198 133 124 q 90 379 90 272 l 90 1010 l 224 1010 l 224 380 q 232 262 224 310 q 267 176 241 214 q 341 115 294 136 q 455 94 387 94 q 567 115 518 94 q 643 176 616 136 q 677 262 668 215 q 687 376 687 308 l 687 1010 l 833 1010 q 918 1032 893 1010 q 944 1102 944 1054 q 936 1157 944 1126 q 921 1203 929 1188 l 921 1210 l 1029 1210 q 1042 1154 1038 1178 q 1046 1096 1046 1130 q 987 962 1046 1007 q 821 918 929 918 l 821 379 q 799 199 821 274 q 724 71 778 124 q 612 2 676 25 q 455 -21 548 -21 m 727 1352 q 676 1193 720 1246 q 560 1141 632 1141 q 495 1153 524 1141 q 436 1193 465 1166 q 385 1236 406 1221 q 342 1251 363 1250 q 295 1220 309 1251 q 280 1138 282 1189 l 185 1138 q 236 1295 189 1242 q 351 1349 283 1349 q 414 1335 385 1349 q 473 1296 444 1322 q 525 1256 502 1270 q 568 1243 549 1243 q 615 1273 600 1243 q 632 1352 629 1303 l 727 1352 "},"R":{"x_min":102,"x_max":884,"ha":862,"o":"m 884 0 l 709 0 l 389 402 l 236 402 l 236 0 l 102 0 l 102 1010 l 362 1010 q 507 1000 449 1010 q 619 956 566 991 q 703 869 672 922 q 734 736 734 815 q 677 550 734 625 q 524 439 621 475 l 884 0 m 594 725 q 578 803 594 769 q 530 859 562 837 q 463 886 501 878 q 369 894 425 894 l 236 894 l 236 514 l 354 514 q 458 524 411 514 q 536 566 504 534 q 580 633 566 594 q 594 725 594 672 "},"Ż":{"x_min":41,"x_max":747,"ha":777,"o":"m 747 0 l 41 0 l 41 124 l 583 891 l 65 891 l 65 1010 l 733 1010 l 733 888 l 185 119 l 747 119 l 747 0 m 467 1137 l 322 1137 l 322 1269 l 467 1269 l 467 1137 "},"ħ":{"x_min":8,"x_max":716,"ha":803,"o":"m 716 0 l 588 0 l 588 431 q 583 529 588 484 q 563 601 578 574 q 520 644 548 630 q 444 658 492 658 q 346 632 397 658 q 248 566 296 607 l 248 0 l 120 0 l 120 859 l 8 859 l 8 951 l 120 951 l 120 1055 l 247 1055 l 248 951 l 453 951 l 453 859 l 248 859 l 248 673 q 360 751 304 724 q 477 779 416 779 q 652 705 589 779 q 716 491 716 631 l 716 0 "},"ﻝ":{"x_min":62,"x_max":816,"ha":899,"o":"m 816 298 q 708 73 816 154 q 407 -8 600 -8 q 140 60 218 -8 q 62 291 62 128 q 68 401 62 344 q 76 463 75 457 l 193 463 l 193 456 q 183 388 191 446 q 175 293 175 330 q 184 210 175 241 q 216 159 193 178 q 286 129 240 138 q 408 120 332 120 q 541 136 485 120 q 633 178 597 152 q 686 239 669 206 q 703 307 703 271 l 703 1055 l 816 1055 l 816 298 "},"ى":{"x_min":62,"x_max":1152,"ha":1211,"o":"m 1152 574 l 1145 574 q 1034 625 1097 603 q 893 648 970 648 q 780 620 830 648 q 730 550 730 593 q 802 485 730 514 q 931 436 874 457 q 1004 405 965 423 q 1069 366 1043 386 q 1115 319 1098 345 q 1132 258 1132 294 q 967 65 1132 131 q 479 0 803 0 q 162 72 262 0 q 62 299 62 144 q 68 405 62 352 q 76 471 74 458 l 193 471 l 193 464 q 183 396 191 454 q 175 301 175 339 q 244 167 175 206 q 480 128 313 128 q 885 162 752 128 q 1019 257 1019 196 q 946 316 1019 288 q 818 364 874 343 q 744 397 781 379 q 679 437 707 415 q 634 487 651 459 q 617 551 617 515 q 695 706 617 640 q 895 773 774 773 q 1041 756 977 773 q 1152 718 1105 740 l 1152 574 "},"ֹ":{"x_min":317,"x_max":408,"ha":724,"o":"m 408 966 q 395 933 408 946 q 362 921 382 921 q 329 933 342 921 q 317 966 317 946 q 329 999 317 986 q 362 1012 342 1012 q 395 999 382 1012 q 408 966 408 986 "},"˙":{"x_min":307,"x_max":452,"ha":758,"o":"m 452 884 l 307 884 l 307 1016 l 452 1016 l 452 884 "},"„":{"x_min":-5,"x_max":530,"ha":552,"o":"m 530 192 l 352 -187 l 262 -187 l 368 192 l 530 192 m 263 192 l 85 -187 l -5 -187 l 101 192 l 263 192 "},"δ":{"x_min":39,"x_max":715,"ha":754,"o":"m 715 372 q 623 81 715 184 q 377 -21 531 -21 q 129 81 220 -21 q 39 362 39 183 q 63 516 39 448 q 131 634 87 585 q 232 711 174 682 q 353 750 291 739 q 234 847 290 804 q 122 933 179 891 l 122 1055 l 648 1055 l 648 948 l 287 948 l 287 941 q 400 857 329 910 q 539 741 472 804 q 678 563 641 646 q 715 372 715 480 m 583 373 q 547 547 583 470 q 439 677 511 625 q 349 655 395 672 q 262 603 304 639 q 196 509 221 568 q 171 366 171 450 q 224 159 171 230 q 377 89 278 89 q 529 160 475 89 q 583 373 583 231 "},"Â":{"x_min":-7,"x_max":840,"ha":833,"o":"m -7 0 l 333 1010 l 499 1010 l 840 0 l 698 0 l 607 282 l 220 282 l 129 0 l -7 0 m 569 397 l 413 872 l 258 397 l 569 397 m 638 1119 l 530 1119 l 404 1292 l 280 1119 l 175 1119 l 329 1376 l 483 1376 l 638 1119 "},"Į":{"x_min":63,"x_max":503,"ha":518,"o":"m 215 0 l 63 0 l 63 103 l 192 103 l 192 907 l 63 907 l 63 1010 l 455 1010 l 455 907 l 326 907 l 326 103 l 455 103 l 455 0 l 324 0 q 317 -32 320 -19 q 314 -72 314 -46 q 336 -154 314 -127 q 417 -182 358 -182 q 462 -175 440 -182 q 496 -162 484 -169 l 503 -162 l 503 -268 q 451 -279 478 -275 q 400 -283 423 -283 q 260 -232 316 -283 q 205 -79 205 -181 q 208 -38 205 -56 q 215 0 211 -20 "},"٢":{"x_min":45,"x_max":723,"ha":794,"o":"m 723 785 q 595 733 667 751 q 433 716 523 716 q 347 725 389 716 q 285 740 305 734 l 354 620 q 418 469 398 543 q 439 290 439 395 l 439 0 l 326 0 l 326 290 q 300 461 326 390 q 228 612 274 531 l 45 933 l 161 933 q 268 874 192 907 q 431 841 345 841 q 601 869 528 841 q 716 930 673 898 l 723 930 l 723 785 "},"ω":{"x_min":43,"x_max":963,"ha":1006,"o":"m 963 339 q 947 209 963 279 q 901 93 931 139 q 820 10 869 41 q 696 -21 771 -21 q 582 12 633 -21 q 507 91 530 45 l 498 91 q 421 11 473 44 q 309 -21 370 -21 q 187 10 238 -21 q 104 93 135 41 q 58 205 73 142 q 43 339 43 269 q 83 560 43 463 q 205 758 124 657 l 357 758 l 357 746 q 221 568 269 668 q 173 339 173 468 q 179 256 173 300 q 200 174 185 213 q 245 113 216 138 q 317 88 273 88 q 401 113 371 88 q 440 168 431 139 l 440 566 l 566 566 l 566 168 q 580 142 570 159 q 602 115 590 126 q 635 95 617 102 q 688 88 653 88 q 761 113 732 88 q 805 174 790 138 q 826 253 820 211 q 833 339 833 295 q 784 569 833 468 q 649 746 735 671 l 649 758 l 800 758 q 921 563 880 658 q 963 339 963 468 "},"מּ":{"x_min":58,"x_max":853,"ha":951,"o":"m 259 750 q 377 846 307 813 q 534 880 447 880 q 673 856 615 880 q 772 782 731 833 q 832 652 812 732 q 853 461 853 572 l 853 0 l 410 0 l 410 133 l 736 133 l 736 464 q 719 596 736 542 q 675 683 703 649 q 608 732 646 717 q 523 747 570 747 q 433 730 477 747 q 349 667 388 713 q 296 573 317 628 q 261 449 275 518 l 177 0 l 58 0 l 159 507 q 171 557 165 535 q 185 605 177 580 l 58 859 l 205 859 l 259 750 m 548 444 q 535 411 548 424 q 502 399 522 399 q 469 411 482 399 q 457 444 457 424 q 469 477 457 464 q 502 490 482 490 q 535 477 522 490 q 548 444 548 464 "},"":{"x_min":-493,"x_max":-311,"ha":0,"o":"m -311 1390 l -427 1243 l -493 1243 l -437 1390 l -311 1390 "},"´":{"x_min":305,"x_max":591,"ha":758,"o":"m 591 1137 l 405 883 l 305 883 l 426 1137 l 591 1137 "},"ْ":{"x_min":0,"x_max":256,"ha":256,"o":"m 256 1210 q 217 1119 256 1156 q 127 1082 179 1082 q 37 1119 74 1082 q 0 1210 0 1157 q 37 1300 0 1262 q 127 1338 75 1338 q 218 1300 180 1338 q 256 1210 256 1263 m 194 1209 q 174 1255 194 1236 q 127 1275 155 1275 q 81 1255 100 1275 q 62 1209 62 1236 q 81 1165 62 1184 q 127 1146 101 1146 q 174 1165 154 1146 q 194 1209 194 1184 "},"ỏ":{"x_min":39,"x_max":715,"ha":754,"o":"m 715 378 q 622 83 715 187 q 377 -21 530 -21 q 129 86 219 -21 q 39 378 39 194 q 132 673 39 568 q 377 779 225 779 q 622 674 530 779 q 715 378 715 569 m 583 378 q 529 597 583 525 q 377 669 476 669 q 224 597 278 669 q 171 378 171 525 q 224 162 171 236 q 377 89 278 89 q 529 161 475 89 q 583 378 583 233 m 503 1036 q 480 966 503 992 q 413 925 458 940 l 413 879 l 339 879 l 339 961 q 387 983 370 969 q 403 1022 403 996 q 390 1052 403 1039 q 355 1065 377 1065 q 321 1062 334 1065 q 293 1053 309 1059 l 290 1053 l 290 1124 q 328 1132 303 1128 q 379 1136 353 1136 q 468 1107 434 1136 q 503 1036 503 1078 "},"Ĉ":{"x_min":45,"x_max":811,"ha":834,"o":"m 497 -18 q 315 15 398 -18 q 171 114 232 48 q 78 278 111 179 q 45 503 45 376 q 77 724 45 630 q 171 889 109 819 q 314 992 231 956 q 499 1028 396 1028 q 594 1020 550 1028 q 676 1001 638 1013 q 743 976 709 991 q 811 942 777 960 l 811 780 l 800 780 q 754 819 782 796 q 687 864 726 842 q 603 899 648 885 q 498 913 557 913 q 376 886 433 913 q 275 808 318 860 q 208 679 232 757 q 185 503 185 601 q 210 325 185 400 q 278 198 235 250 q 377 123 320 148 q 498 98 434 98 q 605 112 556 98 q 693 148 655 126 q 758 191 731 169 q 800 229 785 213 l 811 229 l 811 68 q 748 39 777 53 q 676 11 718 24 q 595 -10 632 -3 q 497 -18 557 -18 m 714 1133 l 606 1133 l 480 1306 l 356 1133 l 251 1133 l 405 1390 l 559 1390 l 714 1133 "},"Љ":{"x_min":10,"x_max":1365,"ha":1391,"o":"m 1365 312 q 1336 179 1365 239 q 1259 82 1308 120 q 1137 19 1202 38 q 969 0 1072 0 l 684 0 l 684 891 l 364 891 q 358 741 361 814 q 353 610 355 668 q 335 373 347 467 q 305 217 323 280 q 261 117 286 155 q 208 53 237 79 q 142 11 177 25 q 61 -2 107 -2 q 32 0 47 -2 q 10 0 18 0 l 10 130 l 19 130 q 31 128 26 129 q 45 128 35 128 q 90 135 69 128 q 126 158 111 142 q 193 320 172 203 q 224 633 215 436 q 230 809 227 699 q 237 1010 234 918 l 818 1010 l 818 614 l 973 614 q 1141 602 1076 614 q 1264 545 1206 590 q 1340 446 1316 505 q 1365 312 1365 387 m 1225 310 q 1208 399 1225 361 q 1155 462 1191 438 q 1069 492 1118 487 q 931 498 1020 498 l 818 498 l 818 115 l 928 115 q 1067 123 1018 115 q 1152 157 1115 132 q 1207 219 1190 184 q 1225 310 1225 255 "},"р":{"x_min":92,"x_max":728,"ha":768,"o":"m 728 398 q 637 97 728 209 q 408 -15 546 -15 q 308 -2 352 -15 q 220 37 265 10 l 220 -279 l 92 -279 l 92 758 l 220 758 l 220 678 q 325 750 267 721 q 451 779 383 779 q 655 675 582 779 q 728 398 728 572 m 596 385 q 554 586 596 514 q 420 658 513 658 q 315 633 366 658 q 220 571 265 609 l 220 142 q 305 108 270 117 q 387 100 341 100 q 541 172 486 100 q 596 385 596 245 "},"т":{"x_min":2,"x_max":646,"ha":648,"o":"m 646 647 l 388 647 l 388 0 l 260 0 l 260 647 l 2 647 l 2 758 l 646 758 l 646 647 "},"П":{"x_min":102,"x_max":836,"ha":938,"o":"m 836 0 l 702 0 l 702 891 l 236 891 l 236 0 l 102 0 l 102 1010 l 836 1010 l 836 0 "},"Ö":{"x_min":45,"x_max":938,"ha":983,"o":"m 816 893 q 906 729 874 827 q 938 504 938 630 q 906 282 938 381 q 816 116 875 183 q 672 12 754 46 q 491 -21 590 -21 q 306 13 388 -21 q 165 116 224 48 q 76 282 107 183 q 45 504 45 380 q 76 728 45 632 q 166 893 108 824 q 307 996 224 961 q 491 1031 389 1031 q 676 995 594 1031 q 816 893 759 959 m 798 504 q 776 682 798 605 q 715 810 754 759 q 618 888 675 862 q 491 915 562 915 q 364 889 418 915 q 267 810 309 864 q 206 681 227 759 q 185 504 185 603 q 268 200 185 305 q 491 95 351 95 q 715 200 632 95 q 798 504 798 305 m 698 1137 l 562 1137 l 562 1269 l 698 1269 l 698 1137 m 418 1137 l 282 1137 l 282 1269 l 418 1269 l 418 1137 "},"":{"x_min":-448,"x_max":-303,"ha":0,"o":"m -303 -259 l -448 -259 l -448 -127 l -303 -127 l -303 -259 "},"Θ":{"x_min":45,"x_max":938,"ha":983,"o":"m 816 893 q 906 729 874 827 q 938 504 938 630 q 906 282 938 381 q 816 116 875 183 q 672 12 754 46 q 491 -21 590 -21 q 306 13 388 -21 q 165 116 224 48 q 76 282 107 183 q 45 504 45 380 q 76 728 45 632 q 166 893 108 824 q 307 996 224 961 q 491 1031 389 1031 q 676 995 594 1031 q 816 893 759 959 m 798 504 q 776 682 798 605 q 715 810 754 759 q 618 888 675 862 q 491 915 562 915 q 364 889 418 915 q 267 810 309 864 q 206 681 227 759 q 185 504 185 603 q 268 200 185 305 q 491 95 351 95 q 715 200 632 95 q 798 504 798 305 m 690 484 l 293 484 l 293 605 l 690 605 l 690 484 "},"Ř":{"x_min":102,"x_max":884,"ha":862,"o":"m 884 0 l 709 0 l 389 402 l 236 402 l 236 0 l 102 0 l 102 1010 l 362 1010 q 507 1000 449 1010 q 619 956 566 991 q 703 869 672 922 q 734 736 734 815 q 677 550 734 625 q 524 439 621 475 l 884 0 m 594 725 q 578 803 594 769 q 530 859 562 837 q 463 886 501 878 q 369 894 425 894 l 236 894 l 236 514 l 354 514 q 458 524 411 514 q 536 566 504 534 q 580 633 566 594 q 594 725 594 672 m 643 1390 l 488 1133 l 334 1133 l 180 1390 l 287 1390 l 413 1216 l 537 1390 l 643 1390 "},"שׂ":{"x_min":102,"x_max":1092,"ha":1133,"o":"m 1092 859 q 940 386 1039 581 q 698 93 841 190 q 535 22 626 44 q 322 0 444 0 l 102 0 l 102 859 l 221 859 l 221 400 q 317 410 275 401 q 393 448 359 418 q 483 584 445 494 q 555 859 521 673 l 679 859 q 589 532 639 646 q 474 362 539 417 q 353 304 421 318 q 221 291 284 291 l 221 133 l 331 133 q 505 148 436 133 q 628 202 573 164 q 837 455 751 285 q 968 859 923 626 l 1092 859 m 207 966 q 194 933 207 946 q 161 921 181 921 q 128 933 141 921 q 116 966 116 946 q 128 999 116 986 q 161 1012 141 1012 q 194 999 181 1012 q 207 966 207 986 "},"ừ":{"x_min":87,"x_max":909,"ha":842,"o":"m 682 0 l 554 0 l 554 84 q 442 5 495 32 q 324 -21 389 -21 q 231 -4 275 -21 q 155 46 187 11 q 104 135 122 82 q 87 266 87 189 l 87 758 l 215 758 l 215 326 q 219 225 215 265 q 239 156 223 186 q 281 113 254 127 q 358 100 308 100 q 457 126 404 100 q 554 191 510 153 l 554 758 l 695 758 q 781 780 756 758 q 807 850 807 802 q 799 905 807 874 q 784 951 792 936 l 784 958 l 892 958 q 905 902 901 926 q 909 844 909 878 q 850 710 909 755 q 683 666 792 666 l 682 666 l 682 0 m 467 883 l 366 883 l 181 1137 l 345 1137 l 467 883 "},"Ợ":{"x_min":45,"x_max":1061,"ha":1044,"o":"m 900 744 q 928 631 919 691 q 938 504 938 572 q 906 282 938 381 q 816 116 875 183 q 672 12 754 46 q 491 -21 590 -21 q 306 13 388 -21 q 165 116 224 48 q 76 282 107 183 q 45 504 45 380 q 76 728 45 632 q 166 893 108 824 q 307 996 224 961 q 491 1031 389 1031 q 676 995 594 1031 q 816 893 759 959 q 840 863 828 879 q 860 831 851 847 q 936 855 913 833 q 959 923 959 877 q 951 978 959 947 q 936 1024 944 1009 l 936 1031 l 1044 1031 q 1057 975 1053 999 q 1061 917 1061 951 q 1020 800 1061 844 q 900 744 979 756 m 798 504 q 776 682 798 605 q 715 810 754 759 q 618 888 675 862 q 491 915 562 915 q 364 889 418 915 q 267 810 309 864 q 206 681 227 759 q 185 504 185 603 q 268 200 185 305 q 491 95 351 95 q 715 200 632 95 q 798 504 798 305 m 557 -259 l 412 -259 l 412 -127 l 557 -127 l 557 -259 "},"É":{"x_min":102,"x_max":734,"ha":779,"o":"m 102 0 l 102 1010 l 734 1010 l 734 891 l 236 891 l 236 614 l 700 614 l 700 495 l 236 495 l 236 119 l 734 119 l 734 0 l 102 0 m 625 1390 l 439 1136 l 339 1136 l 460 1390 l 625 1390 "},"и":{"x_min":92,"x_max":691,"ha":783,"o":"m 691 0 l 565 0 l 565 565 l 207 0 l 92 0 l 92 758 l 218 758 l 218 201 l 571 758 l 691 758 l 691 0 "},"א":{"x_min":92,"x_max":847,"ha":935,"o":"m 244 859 l 523 461 q 672 577 629 507 q 716 764 716 646 l 716 859 l 833 859 l 833 764 q 770 522 833 618 q 584 373 708 426 l 847 0 l 694 0 l 358 479 q 255 370 291 437 q 219 194 219 303 l 219 0 l 102 0 l 102 194 q 148 409 102 317 q 295 569 195 500 l 92 859 l 244 859 "},"³":{"x_min":125,"x_max":568,"ha":685,"o":"m 568 561 q 547 475 568 513 q 494 414 527 437 q 417 378 458 389 q 321 368 375 368 q 217 378 266 368 q 125 407 169 388 l 125 526 l 136 526 q 213 482 161 502 q 319 462 265 462 q 413 486 376 462 q 451 560 451 511 q 421 633 451 609 q 321 657 392 657 l 227 657 l 227 751 l 311 751 q 402 776 370 751 q 435 847 435 802 q 407 912 435 888 q 320 937 379 937 q 223 915 275 937 q 146 871 171 894 l 135 871 l 135 989 q 229 1019 178 1007 q 333 1031 280 1031 q 494 983 436 1031 q 552 869 552 935 q 519 771 552 810 q 434 715 486 733 l 434 710 q 528 662 488 699 q 568 561 568 625 "},"ﺌ":{"x_min":-16,"x_max":503,"ha":488,"o":"m 503 0 l 408 0 q 315 22 366 0 q 242 83 264 45 q 171 21 218 43 q 78 0 123 0 l -16 0 l -16 128 l 48 128 q 147 169 109 128 q 185 289 185 211 l 185 371 l 299 371 l 299 289 q 337 172 299 216 q 438 128 376 128 l 503 128 l 503 0 m 353 487 l 125 487 l 125 551 l 175 551 q 148 579 159 559 q 138 619 138 598 q 169 695 138 663 q 255 728 201 728 q 308 723 291 728 q 333 717 326 719 l 333 648 l 328 648 q 296 658 319 652 q 257 664 274 664 q 212 651 227 664 q 198 619 198 639 q 229 570 198 589 q 302 551 260 551 l 353 551 l 353 487 "},"ن":{"x_min":62,"x_max":858,"ha":920,"o":"m 858 359 q 826 191 858 261 q 740 76 794 121 q 616 11 687 33 q 461 -10 546 -10 q 307 11 380 -10 q 180 76 234 32 q 93 192 125 122 q 62 359 62 262 q 70 494 62 428 q 81 570 79 561 l 204 570 l 204 558 q 185 470 195 532 q 175 358 175 409 q 259 183 175 249 q 458 118 343 118 q 659 182 574 118 q 745 358 745 247 q 734 470 745 409 q 716 558 724 532 l 716 570 l 839 570 q 849 494 840 561 q 858 359 858 428 m 511 663 l 411 663 l 411 763 l 511 763 l 511 663 "},"[":{"x_min":113,"x_max":466,"ha":532,"o":"m 466 -266 l 113 -266 l 113 1055 l 466 1055 l 466 958 l 232 958 l 232 -169 l 466 -169 l 466 -266 "},"ζ":{"x_min":40,"x_max":597,"ha":543,"o":"m 559 49 q 587 -5 577 26 q 597 -65 597 -37 q 567 -181 597 -123 q 498 -279 538 -238 l 377 -279 l 377 -269 q 459 -174 435 -216 q 483 -88 483 -132 q 464 -24 483 -49 q 413 1 445 1 l 328 1 q 110 79 181 1 q 40 313 40 158 q 68 495 40 410 q 147 663 97 581 q 255 807 193 739 q 387 941 317 876 l 387 948 l 98 948 l 98 1055 l 577 1055 l 577 963 q 429 839 504 912 q 299 689 355 767 q 207 514 243 609 q 172 322 172 419 q 173 276 172 298 q 182 223 175 253 q 205 171 190 196 q 246 130 220 146 q 312 113 269 114 q 382 112 355 112 l 429 112 q 508 94 475 112 q 559 49 540 76 "},"؛":{"x_min":165,"x_max":326,"ha":492,"o":"m 326 0 l 165 0 l 165 193 l 326 193 l 326 0 m 165 585 q 189 695 165 652 q 245 766 214 739 q 295 799 271 789 q 325 811 319 808 l 325 718 q 310 712 320 716 q 286 696 301 709 q 259 659 272 684 q 247 594 247 633 l 326 594 l 326 437 l 165 437 l 165 585 "},"ﭻ":{"x_min":54,"x_max":988,"ha":973,"o":"m 988 0 l 905 0 q 747 49 795 0 q 700 213 700 99 l 700 381 q 476 359 576 378 q 309 304 377 340 q 203 210 240 267 q 167 75 167 153 q 244 -97 167 -31 q 444 -163 322 -163 q 610 -141 536 -163 q 739 -85 684 -120 l 746 -85 l 746 -221 q 620 -269 686 -251 q 445 -288 554 -288 q 291 -263 362 -288 q 167 -193 220 -239 q 84 -78 114 -146 q 54 76 54 -10 q 92 227 54 156 q 213 355 130 298 q 368 425 281 401 q 540 455 455 450 q 379 509 457 494 q 190 524 300 524 l 139 524 l 139 649 l 198 649 q 448 605 308 649 q 710 486 588 561 l 825 486 l 825 381 l 787 381 l 787 275 q 790 214 787 237 q 808 168 794 190 q 842 138 821 149 q 902 128 864 128 l 988 128 l 988 0 m 760 486 l 760 486 m 846 0 l 846 0 m 396 90 l 296 90 l 296 190 l 396 190 l 396 90 m 596 90 l 496 90 l 496 190 l 596 190 l 596 90 m 496 -51 l 396 -51 l 396 49 l 496 49 l 496 -51 "},"Ρ":{"x_min":102,"x_max":740,"ha":766,"o":"m 740 705 q 716 580 740 639 q 651 480 693 521 q 528 402 599 428 q 350 376 458 376 l 236 376 l 236 0 l 102 0 l 102 1010 l 355 1010 q 508 995 445 1010 q 619 946 571 980 q 708 848 676 908 q 740 705 740 789 m 600 701 q 582 792 600 753 q 527 855 564 831 q 452 885 495 876 q 347 894 410 894 l 236 894 l 236 491 l 327 491 q 459 504 409 491 q 542 551 509 517 q 586 617 572 581 q 600 701 600 653 "},"ª":{"x_min":77,"x_max":592,"ha":685,"o":"m 592 385 l 479 385 l 479 446 q 444 420 466 436 q 401 395 422 404 q 347 375 374 382 q 273 368 320 368 q 133 424 189 368 q 77 570 77 481 q 106 684 77 640 q 189 755 135 729 q 317 789 240 779 q 479 804 394 799 l 479 816 q 467 873 479 851 q 435 907 456 895 q 386 922 415 918 q 326 926 357 926 q 218 910 273 926 q 138 885 164 894 l 128 885 l 128 1000 q 217 1020 157 1009 q 327 1031 276 1031 q 524 979 457 1031 q 592 810 592 927 l 592 385 m 479 544 l 479 710 q 377 701 435 707 q 284 686 318 696 q 218 648 243 674 q 194 576 194 622 q 223 499 194 525 q 312 473 253 473 q 404 495 363 473 q 479 544 445 517 "},"ї":{"x_min":-26,"x_max":343,"ha":317,"o":"m 223 0 l 95 0 l 95 758 l 223 758 l 223 0 m 343 885 l 215 885 l 215 1017 l 343 1017 l 343 885 m 102 885 l -26 885 l -26 1017 l 102 1017 l 102 885 "},"ﻅ":{"x_min":-14,"x_max":901,"ha":936,"o":"m 901 276 q 874 169 901 219 q 795 81 848 118 q 665 22 743 44 q 480 0 586 0 l -14 0 l -14 128 l 118 128 q 126 134 118 128 q 143 149 134 140 q 160 169 153 160 q 168 187 168 177 l 168 1055 l 281 1055 l 281 323 q 457 486 360 420 q 633 553 553 553 q 823 477 745 553 q 901 276 901 401 m 788 274 q 741 384 788 340 q 631 428 694 428 q 541 396 590 428 q 441 316 492 364 q 352 222 395 274 q 281 128 308 170 l 399 128 q 538 134 457 128 q 663 154 618 140 q 754 198 720 170 q 788 274 788 226 m 560 721 l 460 721 l 460 821 l 560 821 l 560 721 "},"š":{"x_min":46,"x_max":594,"ha":620,"o":"m 297 -18 q 155 2 221 -18 q 46 45 89 22 l 46 189 l 52 189 q 91 160 69 175 q 149 127 113 144 q 221 100 182 112 q 302 89 260 89 q 367 96 333 89 q 419 114 402 103 q 453 147 442 129 q 464 200 464 165 q 439 269 464 246 q 351 308 414 293 q 287 322 326 314 q 214 339 247 330 q 88 417 127 364 q 49 544 49 470 q 126 711 49 647 q 331 776 203 776 q 458 760 395 776 q 566 721 522 744 l 566 585 l 559 585 q 450 646 510 623 q 329 669 390 669 q 222 642 265 669 q 179 562 179 615 q 204 491 179 514 q 287 452 230 467 q 351 437 316 445 q 425 421 386 430 q 551 351 509 400 q 594 218 594 302 q 574 126 594 169 q 518 51 555 82 q 426 0 477 17 q 297 -18 374 -18 m 552 1137 l 397 880 l 243 880 l 89 1137 l 196 1137 l 322 963 l 446 1137 l 552 1137 "},"ﮊ":{"x_min":-74,"x_max":447,"ha":503,"o":"m 447 126 q 395 -71 447 13 q 242 -210 344 -155 q 73 -271 160 -254 q -74 -288 -12 -288 l -74 -160 q 43 -148 -30 -160 q 174 -109 117 -136 q 291 -19 252 -73 q 330 104 330 33 q 307 223 330 162 q 245 341 284 283 l 245 350 l 376 350 q 424 241 402 301 q 447 126 447 181 m 234 517 l 134 517 l 134 617 l 234 617 l 234 517 m 434 517 l 334 517 l 334 617 l 434 617 l 434 517 m 334 658 l 234 658 l 234 758 l 334 758 l 334 658 "},"1":{"x_min":153,"x_max":645,"ha":758,"o":"m 645 0 l 153 0 l 153 103 l 336 103 l 336 780 l 153 780 l 153 872 q 305 901 256 872 q 361 1013 354 930 l 466 1013 l 466 103 l 645 103 l 645 0 "},"בֿ":{"x_min":41,"x_max":860,"ha":888,"o":"m 735 133 l 860 133 l 860 0 l 41 0 l 41 133 l 618 133 l 618 470 q 604 586 618 534 q 557 673 590 638 q 462 728 522 709 q 309 747 402 747 q 201 742 282 747 q 67 729 120 738 l 61 729 l 61 862 q 182 875 111 870 q 318 880 253 880 q 635 786 536 880 q 735 474 735 692 l 735 133 m 250 971 l 250 1027 l 432 1027 l 432 971 l 250 971 "},"ℓ":{"x_min":10,"x_max":438,"ha":449,"o":"m 10 285 l 130 445 l 130 753 q 171 958 130 906 q 288 1010 213 1010 q 395 965 353 1010 q 438 848 438 921 q 397 696 438 785 q 245 450 356 606 l 245 169 q 254 94 245 109 q 282 80 264 80 q 323 91 300 80 q 418 152 346 102 l 418 42 q 342 -2 380 12 q 265 -17 303 -17 q 166 21 202 -17 q 130 146 130 60 l 130 298 l 76 233 l 10 285 m 245 608 q 327 766 311 723 q 343 847 343 810 q 338 884 343 867 q 325 912 334 900 q 310 924 318 920 q 291 929 301 929 q 273 924 281 929 q 260 911 264 920 q 249 859 253 897 q 245 762 245 822 l 245 608 "},"צ":{"x_min":47,"x_max":765,"ha":821,"o":"m 638 163 q 619 205 638 185 q 555 249 600 224 l 368 353 q 115 559 184 457 q 47 797 47 662 l 47 859 l 179 859 l 179 797 q 240 591 179 659 q 427 451 301 523 q 535 551 501 492 q 576 690 570 610 l 589 859 l 723 859 l 704 674 q 650 515 695 585 q 527 395 605 444 l 619 344 q 728 260 691 304 q 765 159 765 215 q 715 40 765 81 q 593 0 665 0 l 71 0 l 71 129 l 587 129 q 626 137 614 129 q 638 163 638 146 "},"غ":{"x_min":56,"x_max":742,"ha":842,"o":"m 742 -216 q 610 -268 690 -248 q 449 -288 531 -288 q 159 -198 263 -288 q 56 36 56 -109 q 92 179 56 117 q 194 283 129 241 q 134 346 167 298 q 102 449 102 393 q 177 642 102 568 q 373 716 253 716 q 466 708 423 716 q 518 699 510 700 l 518 571 l 511 571 q 454 583 493 575 q 379 591 414 591 q 256 550 299 591 q 214 446 214 510 q 238 375 214 409 q 287 328 262 341 l 611 444 l 611 326 l 324 224 q 207 147 246 197 q 169 37 169 98 q 243 -107 169 -52 q 447 -163 317 -163 q 602 -134 518 -163 q 734 -72 687 -106 l 742 -72 l 742 -216 m 423 839 l 323 839 l 323 939 l 423 939 l 423 839 "},"ī":{"x_min":-22,"x_max":340,"ha":317,"o":"m 223 0 l 95 0 l 95 758 l 223 758 l 223 0 m 340 906 l -22 906 l -22 1011 l 340 1011 l 340 906 "},"ە":{"x_min":62,"x_max":591,"ha":654,"o":"m 591 273 q 516 66 591 141 q 320 -8 442 -8 q 136 71 211 -8 q 62 272 62 151 q 101 410 62 352 q 239 528 141 469 l 285 556 l 193 659 l 350 659 l 512 476 q 569 386 548 436 q 591 273 591 336 m 428 156 q 465 203 451 176 q 479 273 479 229 q 441 367 479 312 q 364 468 404 423 l 349 484 l 304 456 q 211 378 247 421 q 175 273 175 335 q 218 166 175 213 q 320 120 262 120 q 378 129 347 120 q 428 156 408 138 "},"G":{"x_min":45,"x_max":861,"ha":927,"o":"m 525 -20 q 329 12 418 -20 q 176 111 240 45 q 78 277 112 178 q 45 505 45 376 q 79 724 45 627 q 177 889 113 821 q 329 992 239 956 q 526 1028 419 1028 q 624 1020 577 1028 q 713 1000 671 1013 q 789 972 747 990 q 857 941 831 954 l 857 779 l 845 779 q 793 821 820 801 q 717 864 766 841 q 624 898 677 884 q 510 912 571 912 q 274 802 364 912 q 185 509 185 692 q 208 332 185 408 q 277 203 232 256 q 381 123 320 150 q 519 96 442 96 q 632 104 576 96 q 727 128 688 112 l 727 390 l 495 390 l 495 508 l 861 508 l 861 66 q 792 37 835 55 q 711 9 749 20 q 622 -12 662 -5 q 525 -20 582 -20 "},"`":{"x_min":168,"x_max":454,"ha":758,"o":"m 454 883 l 353 883 l 168 1137 l 332 1137 l 454 883 "},"Ễ":{"x_min":102,"x_max":734,"ha":779,"o":"m 102 0 l 102 1010 l 734 1010 l 734 891 l 236 891 l 236 614 l 700 614 l 700 495 l 236 495 l 236 119 l 734 119 l 734 0 l 102 0 m 651 1099 l 536 1099 l 417 1159 l 299 1099 l 188 1099 l 356 1216 l 482 1216 l 651 1099 m 643 1389 q 597 1297 635 1333 q 505 1261 559 1261 q 455 1269 480 1261 q 411 1287 430 1278 q 372 1305 394 1296 q 337 1314 351 1314 q 304 1302 318 1314 q 287 1261 291 1291 l 196 1261 q 240 1351 202 1313 q 333 1389 278 1389 q 382 1381 360 1389 q 427 1362 405 1373 q 467 1343 450 1351 q 501 1336 483 1336 q 534 1348 519 1336 q 552 1389 548 1360 l 643 1389 "},"ﺎ":{"x_min":111,"x_max":427,"ha":411,"o":"m 427 0 l 368 0 q 176 85 242 0 q 111 307 111 170 l 111 1055 l 224 1055 l 224 315 q 230 246 224 278 q 253 187 236 214 q 295 143 270 159 q 365 128 321 128 l 427 128 l 427 0 m 335 0 l 335 0 "},"ằ":{"x_min":39,"x_max":642,"ha":729,"o":"m 514 186 l 514 397 q 399 385 468 392 q 287 365 330 378 q 204 318 237 350 q 171 228 171 285 q 207 130 171 163 q 314 97 243 97 q 422 122 374 97 q 514 186 471 148 m 514 80 q 472 48 498 69 q 421 15 446 27 q 356 -11 388 -2 q 268 -21 325 -21 q 179 -3 221 -21 q 105 46 137 14 q 57 123 75 77 q 39 219 39 169 q 72 354 39 298 q 177 441 105 409 q 327 482 240 471 q 514 499 413 493 l 514 523 q 500 595 514 567 q 462 637 486 622 q 403 657 438 652 q 330 663 368 663 q 227 649 286 663 q 108 612 167 636 l 101 612 l 101 741 q 202 763 136 751 q 332 776 267 776 q 463 763 410 776 q 559 719 517 751 q 621 638 601 688 q 642 518 642 589 l 642 0 l 514 0 l 514 80 m 585 1089 q 524 914 585 978 q 361 851 464 851 q 198 914 258 851 q 138 1089 138 978 l 248 1089 q 276 970 248 1004 q 361 937 305 937 q 446 970 417 937 q 475 1089 475 1004 l 585 1089 m 420 1031 l 332 1031 l 185 1211 l 336 1211 l 420 1031 "},"ŏ":{"x_min":39,"x_max":715,"ha":754,"o":"m 715 378 q 622 83 715 187 q 377 -21 530 -21 q 129 86 219 -21 q 39 378 39 194 q 132 673 39 568 q 377 779 225 779 q 622 674 530 779 q 715 378 715 569 m 583 378 q 529 597 583 525 q 377 669 476 669 q 224 597 278 669 q 171 378 171 525 q 224 162 171 236 q 377 89 278 89 q 529 161 475 89 q 583 378 583 233 m 601 1109 q 586 1003 601 1050 q 546 922 572 955 q 476 868 515 886 q 377 851 438 851 q 280 869 322 851 q 210 922 238 888 q 168 1004 182 956 q 154 1109 154 1051 l 264 1109 q 292 977 264 1017 q 377 937 320 937 q 461 976 431 937 q 491 1109 491 1016 l 601 1109 "},"ý":{"x_min":4,"x_max":688,"ha":692,"o":"m 688 758 l 280 -279 l 143 -279 l 279 37 l 4 758 l 141 758 l 348 196 l 554 758 l 688 758 m 549 1137 l 363 883 l 263 883 l 384 1137 l 549 1137 "},"º":{"x_min":58,"x_max":628,"ha":685,"o":"m 628 698 q 548 452 628 539 q 343 366 469 366 q 135 455 212 366 q 58 698 58 544 q 137 943 58 856 q 343 1031 216 1031 q 549 944 470 1031 q 628 698 628 858 m 506 698 q 462 872 506 815 q 343 929 418 929 q 224 873 268 929 q 180 698 180 817 q 223 525 180 583 q 343 468 266 468 q 462 525 418 468 q 506 698 506 583 "},"י":{"x_min":14,"x_max":282,"ha":380,"o":"m 282 414 l 165 414 l 165 664 q 146 725 165 704 q 86 747 127 747 q 54 745 74 747 q 14 740 33 743 l 14 873 q 61 877 31 875 q 111 880 90 880 q 238 825 194 880 q 282 676 282 771 l 282 414 "},"":{"x_min":-77,"x_max":773,"ha":863,"o":"m 470 859 q 598 842 547 859 q 688 794 649 826 q 752 707 731 758 q 773 606 773 655 q 732 405 773 496 q 620 239 691 314 q 457 101 548 164 q 261 -21 366 38 l 261 128 q 393 203 323 157 q 518 302 463 248 q 617 432 579 361 q 656 587 656 503 q 647 637 656 609 q 615 686 639 664 q 559 716 591 706 q 473 726 527 726 l 49 726 l 49 1135 l 166 1135 l 166 859 l 470 859 m 14 966 q 1 933 14 946 q -31 921 -11 921 q -64 933 -51 921 q -77 966 -77 946 q -64 999 -77 986 q -31 1012 -51 1012 q 1 999 -11 1012 q 14 966 14 986 "},"ń":{"x_min":92,"x_max":688,"ha":775,"o":"m 688 0 l 560 0 l 560 431 q 554 529 560 484 q 535 601 549 574 q 492 644 520 630 q 416 658 464 658 q 318 632 369 658 q 220 566 268 607 l 220 0 l 92 0 l 92 758 l 220 758 l 220 673 q 332 751 276 724 q 449 779 388 779 q 624 705 561 779 q 688 491 688 631 l 688 0 m 590 1137 l 404 883 l 304 883 l 425 1137 l 590 1137 "},"Ь":{"x_min":102,"x_max":783,"ha":809,"o":"m 783 312 q 754 179 783 239 q 677 82 726 120 q 555 19 620 38 q 387 0 490 0 l 102 0 l 102 1010 l 236 1010 l 236 614 l 391 614 q 559 602 494 614 q 682 545 624 590 q 758 446 734 505 q 783 312 783 387 m 643 310 q 626 399 643 361 q 573 462 609 438 q 487 492 536 487 q 349 498 438 498 l 236 498 l 236 115 l 346 115 q 485 123 436 115 q 570 157 533 132 q 625 219 608 184 q 643 310 643 255 "},"¤":{"x_min":44.46875,"x_max":717.203125,"ha":758,"o":"m 717 185 l 645 113 l 500 257 q 443 230 469 238 q 380 222 416 222 q 317 232 348 222 q 261 257 285 242 l 115 112 l 44 186 l 188 330 q 162 389 171 357 q 153 449 153 420 q 162 508 153 478 q 188 566 171 539 l 44 713 l 117 785 l 262 640 q 318 666 287 657 q 380 676 349 676 q 446 665 415 676 q 499 641 477 654 l 643 785 l 717 714 l 572 567 q 599 511 590 538 q 608 449 608 484 q 598 387 608 418 q 572 330 588 355 l 717 185 m 510 449 q 471 542 510 503 q 380 582 433 582 q 288 543 327 582 q 250 449 250 504 q 288 355 250 394 q 380 316 326 316 q 471 354 432 316 q 510 449 510 393 "},"p":{"x_min":92,"x_max":728,"ha":768,"o":"m 728 398 q 637 97 728 209 q 408 -15 546 -15 q 308 -2 352 -15 q 220 37 265 10 l 220 -279 l 92 -279 l 92 758 l 220 758 l 220 678 q 325 750 267 721 q 451 779 383 779 q 655 675 582 779 q 728 398 728 572 m 596 385 q 554 586 596 514 q 420 658 513 658 q 315 633 366 658 q 220 571 265 609 l 220 142 q 305 108 270 117 q 387 100 341 100 q 541 172 486 100 q 596 385 596 245 "},"ﭙ":{"x_min":-16,"x_max":503,"ha":488,"o":"m 503 0 l 408 0 q 315 22 366 0 q 242 83 264 45 q 171 21 218 43 q 78 0 123 0 l -16 0 l -16 128 l 48 128 q 147 169 109 128 q 185 289 185 211 l 185 371 l 299 371 l 299 289 q 337 172 299 216 q 438 128 376 128 l 503 128 l 503 0 m 161 -145 l 61 -145 l 61 -45 l 161 -45 l 161 -145 m 361 -145 l 261 -145 l 261 -45 l 361 -45 l 361 -145 m 261 -286 l 161 -286 l 161 -186 l 261 -186 l 261 -286 "},"תּ":{"x_min":20,"x_max":887,"ha":985,"o":"m 61 860 q 234 874 122 869 q 452 880 346 880 q 662 855 578 880 q 795 781 746 831 q 866 655 845 732 q 887 474 887 579 l 887 0 l 770 0 l 770 470 q 753 596 770 543 q 699 682 737 648 q 600 731 661 715 q 450 747 539 747 q 375 745 411 747 q 295 742 339 744 l 295 203 q 285 118 295 159 q 256 49 276 77 q 202 2 234 18 q 117 -14 171 -14 q 68 -12 97 -14 q 20 -7 38 -10 l 20 126 q 60 120 38 122 q 91 119 81 119 q 159 138 140 119 q 178 207 178 157 l 178 735 q 110 730 140 733 q 67 726 80 727 l 61 726 l 61 860 m 565 444 q 552 411 565 424 q 519 399 539 399 q 486 411 499 399 q 474 444 474 424 q 486 477 474 464 q 519 490 499 490 q 552 477 539 490 q 565 444 565 464 "},"ο":{"x_min":39,"x_max":715,"ha":754,"o":"m 715 378 q 622 83 715 187 q 377 -21 530 -21 q 129 86 219 -21 q 39 378 39 194 q 132 673 39 568 q 377 779 225 779 q 622 674 530 779 q 715 378 715 569 m 583 378 q 529 597 583 525 q 377 669 476 669 q 224 597 278 669 q 171 378 171 525 q 224 162 171 236 q 377 89 278 89 q 529 161 475 89 q 583 378 583 233 "},"ׁ":{"x_min":317,"x_max":408,"ha":724,"o":"m 408 966 q 395 933 408 946 q 362 921 382 921 q 329 933 342 921 q 317 966 317 946 q 329 999 317 986 q 362 1012 342 1012 q 395 999 382 1012 q 408 966 408 986 "},"ђ":{"x_min":8,"x_max":718,"ha":803,"o":"m 718 336 q 717 259 718 297 q 715 182 716 221 q 687 -24 714 62 q 614 -165 661 -110 q 509 -247 567 -222 q 381 -273 451 -273 q 358 -273 367 -273 q 324 -271 349 -273 l 324 -164 l 331 -164 q 348 -164 338 -164 q 363 -164 358 -164 q 535 -78 488 -164 q 588 230 581 7 q 589 279 589 253 q 590 335 590 304 q 589 377 590 352 q 588 432 589 402 q 582 529 587 487 q 562 601 577 571 q 519 643 546 629 q 445 658 492 658 q 347 632 397 658 q 249 566 297 606 l 249 0 l 121 0 l 121 861 l 8 861 l 8 951 l 121 951 l 121 1055 l 249 1055 l 249 951 l 500 951 l 500 861 l 249 861 l 249 673 q 359 750 301 722 q 478 779 416 779 q 574 761 531 779 q 647 711 617 744 q 696 620 678 677 q 715 492 715 564 q 716 423 715 460 q 718 336 718 387 "},"y":{"x_min":4,"x_max":688,"ha":692,"o":"m 688 758 l 280 -279 l 143 -279 l 279 37 l 4 758 l 141 758 l 348 196 l 554 758 l 688 758 "},"":{"x_min":-278,"x_max":18,"ha":0,"o":"m 18 1394 q -5 1306 13 1344 q -73 1257 -30 1257 q -135 1285 -99 1257 q -184 1313 -171 1313 q -218 1257 -213 1313 l -278 1257 q -254 1344 -273 1305 q -186 1394 -228 1394 q -124 1366 -161 1394 q -76 1338 -88 1338 q -42 1394 -46 1338 l 18 1394 "},"‗":{"x_min":-11,"x_max":769,"ha":758,"o":"m 769 -143 l -11 -143 l -11 -56 l 769 -56 l 769 -143 m 769 -286 l -11 -286 l -11 -199 l 769 -199 l 769 -286 "},"ﱢ":{"x_min":0,"x_max":416,"ha":416,"o":"m 294 1226 q 382 1262 348 1226 q 416 1365 416 1298 q 414 1413 416 1399 q 412 1435 412 1428 l 348 1435 l 348 1430 q 350 1405 348 1422 q 352 1366 352 1389 q 336 1308 352 1327 q 293 1290 321 1290 q 255 1309 270 1290 q 240 1367 240 1328 l 240 1409 l 176 1409 l 176 1361 q 158 1283 176 1309 q 112 1258 141 1258 q 76 1271 88 1258 q 64 1309 64 1285 q 65 1345 64 1326 q 68 1372 67 1364 l 68 1377 l 3 1377 q 1 1347 2 1368 q 0 1308 0 1326 q 30 1223 0 1253 q 112 1194 60 1194 q 179 1217 152 1194 q 213 1266 207 1240 q 244 1237 222 1249 q 294 1226 266 1226 m 408 1135 l 20 1069 l 20 1137 l 408 1202 l 408 1135 "},"ë":{"x_min":40,"x_max":694,"ha":731,"o":"m 421 -17 q 140 85 240 -17 q 40 374 40 187 q 136 669 40 560 q 390 779 233 779 q 515 758 460 779 q 609 694 569 738 q 672 588 650 651 q 694 435 694 526 l 694 366 l 170 366 q 236 163 170 233 q 419 94 302 94 q 502 103 461 94 q 575 128 542 113 q 633 158 609 143 q 672 186 656 173 l 680 186 l 680 46 q 624 24 657 37 q 564 4 591 11 q 497 -11 527 -6 q 421 -17 467 -17 m 570 464 q 557 552 568 515 q 526 615 546 590 q 469 659 504 644 q 383 674 434 674 q 296 658 332 674 q 232 614 261 643 q 188 548 203 584 q 170 464 174 512 l 570 464 m 596 884 l 460 884 l 460 1016 l 596 1016 l 596 884 m 316 884 l 180 884 l 180 1016 l 316 1016 l 316 884 "},"б":{"x_min":45,"x_max":723,"ha":764,"o":"m 630 646 q 698 532 674 601 q 723 372 723 463 q 695 210 723 285 q 619 85 667 136 q 511 5 570 32 q 381 -21 451 -21 q 251 3 310 -21 q 149 80 191 28 q 71 241 97 144 q 45 481 45 338 q 49 585 45 532 q 68 711 53 637 q 105 832 82 776 q 165 926 128 888 q 292 1007 214 977 q 498 1048 369 1036 q 595 1056 543 1052 q 675 1062 647 1059 l 675 944 q 599 938 639 941 q 508 931 559 935 q 364 907 439 926 q 252 850 290 889 q 206 766 223 820 q 183 646 189 712 q 290 707 233 682 q 414 732 347 732 q 531 711 476 732 q 630 646 587 690 m 593 365 q 538 550 593 486 q 384 615 484 615 q 277 596 329 615 q 181 548 226 578 q 178 507 179 531 q 177 465 177 484 q 195 273 177 347 q 248 157 214 199 q 313 104 279 119 q 387 90 347 90 q 538 163 484 90 q 593 365 593 237 "},"":{"x_min":-772,"x_max":-230,"ha":0,"o":"m -230 1359 q -280 1200 -236 1253 q -396 1148 -324 1148 q -462 1160 -432 1148 q -520 1200 -491 1173 q -571 1243 -550 1228 q -614 1258 -593 1257 q -661 1227 -647 1258 q -677 1145 -674 1196 l -772 1145 q -720 1302 -767 1249 q -605 1356 -673 1356 q -542 1342 -571 1356 q -483 1303 -512 1329 q -431 1263 -454 1277 q -388 1250 -407 1250 q -341 1280 -356 1250 q -325 1359 -327 1310 l -230 1359 "},"ﻓ":{"x_min":-16,"x_max":508,"ha":570,"o":"m 430 654 q 486 524 465 602 q 508 345 508 446 q 471 193 508 259 q 377 85 434 126 q 251 21 320 42 q 117 0 183 0 l -16 0 l -16 128 l 118 128 q 213 140 164 128 q 300 176 262 152 q 367 237 344 202 q 391 316 391 273 q 342 297 373 306 q 285 289 311 289 q 178 305 225 289 q 99 354 132 322 q 53 423 68 385 q 38 503 38 461 q 104 679 38 600 q 253 758 171 758 q 349 731 303 758 q 430 654 395 705 m 382 443 q 374 493 382 462 q 349 557 365 524 q 309 610 331 590 q 261 630 287 630 q 186 593 218 630 q 155 508 155 557 q 192 442 155 468 q 290 417 229 417 q 339 424 315 417 q 382 443 363 431 m 263 869 l 163 869 l 163 969 l 263 969 l 263 869 "},"ц":{"x_min":92,"x_max":761,"ha":794,"o":"m 761 -182 l 642 -182 l 642 0 l 92 0 l 92 758 l 220 758 l 220 110 l 558 110 l 558 758 l 686 758 l 686 110 l 761 110 l 761 -182 "},"ﺾ":{"x_min":62,"x_max":1618,"ha":1617,"o":"m 1618 0 l 1537 0 q 1466 13 1505 0 q 1395 54 1426 26 q 1296 15 1362 30 q 1183 0 1231 0 l 749 0 q 635 -209 730 -131 q 389 -288 540 -288 q 149 -200 236 -288 q 62 38 62 -113 q 70 193 62 135 q 81 264 78 251 l 204 264 l 204 253 q 185 157 196 222 q 175 37 175 93 q 233 -111 175 -62 q 388 -160 292 -160 q 492 -146 445 -160 q 571 -98 539 -132 q 624 -3 607 -61 q 641 135 641 54 q 638 219 641 186 q 633 264 635 251 l 754 264 l 754 255 q 766 183 754 217 q 796 135 778 149 q 1034 432 900 312 q 1275 553 1169 553 q 1465 475 1389 553 q 1542 276 1542 398 q 1531 207 1542 242 q 1500 144 1520 171 q 1532 131 1518 135 q 1568 128 1547 128 l 1618 128 l 1618 0 m 1305 154 q 1402 205 1376 176 q 1429 274 1429 235 q 1385 382 1429 336 q 1273 428 1342 428 q 1183 396 1231 428 q 1082 316 1134 364 q 993 222 1036 274 q 922 128 949 170 l 1040 128 q 1179 134 1099 128 q 1305 154 1260 140 m 1604 0 l 1604 0 m 1316 695 l 1216 695 l 1216 795 l 1316 795 l 1316 695 "},"w":{"x_min":20,"x_max":1011,"ha":1031,"o":"m 1011 758 l 818 0 l 700 0 l 515 584 l 331 0 l 214 0 l 20 758 l 153 758 l 286 171 l 466 758 l 571 758 l 756 171 l 883 758 l 1011 758 "},"о":{"x_min":39,"x_max":715,"ha":754,"o":"m 715 378 q 622 83 715 187 q 377 -21 530 -21 q 129 86 219 -21 q 39 378 39 194 q 132 673 39 568 q 377 779 225 779 q 622 674 530 779 q 715 378 715 569 m 583 378 q 529 597 583 525 q 377 669 476 669 q 224 597 278 669 q 171 378 171 525 q 224 162 171 236 q 377 89 278 89 q 529 161 475 89 q 583 378 583 233 "},"Д":{"x_min":12,"x_max":923,"ha":950,"o":"m 923 -229 l 795 -229 l 795 3 l 140 3 l 140 -229 l 12 -229 l 12 119 l 67 119 q 209 498 155 263 q 263 1010 263 732 l 827 1010 l 827 119 l 923 119 l 923 -229 m 693 119 l 693 894 l 388 894 q 327 449 378 648 q 197 119 276 249 l 693 119 "},"אּ":{"x_min":92,"x_max":847,"ha":935,"o":"m 244 859 l 523 461 q 672 577 629 507 q 716 764 716 646 l 716 859 l 833 859 l 833 764 q 770 522 833 618 q 584 373 708 426 l 847 0 l 694 0 l 358 479 q 255 370 291 437 q 219 194 219 303 l 219 0 l 102 0 l 102 194 q 148 409 102 317 q 295 569 195 500 l 92 859 l 244 859 m 393 133 q 360 145 373 133 q 348 178 348 158 q 360 211 348 198 q 393 224 373 224 q 426 211 413 224 q 439 178 439 198 q 426 145 439 158 q 393 133 413 133 "},"ﺷ":{"x_min":-16,"x_max":1286,"ha":1361,"o":"m 1286 302 q 1218 75 1286 155 q 1029 -4 1151 -4 q 926 14 977 -4 q 851 63 876 32 q 772 13 813 31 q 659 -4 731 -4 q 519 23 577 -4 q 429 96 460 50 q 342 26 389 53 q 228 0 294 0 l -16 0 l -16 128 l 264 128 q 333 142 310 128 q 366 179 357 156 q 375 228 375 202 q 376 296 376 255 l 376 369 l 489 369 q 528 182 489 240 q 660 124 568 124 q 772 167 734 124 q 810 290 810 211 l 810 369 l 923 369 l 923 267 q 953 161 923 199 q 1031 124 983 124 q 1139 167 1104 124 q 1174 311 1174 211 l 1174 486 l 1286 486 l 1286 302 m 817 570 l 717 570 l 717 670 l 817 670 l 817 570 m 1017 570 l 917 570 l 917 670 l 1017 670 l 1017 570 m 917 711 l 817 711 l 817 811 l 917 811 l 917 711 "},"۷":{"x_min":31,"x_max":765,"ha":794,"o":"m 765 933 l 454 0 l 342 0 l 31 933 l 143 933 l 397 183 l 652 933 l 765 933 "},"Ĵ":{"x_min":6,"x_max":549,"ha":579,"o":"m 483 262 q 401 57 483 129 q 184 -14 320 -14 q 97 -8 151 -14 q 6 5 42 -2 l 6 135 l 13 135 q 82 113 41 125 q 166 102 123 102 q 265 116 228 102 q 320 156 302 130 q 343 223 338 184 q 349 314 349 262 l 349 903 l 135 903 l 135 1010 l 483 1010 l 483 262 m 549 1133 l 441 1133 l 315 1306 l 191 1133 l 86 1133 l 240 1390 l 394 1390 l 549 1133 "},"Ẻ":{"x_min":102,"x_max":734,"ha":779,"o":"m 102 0 l 102 1010 l 734 1010 l 734 891 l 236 891 l 236 614 l 700 614 l 700 495 l 236 495 l 236 119 l 734 119 l 734 0 l 102 0 m 524 1289 q 501 1219 524 1246 q 435 1179 479 1193 l 435 1133 l 360 1133 l 360 1215 q 407 1236 391 1223 q 424 1276 424 1249 q 411 1305 424 1292 q 376 1319 398 1319 q 342 1315 355 1319 q 314 1306 330 1312 l 312 1306 l 312 1377 q 349 1385 324 1381 q 400 1390 374 1390 q 489 1360 454 1390 q 524 1289 524 1331 "},"ô":{"x_min":39,"x_max":715,"ha":754,"o":"m 715 378 q 622 83 715 187 q 377 -21 530 -21 q 129 86 219 -21 q 39 378 39 194 q 132 673 39 568 q 377 779 225 779 q 622 674 530 779 q 715 378 715 569 m 583 378 q 529 597 583 525 q 377 669 476 669 q 224 597 278 669 q 171 378 171 525 q 224 162 171 236 q 377 89 278 89 q 529 161 475 89 q 583 378 583 233 m 610 880 l 502 880 l 376 1053 l 252 880 l 147 880 l 301 1137 l 455 1137 l 610 880 "},"٦":{"x_min":62,"x_max":733,"ha":794,"o":"m 733 0 l 616 0 l 553 267 q 526 422 534 350 q 519 586 519 494 l 519 744 q 460 726 498 734 q 373 719 422 719 q 202 738 293 719 q 62 788 111 757 l 62 933 l 68 933 q 197 872 113 901 q 374 844 281 844 q 514 868 446 844 q 632 936 582 893 l 632 587 q 640 422 632 494 q 666 279 648 351 l 733 0 "},"г":{"x_min":92,"x_max":573,"ha":576,"o":"m 573 647 l 220 647 l 220 0 l 92 0 l 92 758 l 573 758 l 573 647 "},"ấ":{"x_min":39,"x_max":801,"ha":729,"o":"m 514 186 l 514 397 q 399 385 468 392 q 287 365 330 378 q 204 318 237 350 q 171 228 171 285 q 207 130 171 163 q 314 97 243 97 q 422 122 374 97 q 514 186 471 148 m 514 80 q 472 48 498 69 q 421 15 446 27 q 356 -11 388 -2 q 268 -21 325 -21 q 179 -3 221 -21 q 105 46 137 14 q 57 123 75 77 q 39 219 39 169 q 72 354 39 298 q 177 441 105 409 q 327 482 240 471 q 514 499 413 493 l 514 523 q 500 595 514 567 q 462 637 486 622 q 403 657 438 652 q 330 663 368 663 q 227 649 286 663 q 108 612 167 636 l 101 612 l 101 741 q 202 763 136 751 q 332 776 267 776 q 463 763 410 776 q 559 719 517 751 q 621 638 601 688 q 642 518 642 589 l 642 0 l 514 0 l 514 80 m 593 880 l 485 880 l 359 1053 l 235 880 l 130 880 l 284 1137 l 438 1137 l 593 880 m 801 1137 l 653 957 l 566 957 l 649 1137 l 801 1137 "},"Ŀ":{"x_min":102,"x_max":688,"ha":691,"o":"m 688 0 l 102 0 l 102 1010 l 236 1010 l 236 119 l 688 119 l 688 0 m 594 352 l 436 352 l 436 533 l 594 533 l 594 352 "},"ﺀ":{"x_min":72,"x_max":472,"ha":530,"o":"m 472 117 l 103 3 l 103 130 l 207 162 q 112 219 153 173 q 72 323 72 266 q 132 471 72 418 q 279 524 193 524 q 371 519 336 524 q 421 511 406 514 l 421 385 l 412 385 q 354 395 395 389 q 285 401 313 401 q 213 379 241 401 q 185 324 185 358 q 229 249 185 281 q 352 207 274 217 l 472 244 l 472 117 "},"ئ":{"x_min":62,"x_max":1152,"ha":1211,"o":"m 1152 574 l 1145 574 q 1034 625 1097 603 q 893 648 970 648 q 780 620 830 648 q 730 550 730 593 q 802 485 730 514 q 931 436 874 457 q 1004 405 965 423 q 1069 366 1043 386 q 1115 319 1098 345 q 1132 258 1132 294 q 967 65 1132 131 q 479 0 803 0 q 162 72 262 0 q 62 299 62 144 q 68 405 62 352 q 76 471 74 458 l 193 471 l 193 464 q 183 396 191 454 q 175 301 175 339 q 244 167 175 206 q 480 128 313 128 q 885 162 752 128 q 1019 257 1019 196 q 946 316 1019 288 q 818 364 874 343 q 744 397 781 379 q 679 437 707 415 q 634 487 651 459 q 617 551 617 515 q 695 706 617 640 q 895 773 774 773 q 1041 756 977 773 q 1152 718 1105 740 l 1152 574 m 471 589 l 243 589 l 243 653 l 293 653 q 266 681 277 661 q 256 721 256 700 q 287 797 256 765 q 373 830 319 830 q 426 825 409 830 q 451 819 444 821 l 451 750 l 446 750 q 414 760 437 754 q 375 766 392 766 q 330 753 345 766 q 316 721 316 741 q 347 672 316 691 q 420 653 378 653 l 471 653 l 471 589 "},"":{"x_min":-492,"x_max":-343,"ha":0,"o":"m -343 1319 q -358 1271 -343 1290 q -406 1241 -374 1252 l -406 1210 l -458 1210 l -458 1267 q -423 1283 -434 1273 q -413 1309 -413 1293 q -422 1332 -413 1325 q -446 1340 -432 1340 q -472 1337 -463 1340 q -490 1331 -481 1334 l -492 1331 l -492 1381 q -465 1387 -482 1384 q -430 1390 -448 1390 q -368 1370 -393 1390 q -343 1319 -343 1351 "},"ь":{"x_min":92,"x_max":666,"ha":695,"o":"m 666 234 q 643 135 666 179 q 583 62 621 90 q 488 14 539 28 q 357 0 437 0 l 92 0 l 92 758 l 220 758 l 220 463 l 360 463 q 493 454 446 463 q 587 410 540 445 q 646 336 626 381 q 666 234 666 290 m 534 233 q 522 293 534 267 q 483 336 510 319 q 418 356 454 353 q 314 360 382 360 l 220 360 l 220 102 l 312 102 q 416 107 379 102 q 481 129 454 113 q 521 171 508 147 q 534 233 534 195 "},"€":{"x_min":-19,"x_max":727,"ha":758,"o":"m 641 449 l 622 355 l 202 355 q 301 173 232 240 q 498 98 380 98 q 717 160 624 98 l 727 160 l 727 29 q 497 -18 611 -18 q 196 88 311 -18 q 58 355 91 185 l -19 355 l 0 449 l 47 449 q 45 504 45 476 q 45 543 45 523 l -19 543 l 0 637 l 56 637 q 196 917 87 814 q 499 1028 314 1028 q 727 979 619 1028 l 727 848 l 716 848 q 498 913 620 913 q 293 830 373 913 q 198 637 224 758 l 679 637 l 660 543 l 186 543 q 185 504 185 523 q 187 449 185 476 l 641 449 "},"ז":{"x_min":40,"x_max":419,"ha":433,"o":"m 314 616 q 249 586 270 616 q 229 513 229 556 l 229 0 l 112 0 l 112 516 q 122 582 112 553 q 151 633 133 612 q 186 663 166 652 q 222 675 206 673 l 40 756 l 40 900 l 419 732 l 419 588 q 359 610 380 605 q 314 616 337 616 "},"ﮑ":{"x_min":-16,"x_max":754,"ha":739,"o":"m 754 0 l 659 0 q 555 19 606 0 q 470 73 504 38 q 384 17 435 35 q 264 0 333 0 l -16 0 l -16 128 l 263 128 q 377 155 339 128 q 415 232 415 182 q 378 303 415 261 q 263 410 341 346 l 77 562 q 23 616 46 589 q 0 676 0 644 q 41 761 0 726 q 149 828 83 797 l 585 1038 l 585 905 l 205 722 q 156 696 184 712 q 129 670 129 681 q 154 637 129 659 q 212 588 179 615 l 393 440 q 498 331 469 377 q 528 233 528 285 l 528 224 q 564 154 528 180 q 657 128 600 128 l 754 128 l 754 0 m 667 0 l 667 0 "},"":{"x_min":-502,"x_max":-267,"ha":0,"o":"m -267 1131 l -354 1131 l -502 1311 l -351 1311 l -267 1131 "},"С":{"x_min":45,"x_max":811,"ha":834,"o":"m 497 -18 q 315 15 398 -18 q 171 114 232 48 q 78 278 111 179 q 45 503 45 376 q 77 724 45 630 q 171 889 109 819 q 314 992 231 956 q 499 1028 396 1028 q 594 1020 550 1028 q 676 1001 638 1013 q 743 976 709 991 q 811 942 777 960 l 811 780 l 800 780 q 754 819 782 796 q 687 864 726 842 q 603 899 648 885 q 498 913 557 913 q 376 886 433 913 q 275 808 318 860 q 208 679 232 757 q 185 503 185 601 q 210 325 185 400 q 278 198 235 250 q 377 123 320 148 q 498 98 434 98 q 605 112 556 98 q 693 148 655 126 q 758 191 731 169 q 800 229 785 213 l 811 229 l 811 68 q 748 39 777 53 q 676 11 718 24 q 595 -10 632 -3 q 497 -18 557 -18 "},"ß":{"x_min":92,"x_max":725,"ha":762,"o":"m 725 325 q 633 80 725 177 q 394 -17 541 -17 q 352 -14 377 -17 q 312 -10 326 -12 l 312 102 l 318 102 q 358 93 337 96 q 400 90 380 90 q 489 108 452 90 q 549 159 527 127 q 583 234 573 193 q 593 330 593 275 q 522 499 593 445 q 316 553 452 553 l 316 660 q 475 699 419 660 q 531 828 531 738 q 524 875 531 851 q 501 918 517 899 q 458 950 484 938 q 392 962 433 962 q 327 952 356 962 q 272 915 298 942 q 233 845 247 890 q 220 736 220 800 l 220 0 l 92 0 l 92 732 q 115 880 92 820 q 179 981 138 939 q 276 1042 220 1022 q 395 1062 332 1062 q 585 1004 509 1062 q 661 841 661 946 q 612 704 661 765 q 487 622 564 644 l 487 616 q 661 516 598 591 q 725 325 725 442 "},"ﺠ":{"x_min":-16,"x_max":960,"ha":945,"o":"m 538 146 q 258 40 388 81 q 56 0 128 0 l -16 0 l -16 128 l 59 128 q 324 185 154 128 q 616 306 494 243 q 428 387 557 347 q 164 428 300 428 l 85 428 l 85 553 l 171 553 q 445 505 296 553 q 733 370 593 457 l 869 440 l 869 312 q 764 254 822 284 q 643 194 706 223 q 688 146 658 164 q 772 128 718 128 l 960 128 l 960 0 l 774 0 q 618 35 680 0 q 538 146 557 71 m 916 0 l 916 0 m 501 -199 l 401 -199 l 401 -99 l 501 -99 l 501 -199 "},"ẳ":{"x_min":39,"x_max":642,"ha":729,"o":"m 514 186 l 514 397 q 399 385 468 392 q 287 365 330 378 q 204 318 237 350 q 171 228 171 285 q 207 130 171 163 q 314 97 243 97 q 422 122 374 97 q 514 186 471 148 m 514 80 q 472 48 498 69 q 421 15 446 27 q 356 -11 388 -2 q 268 -21 325 -21 q 179 -3 221 -21 q 105 46 137 14 q 57 123 75 77 q 39 219 39 169 q 72 354 39 298 q 177 441 105 409 q 327 482 240 471 q 514 499 413 493 l 514 523 q 500 595 514 567 q 462 637 486 622 q 403 657 438 652 q 330 663 368 663 q 227 649 286 663 q 108 612 167 636 l 101 612 l 101 741 q 202 763 136 751 q 332 776 267 776 q 463 763 410 776 q 559 719 517 751 q 621 638 601 688 q 642 518 642 589 l 642 0 l 514 0 l 514 80 m 585 1089 q 524 914 585 978 q 361 851 464 851 q 198 914 258 851 q 138 1089 138 978 l 248 1089 q 276 970 248 1004 q 361 937 305 937 q 446 970 417 937 q 475 1089 475 1004 l 585 1089 m 463 1151 q 444 1092 463 1115 q 388 1058 425 1070 l 388 1020 l 326 1020 l 326 1089 q 366 1106 352 1095 q 380 1139 380 1118 q 368 1166 380 1156 q 339 1176 356 1176 q 310 1173 320 1176 q 286 1165 300 1170 l 285 1165 l 285 1225 q 316 1232 295 1229 q 359 1236 336 1236 q 433 1212 403 1236 q 463 1151 463 1189 "},"Ű":{"x_min":90,"x_max":821,"ha":911,"o":"m 455 -21 q 299 2 366 -21 q 186 71 233 25 q 111 198 133 124 q 90 379 90 272 l 90 1010 l 224 1010 l 224 380 q 232 262 224 310 q 267 176 241 214 q 341 115 294 136 q 455 94 387 94 q 567 115 518 94 q 643 176 616 136 q 677 262 668 215 q 687 376 687 308 l 687 1010 l 821 1010 l 821 379 q 799 199 821 274 q 724 71 778 124 q 612 2 676 25 q 455 -21 548 -21 m 790 1390 l 615 1136 l 521 1136 l 635 1390 l 790 1390 m 516 1390 l 341 1136 l 247 1136 l 361 1390 l 516 1390 "},"¶":{"x_min":39,"x_max":666,"ha":758,"o":"m 666 -246 l 571 -246 l 571 923 l 444 923 l 444 -246 l 349 -246 l 349 402 q 124 489 209 405 q 39 712 39 573 q 127 931 39 852 q 379 1010 215 1010 l 666 1010 l 666 -246 "},"Ή":{"x_min":0,"x_max":999,"ha":1101,"o":"m 999 0 l 865 0 l 865 495 l 399 495 l 399 0 l 265 0 l 265 1010 l 399 1010 l 399 614 l 865 614 l 865 1010 l 999 1010 l 999 0 m 165 1010 l 131 750 l 33 750 l 0 1010 l 165 1010 "},"ﻔ":{"x_min":-16,"x_max":716,"ha":700,"o":"m 716 0 l 589 0 q 461 18 524 0 q 347 61 398 36 q 235 17 290 34 q 104 0 180 0 l -16 0 l -16 128 l 106 128 q 193 135 159 128 q 234 144 226 143 q 213 157 229 147 q 177 189 198 167 q 137 245 155 212 q 120 322 120 279 q 182 496 120 426 q 343 566 244 566 q 503 496 437 566 q 569 323 569 427 q 552 245 569 281 q 513 188 535 210 q 478 156 492 165 q 458 143 464 146 q 510 133 471 138 q 586 128 549 128 l 716 128 l 716 0 m 400 232 q 440 271 424 251 q 456 322 456 291 q 424 400 456 365 q 343 436 393 436 q 264 401 296 436 q 233 322 233 367 q 251 273 233 296 q 289 233 269 249 q 326 206 311 214 q 345 195 340 197 q 366 206 351 198 q 400 232 381 215 m 399 695 l 299 695 l 299 795 l 399 795 l 399 695 "},"Ụ":{"x_min":90,"x_max":821,"ha":911,"o":"m 455 -21 q 299 2 366 -21 q 186 71 233 25 q 111 198 133 124 q 90 379 90 272 l 90 1010 l 224 1010 l 224 380 q 232 262 224 310 q 267 176 241 214 q 341 115 294 136 q 455 94 387 94 q 567 115 518 94 q 643 176 616 136 q 677 262 668 215 q 687 376 687 308 l 687 1010 l 821 1010 l 821 379 q 799 199 821 274 q 724 71 778 124 q 612 2 676 25 q 455 -21 548 -21 m 524 -259 l 379 -259 l 379 -127 l 524 -127 l 524 -259 "},"ﺃ":{"x_min":54,"x_max":282,"ha":335,"o":"m 224 0 l 111 0 l 111 1055 l 224 1055 l 224 0 m 282 1139 l 54 1139 l 54 1203 l 104 1203 q 77 1231 88 1211 q 67 1271 67 1250 q 98 1347 67 1315 q 184 1380 130 1380 q 237 1375 220 1380 q 262 1369 255 1371 l 262 1300 l 257 1300 q 225 1310 248 1304 q 186 1316 203 1316 q 141 1303 156 1316 q 127 1271 127 1291 q 158 1222 127 1241 q 231 1203 189 1203 l 282 1203 l 282 1139 "},"­":{"x_min":61,"x_max":444,"ha":505,"o":"m 444 380 l 61 380 l 61 503 l 444 503 l 444 380 "},"خ":{"x_min":54,"x_max":760,"ha":846,"o":"m 760 381 l 739 381 q 499 364 601 381 q 319 309 397 347 q 207 214 247 274 q 167 75 167 155 q 244 -97 167 -31 q 444 -163 322 -163 q 610 -141 536 -163 q 739 -85 684 -120 l 746 -85 l 746 -221 q 620 -269 686 -251 q 445 -288 554 -288 q 163 -188 272 -288 q 54 76 54 -89 q 92 227 54 154 q 213 355 130 299 q 368 425 281 401 q 540 455 455 450 q 379 509 457 494 q 190 524 300 524 l 139 524 l 139 649 l 198 649 q 448 605 308 649 q 710 486 588 561 l 760 486 l 760 381 m 622 732 l 522 732 l 522 832 l 622 832 l 622 732 "},":":{"x_min":165,"x_max":327,"ha":491,"o":"m 327 565 l 165 565 l 165 758 l 327 758 l 327 565 m 327 0 l 165 0 l 165 193 l 327 193 l 327 0 "},"У":{"x_min":-1,"x_max":808,"ha":799,"o":"m 808 1010 l 441 159 q 389 73 418 106 q 329 24 360 41 q 268 2 298 7 q 207 -3 238 -3 q 143 -1 180 -3 q 97 0 107 0 l 97 126 l 106 126 q 137 122 116 124 q 189 121 158 121 q 225 122 204 121 q 262 132 245 124 q 299 157 282 142 q 330 208 316 173 l 353 262 l -1 1010 l 147 1010 l 421 415 l 669 1010 l 808 1010 "},"Ί":{"x_min":0,"x_max":611,"ha":674,"o":"m 611 0 l 219 0 l 219 103 l 348 103 l 348 907 l 219 907 l 219 1010 l 611 1010 l 611 907 l 482 907 l 482 103 l 611 103 l 611 0 m 165 1010 l 131 750 l 33 750 l 0 1010 l 165 1010 "},"Ģ":{"x_min":45,"x_max":861,"ha":927,"o":"m 526 -19 q 329 13 418 -19 q 176 111 240 45 q 78 278 112 179 q 45 505 45 377 q 79 724 45 627 q 177 889 113 821 q 329 992 239 956 q 526 1028 419 1028 q 624 1020 577 1028 q 713 1000 671 1013 q 789 972 747 990 q 857 941 831 954 l 857 779 l 845 779 q 793 821 820 801 q 717 864 766 841 q 624 898 677 884 q 510 912 571 912 q 274 802 364 912 q 185 510 185 692 q 208 332 185 408 q 277 204 232 256 q 381 124 320 151 q 519 97 442 97 q 632 105 576 97 q 727 129 688 113 l 727 390 l 495 390 l 495 508 l 861 508 l 861 67 q 792 38 835 55 q 712 10 750 22 q 668 -1 683 2 q 636 -8 652 -4 q 637 -30 636 -17 q 639 -60 639 -43 q 579 -227 639 -169 q 429 -286 519 -286 q 370 -281 404 -286 q 309 -269 336 -277 l 309 -161 l 315 -161 q 358 -176 331 -168 q 411 -184 384 -184 q 506 -157 475 -184 q 537 -72 537 -130 q 536 -47 537 -60 q 535 -19 536 -34 q 531 -19 532 -19 q 526 -19 530 -19 "},"m":{"x_min":92,"x_max":1080,"ha":1167,"o":"m 952 0 l 952 438 q 947 535 952 490 q 931 605 943 579 q 892 645 917 632 q 824 658 867 658 q 740 633 785 658 q 647 564 695 609 q 648 536 647 552 q 650 498 650 520 l 650 0 l 522 0 l 522 438 q 517 535 522 490 q 501 605 513 579 q 462 645 487 632 q 394 658 437 658 q 308 632 353 658 q 220 566 262 606 l 220 0 l 92 0 l 92 758 l 220 758 l 220 673 q 319 751 270 724 q 427 779 368 779 q 546 748 494 779 q 625 648 598 717 q 738 745 683 712 q 857 779 793 779 q 946 763 906 779 q 1016 714 986 748 q 1063 628 1046 679 q 1080 498 1080 576 l 1080 0 l 952 0 "},"Ị":{"x_min":63,"x_max":455,"ha":518,"o":"m 455 0 l 63 0 l 63 103 l 192 103 l 192 907 l 63 907 l 63 1010 l 455 1010 l 455 907 l 326 907 l 326 103 l 455 103 l 455 0 m 332 -259 l 187 -259 l 187 -127 l 332 -127 l 332 -259 "},"؟":{"x_min":57,"x_max":601,"ha":659,"o":"m 601 845 l 593 845 q 496 892 556 869 q 368 915 436 915 q 243 877 291 915 q 195 762 195 839 q 215 669 195 710 q 272 593 235 628 q 351 533 300 566 q 440 478 402 501 l 440 271 l 319 271 l 319 425 q 220 490 267 457 q 137 563 174 523 q 79 654 101 602 q 57 772 57 706 q 136 960 57 889 q 355 1031 216 1031 q 486 1016 417 1031 q 601 983 555 1001 l 601 845 m 446 0 l 308 0 l 308 143 l 446 143 l 446 0 "},"ớ":{"x_min":39,"x_max":775,"ha":781,"o":"m 715 378 q 622 83 715 187 q 377 -21 530 -21 q 129 86 219 -21 q 39 378 39 194 q 132 673 39 568 q 377 779 225 779 q 442 773 411 779 q 502 758 473 768 l 562 758 q 648 780 623 758 q 673 850 673 802 q 665 906 673 875 q 650 952 658 937 l 650 959 l 758 959 q 771 903 767 927 q 775 845 775 879 q 736 730 775 773 q 624 673 697 686 q 691 547 668 622 q 715 378 715 473 m 583 378 q 529 597 583 525 q 377 669 476 669 q 224 597 278 669 q 171 378 171 525 q 224 162 171 236 q 377 89 278 89 q 529 161 475 89 q 583 378 583 233 m 590 1137 l 404 883 l 304 883 l 425 1137 l 590 1137 "},"á":{"x_min":39,"x_max":642,"ha":729,"o":"m 514 186 l 514 397 q 399 385 468 392 q 287 365 330 378 q 204 318 237 350 q 171 228 171 285 q 207 130 171 163 q 314 97 243 97 q 422 122 374 97 q 514 186 471 148 m 514 80 q 472 48 498 69 q 421 15 446 27 q 356 -11 388 -2 q 268 -21 325 -21 q 179 -3 221 -21 q 105 46 137 14 q 57 123 75 77 q 39 219 39 169 q 72 354 39 298 q 177 441 105 409 q 327 482 240 471 q 514 499 413 493 l 514 523 q 500 595 514 567 q 462 637 486 622 q 403 657 438 652 q 330 663 368 663 q 227 649 286 663 q 108 612 167 636 l 101 612 l 101 741 q 202 763 136 751 q 332 776 267 776 q 463 763 410 776 q 559 719 517 751 q 621 638 601 688 q 642 518 642 589 l 642 0 l 514 0 l 514 80 m 567 1137 l 381 883 l 281 883 l 402 1137 l 567 1137 "},"ﯼ":{"x_min":62,"x_max":1152,"ha":1211,"o":"m 1152 574 l 1145 574 q 1034 625 1097 603 q 893 648 970 648 q 780 620 830 648 q 730 550 730 593 q 802 485 730 514 q 931 436 874 457 q 1004 405 965 423 q 1069 366 1043 386 q 1115 319 1098 345 q 1132 258 1132 294 q 967 65 1132 131 q 479 0 803 0 q 162 72 262 0 q 62 299 62 144 q 68 405 62 352 q 76 471 74 458 l 193 471 l 193 464 q 183 396 191 454 q 175 301 175 339 q 244 167 175 206 q 480 128 313 128 q 885 162 752 128 q 1019 257 1019 196 q 946 316 1019 288 q 818 364 874 343 q 744 397 781 379 q 679 437 707 415 q 634 487 651 459 q 617 551 617 515 q 695 706 617 640 q 895 773 774 773 q 1041 756 977 773 q 1152 718 1105 740 l 1152 574 "},"":{"x_min":1,"x_max":417,"ha":418,"o":"m 294 954 q 383 990 349 954 q 417 1093 417 1026 q 415 1141 417 1127 q 413 1163 413 1156 l 349 1163 l 349 1158 q 351 1133 349 1150 q 353 1094 353 1117 q 337 1036 353 1055 q 294 1018 322 1018 q 256 1037 271 1018 q 241 1095 241 1056 l 241 1137 l 177 1137 l 177 1089 q 159 1011 177 1037 q 113 986 142 986 q 77 999 89 986 q 65 1037 65 1013 q 66 1073 65 1054 q 69 1100 68 1092 l 69 1105 l 4 1105 q 2 1075 3 1096 q 1 1036 1 1054 q 31 951 1 981 q 113 922 61 922 q 180 945 153 922 q 214 994 208 968 q 245 965 223 977 q 294 954 267 954 m 405 1370 l 17 1302 l 17 1370 l 405 1435 l 405 1370 m 405 1234 l 17 1165 l 17 1234 l 405 1299 l 405 1234 "},"K":{"x_min":102,"x_max":839,"ha":817,"o":"m 839 0 l 664 0 l 294 470 l 236 403 l 236 0 l 102 0 l 102 1010 l 236 1010 l 236 545 l 651 1010 l 815 1010 l 395 558 l 839 0 "},"7":{"x_min":67,"x_max":708,"ha":758,"o":"m 708 858 l 271 0 l 127 0 l 589 891 l 67 891 l 67 1010 l 708 1010 l 708 858 "},"¨":{"x_min":172,"x_max":588,"ha":758,"o":"m 588 884 l 452 884 l 452 1016 l 588 1016 l 588 884 m 308 884 l 172 884 l 172 1016 l 308 1016 l 308 884 "},"Y":{"x_min":-7,"x_max":809,"ha":800,"o":"m 809 1010 l 468 447 l 468 0 l 334 0 l 334 432 l -7 1010 l 141 1010 l 401 564 l 666 1010 l 809 1010 "},"E":{"x_min":102,"x_max":734,"ha":779,"o":"m 102 0 l 102 1010 l 734 1010 l 734 891 l 236 891 l 236 614 l 700 614 l 700 495 l 236 495 l 236 119 l 734 119 l 734 0 l 102 0 "},"Ô":{"x_min":45,"x_max":938,"ha":983,"o":"m 816 893 q 906 729 874 827 q 938 504 938 630 q 906 282 938 381 q 816 116 875 183 q 672 12 754 46 q 491 -21 590 -21 q 306 13 388 -21 q 165 116 224 48 q 76 282 107 183 q 45 504 45 380 q 76 728 45 632 q 166 893 108 824 q 307 996 224 961 q 491 1031 389 1031 q 676 995 594 1031 q 816 893 759 959 m 798 504 q 776 682 798 605 q 715 810 754 759 q 618 888 675 862 q 491 915 562 915 q 364 889 418 915 q 267 810 309 864 q 206 681 227 759 q 185 504 185 603 q 268 200 185 305 q 491 95 351 95 q 715 200 632 95 q 798 504 798 305 m 716 1133 l 608 1133 l 482 1306 l 358 1133 l 253 1133 l 407 1390 l 561 1390 l 716 1133 "},"Є":{"x_min":45,"x_max":802,"ha":833,"o":"m 802 44 q 667 0 741 18 q 504 -18 594 -18 q 170 119 295 -18 q 45 506 45 257 q 171 887 45 747 q 503 1028 297 1028 q 670 1010 594 1028 q 802 966 745 992 l 802 815 l 791 815 q 669 886 744 858 q 508 914 594 914 q 293 835 382 914 q 188 600 205 757 l 672 600 l 672 483 l 181 483 q 207 315 181 387 q 277 194 233 243 q 383 120 323 144 q 510 96 443 96 q 669 121 594 96 q 791 192 744 147 l 802 192 l 802 44 "},"Ï":{"x_min":51,"x_max":467,"ha":518,"o":"m 455 0 l 63 0 l 63 103 l 192 103 l 192 907 l 63 907 l 63 1010 l 455 1010 l 455 907 l 326 907 l 326 103 l 455 103 l 455 0 m 467 1137 l 331 1137 l 331 1269 l 467 1269 l 467 1137 m 187 1137 l 51 1137 l 51 1269 l 187 1269 l 187 1137 "},"ứ":{"x_min":87,"x_max":909,"ha":842,"o":"m 682 0 l 554 0 l 554 84 q 442 5 495 32 q 324 -21 389 -21 q 231 -4 275 -21 q 155 46 187 11 q 104 135 122 82 q 87 266 87 189 l 87 758 l 215 758 l 215 326 q 219 225 215 265 q 239 156 223 186 q 281 113 254 127 q 358 100 308 100 q 457 126 404 100 q 554 191 510 153 l 554 758 l 695 758 q 781 780 756 758 q 807 850 807 802 q 799 905 807 874 q 784 951 792 936 l 784 958 l 892 958 q 905 902 901 926 q 909 844 909 878 q 850 710 909 755 q 683 666 792 666 l 682 666 l 682 0 m 588 1137 l 402 883 l 302 883 l 423 1137 l 588 1137 "},"٤":{"x_min":100,"x_max":728,"ha":794,"o":"m 728 0 l 241 0 q 141 34 183 0 q 100 114 100 69 q 118 186 100 154 q 172 254 137 219 l 345 421 q 358 437 353 429 q 364 456 364 444 q 356 476 364 467 q 334 497 349 485 l 238 580 q 175 643 201 613 q 150 715 150 674 q 163 776 150 750 q 206 822 177 802 q 268 853 232 840 q 345 877 305 866 l 590 943 l 590 832 l 369 775 q 308 752 325 763 q 292 722 292 742 q 306 688 292 704 q 336 661 321 673 l 431 579 q 471 530 456 558 q 486 473 486 502 q 471 406 486 437 q 422 342 456 374 l 268 192 q 249 168 256 179 q 242 148 242 157 q 250 131 242 137 q 281 125 258 125 l 728 125 l 728 0 "},"έ":{"x_min":41,"x_max":613,"ha":632,"o":"m 613 44 q 480 -2 543 11 q 339 -17 417 -17 q 236 -5 289 -17 q 139 31 183 5 q 68 101 95 58 q 41 207 41 144 q 77 320 41 271 q 191 395 113 370 l 191 400 q 99 461 133 416 q 65 568 65 507 q 93 668 65 628 q 165 731 122 708 q 259 765 206 754 q 359 776 311 776 q 474 764 421 776 q 584 734 526 753 l 584 596 l 575 596 q 473 648 534 630 q 349 667 412 667 q 297 663 321 667 q 247 645 273 659 q 210 613 225 635 q 195 560 195 591 q 212 495 195 518 q 259 462 229 472 q 320 452 286 453 q 385 451 354 451 l 446 451 l 446 338 l 356 338 q 287 335 318 338 q 227 320 255 332 q 186 284 202 308 q 171 219 171 259 q 187 157 171 181 q 228 119 204 132 q 284 99 252 106 q 350 93 316 93 q 487 117 417 93 q 604 185 558 141 l 613 185 l 613 44 m 433 1136 l 399 876 l 301 876 l 268 1136 l 433 1136 "},"ể":{"x_min":40,"x_max":771,"ha":731,"o":"m 421 -17 q 140 85 240 -17 q 40 374 40 187 q 136 669 40 560 q 390 779 233 779 q 515 758 460 779 q 609 694 569 738 q 672 588 650 651 q 694 435 694 526 l 694 366 l 170 366 q 236 163 170 233 q 419 94 302 94 q 502 103 461 94 q 575 128 542 113 q 633 158 609 143 q 672 186 656 173 l 680 186 l 680 46 q 624 24 657 37 q 564 4 591 11 q 497 -11 527 -6 q 421 -17 467 -17 m 570 464 q 557 552 568 515 q 526 615 546 590 q 469 659 504 644 q 383 674 434 674 q 296 658 332 674 q 232 614 261 643 q 188 548 203 584 q 170 464 174 512 l 570 464 m 620 880 l 512 880 l 386 1053 l 262 880 l 157 880 l 311 1137 l 465 1137 l 620 880 m 771 1170 q 748 1100 771 1127 q 682 1060 726 1074 l 682 1014 l 607 1014 l 607 1096 q 654 1117 638 1104 q 671 1157 671 1130 q 658 1186 671 1173 q 623 1200 645 1200 q 589 1196 602 1200 q 561 1187 577 1193 l 559 1187 l 559 1258 q 596 1266 571 1262 q 647 1271 621 1271 q 736 1241 701 1271 q 771 1170 771 1212 "},"ﮤ":{"x_min":61,"x_max":591,"ha":654,"o":"m 591 273 q 516 66 591 141 q 320 -8 442 -8 q 136 71 211 -8 q 62 272 62 151 q 101 410 62 352 q 239 528 141 469 l 285 556 l 193 659 l 350 659 l 512 476 q 569 386 548 436 q 591 273 591 336 m 428 156 q 465 203 451 176 q 479 273 479 229 q 441 367 479 312 q 364 468 404 423 l 349 484 l 304 456 q 211 378 247 421 q 175 273 175 335 q 218 166 175 213 q 320 120 262 120 q 378 129 347 120 q 428 156 408 138 m 289 758 l 61 758 l 61 822 l 111 822 q 84 850 95 830 q 74 890 74 869 q 105 966 74 934 q 191 999 137 999 q 244 994 227 999 q 269 988 262 990 l 269 919 l 264 919 q 232 929 255 923 q 193 935 210 935 q 148 922 163 935 q 134 890 134 910 q 165 841 134 860 q 238 822 196 822 l 289 822 l 289 758 "},"ϋ":{"x_min":87,"x_max":686,"ha":773,"o":"m 686 272 q 608 51 686 124 q 386 -21 530 -21 q 165 50 244 -21 q 87 272 87 122 l 87 758 l 215 758 l 215 315 q 221 213 215 255 q 246 144 227 171 q 298 102 265 115 q 386 89 330 89 q 475 102 440 89 q 527 145 509 116 q 552 219 547 176 q 558 315 558 261 l 558 758 l 686 758 l 686 272 m 595 884 l 459 884 l 459 1016 l 595 1016 l 595 884 m 315 884 l 179 884 l 179 1016 l 315 1016 l 315 884 "},"ﺙ":{"x_min":62,"x_max":1059,"ha":1121,"o":"m 560 120 q 385 135 460 120 q 260 183 309 151 q 194 253 213 213 q 175 340 175 292 q 182 402 175 361 q 193 460 189 442 l 193 467 l 76 467 q 67 406 72 444 q 62 331 62 369 q 185 80 62 168 q 559 -8 309 -8 q 935 79 812 -8 q 1059 331 1059 167 q 1053 406 1059 369 q 1045 467 1048 444 l 928 467 l 928 460 q 938 402 931 442 q 946 340 946 361 q 926 253 946 292 q 860 183 906 214 q 736 135 811 151 q 560 120 661 120 m 508 553 l 408 553 l 408 653 l 508 653 l 508 553 m 708 553 l 608 553 l 608 653 l 708 653 l 708 553 m 608 694 l 508 694 l 508 794 l 608 794 l 608 694 "},"ן":{"x_min":20,"x_max":405,"ha":503,"o":"m 405 -279 l 288 -279 l 288 584 q 255 712 288 677 q 140 747 223 747 q 77 740 111 747 q 26 729 43 733 l 20 729 l 20 862 q 89 875 43 870 q 173 880 135 880 q 347 811 290 880 q 405 603 405 743 l 405 -279 "},"b":{"x_min":92,"x_max":728,"ha":768,"o":"m 596 381 q 554 587 596 517 q 421 658 513 658 q 316 633 369 658 q 220 571 263 608 l 220 137 q 305 103 268 113 q 387 94 342 94 q 540 163 484 94 q 596 381 596 232 m 728 391 q 637 92 728 205 q 411 -21 547 -21 q 306 -5 350 -21 q 220 35 262 9 l 211 0 l 92 0 l 92 1055 l 220 1055 l 220 678 q 324 750 268 722 q 451 779 380 779 q 654 676 580 779 q 728 391 728 573 "},"̃":{"x_min":-660,"x_max":-118,"ha":0,"o":"m -118 1389 q -168 1230 -124 1283 q -284 1178 -212 1178 q -350 1190 -320 1178 q -408 1230 -379 1203 q -459 1273 -438 1258 q -502 1288 -481 1287 q -549 1257 -535 1288 q -565 1175 -562 1226 l -660 1175 q -608 1332 -655 1279 q -493 1386 -561 1386 q -430 1372 -459 1386 q -371 1333 -400 1359 q -319 1293 -342 1307 q -276 1280 -295 1280 q -229 1310 -244 1280 q -213 1389 -215 1340 l -118 1389 "},"ύ":{"x_min":87,"x_max":686,"ha":773,"o":"m 686 272 q 608 51 686 124 q 386 -21 530 -21 q 165 50 244 -21 q 87 272 87 122 l 87 758 l 215 758 l 215 315 q 221 213 215 255 q 246 144 227 171 q 298 102 265 115 q 386 89 330 89 q 475 102 440 89 q 527 145 509 116 q 552 219 547 176 q 558 315 558 261 l 558 758 l 686 758 l 686 272 m 469 1136 l 435 876 l 337 876 l 304 1136 l 469 1136 "},"ﬂ":{"x_min":20,"x_max":643,"ha":737,"o":"m 643 0 l 515 0 l 515 952 q 470 955 496 954 q 427 957 443 957 q 273 920 317 957 q 230 789 230 884 l 230 758 l 394 758 l 394 652 l 234 652 l 234 0 l 106 0 l 106 652 l 20 652 l 20 758 l 106 758 l 106 791 q 127 911 106 860 q 188 995 149 961 q 285 1045 226 1028 q 412 1062 344 1062 q 501 1057 453 1062 q 576 1050 549 1052 l 643 1055 l 643 0 "},"ﻃ":{"x_min":-14,"x_max":901,"ha":936,"o":"m 901 276 q 874 169 901 219 q 795 81 848 118 q 665 22 743 44 q 480 0 586 0 l -14 0 l -14 128 l 118 128 q 126 134 118 128 q 143 149 134 140 q 160 169 153 160 q 168 187 168 177 l 168 1055 l 281 1055 l 281 323 q 457 486 360 420 q 633 553 553 553 q 823 477 745 553 q 901 276 901 401 m 788 274 q 741 384 788 340 q 631 428 694 428 q 541 396 590 428 q 441 316 492 364 q 352 222 395 274 q 281 128 308 170 l 399 128 q 538 134 457 128 q 663 154 618 140 q 754 198 720 170 q 788 274 788 226 "},"ф":{"x_min":41,"x_max":1013,"ha":1055,"o":"m 1013 398 q 988 220 1013 297 q 922 92 963 142 q 829 15 881 41 q 719 -11 776 -11 q 644 5 676 -11 q 590 33 612 21 l 590 -279 l 464 -279 l 464 33 q 400 0 423 12 q 322 -11 376 -11 q 117 92 194 -11 q 41 376 41 196 q 65 546 41 471 q 132 673 89 620 q 223 748 172 721 q 332 775 275 775 q 404 761 372 775 q 464 729 436 747 l 464 1055 l 590 1055 l 590 729 q 658 761 619 747 q 738 775 697 775 q 939 672 865 775 q 1013 398 1013 570 m 881 384 q 837 589 881 514 q 708 665 793 665 q 646 655 673 665 q 590 635 619 646 l 590 129 q 638 106 619 115 q 692 98 657 98 q 830 170 780 98 q 881 384 881 243 m 464 129 l 464 635 q 415 656 439 647 q 361 665 390 665 q 223 596 274 665 q 173 382 173 527 q 218 174 173 250 q 349 98 264 98 q 410 108 383 98 q 464 129 437 118 "},"Ŋ":{"x_min":102,"x_max":825,"ha":927,"o":"m 700 -7 l 227 870 l 227 0 l 102 0 l 102 1010 l 292 1010 l 700 251 l 700 1010 l 825 1010 l 825 -18 q 755 -216 825 -147 q 564 -286 686 -286 q 517 -283 543 -286 q 466 -277 491 -281 l 466 -164 l 473 -164 q 506 -170 488 -167 q 540 -173 523 -173 q 669 -131 637 -173 q 700 -7 700 -89 "},"ُ":{"x_min":0,"x_max":336,"ha":336,"o":"m 336 1178 l 250 1196 q 127 1143 188 1161 q 0 1121 67 1125 l 0 1181 q 95 1193 50 1184 q 184 1223 140 1203 q 123 1262 149 1234 q 97 1329 97 1290 q 128 1405 97 1375 q 213 1436 160 1436 q 294 1405 260 1436 q 329 1326 329 1374 q 316 1278 329 1303 q 293 1244 304 1253 l 336 1236 l 336 1178 m 235 1261 q 259 1288 250 1273 q 268 1327 268 1304 q 251 1359 268 1347 q 216 1372 235 1372 q 176 1360 192 1372 q 161 1327 161 1349 q 180 1287 161 1304 q 235 1261 199 1270 "},"Ũ":{"x_min":90,"x_max":821,"ha":911,"o":"m 455 -21 q 299 2 366 -21 q 186 71 233 25 q 111 198 133 124 q 90 379 90 272 l 90 1010 l 224 1010 l 224 380 q 232 262 224 310 q 267 176 241 214 q 341 115 294 136 q 455 94 387 94 q 567 115 518 94 q 643 176 616 136 q 677 262 668 215 q 687 376 687 308 l 687 1010 l 821 1010 l 821 379 q 799 199 821 274 q 724 71 778 124 q 612 2 676 25 q 455 -21 548 -21 m 727 1352 q 676 1193 720 1246 q 560 1141 632 1141 q 495 1153 524 1141 q 436 1193 465 1166 q 385 1236 406 1221 q 342 1251 363 1250 q 295 1220 309 1251 q 280 1138 282 1189 l 185 1138 q 236 1295 189 1242 q 351 1349 283 1349 q 414 1335 385 1349 q 473 1296 444 1322 q 525 1256 502 1270 q 568 1243 549 1243 q 615 1273 600 1243 q 632 1352 629 1303 l 727 1352 "},"ﻴ":{"x_min":-16,"x_max":503,"ha":488,"o":"m 503 0 l 408 0 q 315 22 366 0 q 242 83 264 45 q 171 21 218 43 q 78 0 123 0 l -16 0 l -16 128 l 48 128 q 147 169 109 128 q 185 289 185 211 l 185 371 l 299 371 l 299 289 q 337 172 299 216 q 438 128 376 128 l 503 128 l 503 0 m 122 -210 l 22 -210 l 22 -110 l 122 -110 l 122 -210 m 303 -210 l 203 -210 l 203 -110 l 303 -110 l 303 -210 "},"L":{"x_min":102,"x_max":688,"ha":691,"o":"m 688 0 l 102 0 l 102 1010 l 236 1010 l 236 119 l 688 119 l 688 0 "},"ֲ":{"x_min":204,"x_max":521,"ha":724,"o":"m 204 -123 l 204 -67 l 386 -67 l 386 -123 l 204 -123 m 475 -153 q 442 -140 455 -153 q 430 -107 430 -127 q 442 -74 430 -87 q 475 -62 455 -62 q 508 -74 495 -62 q 521 -107 521 -87 q 508 -140 521 -127 q 475 -153 495 -153 m 475 -279 q 442 -266 455 -279 q 430 -233 430 -253 q 442 -200 430 -213 q 475 -188 455 -188 q 508 -200 495 -188 q 521 -233 521 -213 q 508 -266 521 -253 q 475 -279 495 -279 "},";":{"x_min":83,"x_max":372,"ha":491,"o":"m 327 565 l 165 565 l 165 758 l 327 758 l 327 565 m 372 193 l 182 -251 l 83 -251 l 202 193 l 372 193 "},"ď":{"x_min":40,"x_max":1000,"ha":954,"o":"m 676 0 l 548 0 l 548 77 q 496 35 518 52 q 445 6 474 19 q 389 -13 418 -6 q 321 -21 360 -21 q 207 4 259 -21 q 118 80 154 30 q 60 203 80 130 q 40 373 40 277 q 65 545 40 472 q 136 673 91 618 q 237 750 178 722 q 360 779 295 779 q 459 766 417 779 q 548 727 501 753 l 548 1055 l 676 1055 l 676 0 m 548 184 l 548 621 q 462 653 500 644 q 381 662 425 662 q 227 588 283 662 q 172 375 172 514 q 214 170 172 241 q 351 100 257 100 q 452 122 401 100 q 548 184 503 145 m 1000 1055 l 837 713 l 751 713 l 847 1055 l 1000 1055 "},"ﻺ":{"x_min":35.75,"x_max":987,"ha":986,"o":"m 906 0 q 771 41 827 0 q 689 166 714 83 q 539 43 628 87 q 354 0 451 0 q 228 4 286 0 q 160 9 169 8 l 160 144 l 166 144 q 246 133 187 138 q 355 128 306 128 q 389 132 377 128 q 401 136 401 136 l 35 1004 l 166 1004 l 516 178 q 611 266 572 201 q 650 390 650 332 l 650 1055 l 763 1055 l 763 382 q 768 291 763 331 q 792 210 773 252 q 835 151 807 174 q 904 128 862 128 l 987 128 l 987 0 l 906 0 m 846 0 l 846 0 m 442 -286 l 214 -286 l 214 -222 l 264 -222 q 237 -193 248 -213 q 227 -153 227 -174 q 258 -77 227 -109 q 344 -45 290 -45 q 397 -49 380 -45 q 422 -56 415 -53 l 422 -125 l 417 -125 q 385 -114 408 -120 q 346 -109 363 -109 q 301 -121 316 -109 q 287 -153 287 -133 q 318 -202 287 -183 q 391 -222 349 -222 l 442 -222 l 442 -286 "},"Ο":{"x_min":45,"x_max":938,"ha":983,"o":"m 816 893 q 906 729 874 827 q 938 504 938 630 q 906 282 938 381 q 816 116 875 183 q 672 12 754 46 q 491 -21 590 -21 q 306 13 388 -21 q 165 116 224 48 q 76 282 107 183 q 45 504 45 380 q 76 728 45 632 q 166 893 108 824 q 307 996 224 961 q 491 1031 389 1031 q 676 995 594 1031 q 816 893 759 959 m 798 504 q 776 682 798 605 q 715 810 754 759 q 618 888 675 862 q 491 915 562 915 q 364 889 418 915 q 267 810 309 864 q 206 681 227 759 q 185 504 185 603 q 268 200 185 305 q 491 95 351 95 q 715 200 632 95 q 798 504 798 305 "},"ŧ":{"x_min":21,"x_max":469,"ha":471,"o":"m 328 -15 q 165 44 223 -15 q 107 231 107 103 l 107 361 l 21 361 l 21 453 l 107 453 l 107 652 l 21 652 l 21 758 l 107 758 l 107 976 l 235 976 l 235 758 l 469 758 l 469 652 l 235 652 l 235 453 l 418 453 l 418 361 l 235 361 l 235 291 q 237 202 235 233 q 252 143 239 170 q 289 107 264 119 q 359 96 315 96 q 419 105 390 96 q 461 120 448 114 l 469 120 l 469 6 q 396 -9 433 -3 q 328 -15 359 -15 "},"ﺧ":{"x_min":-16,"x_max":869,"ha":916,"o":"m 869 312 q 438 105 701 211 q 56 0 176 0 l -16 0 l -16 128 l 59 128 q 324 185 154 128 q 616 306 494 243 q 428 387 557 347 q 164 428 300 428 l 85 428 l 85 553 l 171 553 q 445 505 296 553 q 733 370 593 457 l 869 440 l 869 312 m 446 671 l 346 671 l 346 771 l 446 771 l 446 671 "},"ۀ":{"x_min":61,"x_max":591,"ha":654,"o":"m 591 273 q 516 66 591 141 q 320 -8 442 -8 q 136 71 211 -8 q 62 272 62 151 q 101 410 62 352 q 239 528 141 469 l 285 556 l 193 659 l 350 659 l 512 476 q 569 386 548 436 q 591 273 591 336 m 428 156 q 465 203 451 176 q 479 273 479 229 q 441 367 479 312 q 364 468 404 423 l 349 484 l 304 456 q 211 378 247 421 q 175 273 175 335 q 218 166 175 213 q 320 120 262 120 q 378 129 347 120 q 428 156 408 138 m 289 758 l 61 758 l 61 822 l 111 822 q 84 850 95 830 q 74 890 74 869 q 105 966 74 934 q 191 999 137 999 q 244 994 227 999 q 269 988 262 990 l 269 919 l 264 919 q 232 929 255 923 q 193 935 210 935 q 148 922 163 935 q 134 890 134 910 q 165 841 134 860 q 238 822 196 822 l 289 822 l 289 758 "},"À":{"x_min":-7,"x_max":840,"ha":833,"o":"m -7 0 l 333 1010 l 499 1010 l 840 0 l 698 0 l 607 282 l 220 282 l 129 0 l -7 0 m 569 397 l 413 872 l 258 397 l 569 397 m 520 1136 l 419 1136 l 234 1390 l 398 1390 l 520 1136 "},"½":{"x_min":116,"x_max":1320,"ha":1389,"o":"m 371 384 l 258 384 l 258 846 l 116 846 l 116 925 q 228 939 185 925 q 277 1013 271 954 l 371 1013 l 371 384 m 956 1010 l 426 0 l 315 0 l 844 1010 l 956 1010 m 1320 0 l 858 0 l 858 97 q 958 174 910 137 q 1036 240 1006 210 q 1130 348 1108 309 q 1153 442 1153 387 q 1123 514 1153 489 q 1042 540 1094 540 q 948 519 995 540 q 872 477 900 498 l 862 477 l 862 598 q 956 628 904 616 q 1058 640 1008 640 q 1221 586 1164 640 q 1278 450 1278 533 q 1239 318 1278 372 q 1151 220 1201 264 q 1068 154 1113 186 q 986 94 1022 121 l 1320 94 l 1320 0 "},"'":{"x_min":71,"x_max":222,"ha":293,"o":"m 222 1055 l 192 662 l 100 662 l 71 1055 l 222 1055 "},"סּ":{"x_min":14,"x_max":930,"ha":1015,"o":"m 250 724 l 250 417 q 275 260 250 320 q 342 167 301 200 q 432 124 383 135 q 531 114 481 114 q 629 125 577 114 q 720 167 680 136 q 788 256 763 202 q 813 417 813 311 q 786 576 813 517 q 718 669 760 636 q 624 712 676 701 q 517 724 571 724 l 250 724 m 14 859 l 517 859 q 682 835 609 859 q 812 757 755 812 q 899 618 869 702 q 930 417 930 533 q 897 214 930 299 q 812 78 865 128 q 685 2 757 26 q 531 -21 613 -21 q 378 3 451 -21 q 250 78 304 27 q 164 214 196 130 q 133 417 133 298 l 133 724 l 14 724 l 14 859 m 577 444 q 564 411 577 424 q 531 399 551 399 q 498 411 511 399 q 486 444 486 424 q 498 477 486 464 q 531 490 511 490 q 564 477 551 490 q 577 444 577 464 "},"˛":{"x_min":232,"x_max":530,"ha":758,"o":"m 351 7 q 344 -30 347 -11 q 341 -72 341 -48 q 363 -154 341 -127 q 444 -182 385 -182 q 489 -175 467 -182 q 523 -162 511 -169 l 530 -162 l 530 -268 q 478 -279 505 -275 q 427 -283 450 -283 q 284 -229 336 -283 q 232 -79 232 -175 q 236 -35 232 -55 q 246 7 240 -16 l 351 7 "},"ﭗ":{"x_min":62,"x_max":1317,"ha":1302,"o":"m 1317 0 l 1222 0 q 1130 22 1180 0 q 1057 83 1079 45 q 975 22 1029 44 q 847 0 921 0 l 559 0 q 185 88 309 0 q 62 340 62 176 q 67 426 62 390 q 76 475 73 462 l 193 475 l 193 468 q 182 417 190 458 q 175 348 175 376 q 195 261 175 302 q 260 191 215 220 q 385 143 310 159 q 561 128 460 128 q 738 128 659 128 q 817 128 817 128 q 956 167 912 128 q 1001 289 1001 207 q 997 329 1001 307 q 992 360 993 352 l 992 371 l 1107 371 q 1111 326 1109 358 q 1114 283 1114 294 q 1149 173 1114 218 q 1253 128 1184 128 l 1317 128 l 1317 0 m 592 -145 l 492 -145 l 492 -45 l 592 -45 l 592 -145 m 792 -145 l 692 -145 l 692 -45 l 792 -45 l 792 -145 m 692 -286 l 592 -286 l 592 -186 l 692 -186 l 692 -286 "},"Ć":{"x_min":45,"x_max":811,"ha":834,"o":"m 497 -18 q 315 15 398 -18 q 171 114 232 48 q 78 278 111 179 q 45 503 45 376 q 77 724 45 630 q 171 889 109 819 q 314 992 231 956 q 499 1028 396 1028 q 594 1020 550 1028 q 676 1001 638 1013 q 743 976 709 991 q 811 942 777 960 l 811 780 l 800 780 q 754 819 782 796 q 687 864 726 842 q 603 899 648 885 q 498 913 557 913 q 376 886 433 913 q 275 808 318 860 q 208 679 232 757 q 185 503 185 601 q 210 325 185 400 q 278 198 235 250 q 377 123 320 148 q 498 98 434 98 q 605 112 556 98 q 693 148 655 126 q 758 191 731 169 q 800 229 785 213 l 811 229 l 811 68 q 748 39 777 53 q 676 11 718 24 q 595 -10 632 -3 q 497 -18 557 -18 m 660 1390 l 474 1136 l 374 1136 l 495 1390 l 660 1390 "},"£":{"x_min":60,"x_max":699,"ha":758,"o":"m 699 0 l 60 0 l 60 141 q 166 227 135 163 q 197 416 197 292 l 88 416 l 88 510 l 197 510 l 197 726 q 275 946 197 863 q 480 1030 354 1030 q 592 1019 545 1030 q 679 997 639 1009 l 679 858 l 672 858 q 584 901 632 885 q 492 917 536 917 q 368 864 409 917 q 327 714 327 812 l 327 510 l 574 510 l 574 416 l 327 416 l 327 374 q 287 230 327 295 q 176 124 247 166 l 176 117 l 699 117 l 699 0 "},"ů":{"x_min":87,"x_max":683,"ha":775,"o":"m 683 0 l 555 0 l 555 84 q 443 5 495 32 q 325 -21 390 -21 q 231 -4 275 -21 q 155 46 188 11 q 104 135 122 82 q 87 266 87 189 l 87 758 l 215 758 l 215 326 q 219 225 215 265 q 239 156 223 186 q 281 113 254 127 q 358 100 308 100 q 458 126 405 100 q 555 191 510 153 l 555 758 l 683 758 l 683 0 m 595 964 q 534 818 595 876 q 387 760 474 760 q 240 818 300 760 q 180 964 180 877 q 240 1109 180 1050 q 387 1168 300 1168 q 534 1109 474 1168 q 595 964 595 1051 m 495 963 q 464 1047 495 1013 q 387 1081 434 1081 q 310 1046 340 1081 q 280 963 280 1012 q 310 880 280 913 q 387 847 340 847 q 464 880 434 847 q 495 963 495 914 "},"":{"x_min":-531,"x_max":-386,"ha":0,"o":"m -386 -259 l -531 -259 l -531 -127 l -386 -127 l -386 -259 "},"Ğ":{"x_min":45,"x_max":861,"ha":927,"o":"m 525 -20 q 329 12 418 -20 q 176 111 240 45 q 78 277 112 178 q 45 505 45 376 q 79 724 45 627 q 177 889 113 821 q 329 992 239 956 q 526 1028 419 1028 q 624 1020 577 1028 q 713 1000 671 1013 q 789 972 747 990 q 857 941 831 954 l 857 779 l 845 779 q 793 821 820 801 q 717 864 766 841 q 624 898 677 884 q 510 912 571 912 q 274 802 364 912 q 185 509 185 692 q 208 332 185 408 q 277 203 232 256 q 381 123 320 150 q 519 96 442 96 q 632 104 576 96 q 727 128 688 112 l 727 390 l 495 390 l 495 508 l 861 508 l 861 66 q 792 37 835 55 q 711 9 749 20 q 622 -12 662 -5 q 525 -20 582 -20 m 723 1362 q 708 1256 723 1303 q 668 1175 694 1208 q 598 1121 637 1139 q 499 1104 560 1104 q 402 1122 444 1104 q 332 1175 360 1141 q 290 1257 304 1209 q 276 1362 276 1304 l 386 1362 q 414 1230 386 1270 q 499 1190 442 1190 q 583 1229 553 1190 q 613 1362 613 1269 l 723 1362 "},"Ї":{"x_min":51,"x_max":467,"ha":518,"o":"m 455 0 l 63 0 l 63 103 l 192 103 l 192 907 l 63 907 l 63 1010 l 455 1010 l 455 907 l 326 907 l 326 103 l 455 103 l 455 0 m 467 1137 l 331 1137 l 331 1269 l 467 1269 l 467 1137 m 187 1137 l 51 1137 l 51 1269 l 187 1269 l 187 1137 "},"̀":{"x_min":-522,"x_max":-287,"ha":0,"o":"m -287 1147 l -374 1147 l -522 1327 l -371 1327 l -287 1147 "},"û":{"x_min":87,"x_max":683,"ha":775,"o":"m 683 0 l 555 0 l 555 84 q 443 5 495 32 q 325 -21 390 -21 q 231 -4 275 -21 q 155 46 188 11 q 104 135 122 82 q 87 266 87 189 l 87 758 l 215 758 l 215 326 q 219 225 215 265 q 239 156 223 186 q 281 113 254 127 q 358 100 308 100 q 458 126 405 100 q 555 191 510 153 l 555 758 l 683 758 l 683 0 m 617 880 l 509 880 l 383 1053 l 259 880 l 154 880 l 308 1137 l 462 1137 l 617 880 "},"Ź":{"x_min":41,"x_max":747,"ha":777,"o":"m 747 0 l 41 0 l 41 124 l 583 891 l 65 891 l 65 1010 l 733 1010 l 733 888 l 185 119 l 747 119 l 747 0 m 591 1390 l 405 1136 l 305 1136 l 426 1390 l 591 1390 "},"ﺇ":{"x_min":55,"x_max":283,"ha":335,"o":"m 224 0 l 111 0 l 111 1055 l 224 1055 l 224 0 m 283 -286 l 55 -286 l 55 -222 l 105 -222 q 78 -193 89 -213 q 68 -153 68 -174 q 99 -77 68 -109 q 185 -45 131 -45 q 238 -49 221 -45 q 263 -56 256 -53 l 263 -125 l 258 -125 q 226 -114 249 -120 q 187 -109 204 -109 q 142 -121 157 -109 q 128 -153 128 -133 q 159 -202 128 -183 q 232 -222 190 -222 l 283 -222 l 283 -286 "},"":{"x_min":196,"x_max":524,"ha":758,"o":"m 519 14 q 522 -16 520 1 q 524 -59 524 -35 q 465 -227 524 -169 q 315 -286 406 -286 q 256 -281 290 -286 q 196 -269 223 -277 l 196 -161 l 202 -161 q 244 -176 218 -168 q 298 -184 271 -184 q 388 -157 361 -184 q 416 -71 416 -130 q 415 -33 416 -54 q 413 14 414 -12 l 519 14 "},"ỵ":{"x_min":4,"x_max":688,"ha":692,"o":"m 688 758 l 280 -279 l 143 -279 l 279 37 l 4 758 l 141 758 l 348 196 l 554 758 l 688 758 m 608 -259 l 463 -259 l 463 -127 l 608 -127 l 608 -259 "},"Ń":{"x_min":102,"x_max":825,"ha":927,"o":"m 825 0 l 674 0 l 227 870 l 227 0 l 102 0 l 102 1010 l 292 1010 l 700 210 l 700 1010 l 825 1010 l 825 0 m 671 1390 l 485 1136 l 385 1136 l 506 1390 l 671 1390 "},".":{"x_min":129,"x_max":291,"ha":421,"o":"m 291 0 l 129 0 l 129 193 l 291 193 l 291 0 "},"π":{"x_min":92,"x_max":691,"ha":783,"o":"m 691 0 l 563 0 l 563 648 l 220 648 l 220 0 l 92 0 l 92 758 l 691 758 l 691 0 "},"":{"x_min":14,"x_max":765,"ha":863,"o":"m 14 860 q 158 873 66 867 q 337 880 250 880 q 548 855 466 880 q 677 781 630 830 q 745 655 726 731 q 765 474 765 579 l 765 -279 l 648 -279 l 648 470 q 632 595 648 542 q 580 682 616 649 q 484 731 544 715 q 335 747 425 747 q 157 738 249 747 q 20 726 65 730 l 14 726 l 14 860 m 305 407 q 272 419 285 407 q 260 452 260 432 q 272 485 260 472 q 305 498 285 498 q 338 485 325 498 q 351 452 351 472 q 338 419 351 432 q 305 407 325 407 m 305 281 q 272 293 285 281 q 260 326 260 306 q 272 359 260 346 q 305 372 285 372 q 338 359 325 372 q 351 326 351 346 q 338 293 351 306 q 305 281 325 281 "},"":{"x_min":20,"x_max":647,"ha":741,"o":"m 647 0 l 519 0 l 519 654 l 234 654 l 234 0 l 106 0 l 106 652 l 20 652 l 20 758 l 106 758 l 106 796 q 171 990 106 919 q 341 1062 237 1062 q 405 1058 376 1062 q 453 1051 434 1054 l 453 935 l 446 935 q 410 945 435 939 q 357 951 385 951 q 258 914 286 951 q 230 797 230 877 l 230 758 l 647 758 l 647 0 m 647 885 l 510 885 l 510 1017 l 647 1017 l 647 885 "},"Ẫ":{"x_min":-7,"x_max":840,"ha":833,"o":"m -7 0 l 333 1010 l 499 1010 l 840 0 l 698 0 l 607 282 l 220 282 l 129 0 l -7 0 m 569 397 l 413 872 l 258 397 l 569 397 m 638 1099 l 523 1099 l 404 1159 l 286 1099 l 175 1099 l 343 1216 l 469 1216 l 638 1099 m 630 1389 q 584 1297 622 1333 q 492 1261 546 1261 q 442 1269 467 1261 q 398 1287 417 1278 q 359 1305 381 1296 q 324 1314 338 1314 q 291 1302 305 1314 q 274 1261 278 1291 l 183 1261 q 227 1351 189 1313 q 320 1389 265 1389 q 369 1381 347 1389 q 414 1362 392 1373 q 454 1343 437 1351 q 488 1336 470 1336 q 521 1348 506 1336 q 539 1389 535 1360 l 630 1389 "},"Ъ":{"x_min":-1,"x_max":932,"ha":958,"o":"m 932 312 q 903 179 932 239 q 826 82 874 120 q 704 19 769 38 q 536 0 639 0 l 262 0 l 262 891 l -1 891 l -1 1010 l 396 1010 l 396 614 l 540 614 q 708 602 643 614 q 831 545 773 590 q 907 446 883 505 q 932 312 932 387 m 792 310 q 775 399 792 361 q 722 462 758 438 q 636 492 685 487 q 498 498 587 498 l 396 498 l 396 115 l 494 115 q 633 123 585 115 q 719 157 682 132 q 774 219 757 184 q 792 310 792 255 "},"Ś":{"x_min":53,"x_max":739,"ha":774,"o":"m 384 -18 q 197 4 274 -18 q 53 60 120 27 l 53 229 l 62 229 q 212 132 128 166 q 374 98 296 98 q 542 144 485 98 q 599 266 599 190 q 569 365 599 327 q 474 421 539 402 q 389 443 427 434 q 292 467 350 452 q 198 501 240 480 q 125 556 157 522 q 77 635 94 590 q 60 739 60 680 q 155 944 60 861 q 399 1028 251 1028 q 560 1011 484 1028 q 700 962 635 994 l 700 802 l 689 802 q 566 879 641 846 q 408 912 491 912 q 257 868 315 912 q 200 753 200 824 q 233 651 200 689 q 331 595 267 613 q 436 569 374 583 q 538 542 497 554 q 690 446 642 510 q 739 287 739 381 q 714 171 739 228 q 647 73 690 113 q 537 5 598 29 q 384 -18 476 -18 m 590 1390 l 404 1136 l 304 1136 l 425 1390 l 590 1390 "},"à":{"x_min":39,"x_max":642,"ha":729,"o":"m 514 186 l 514 397 q 399 385 468 392 q 287 365 330 378 q 204 318 237 350 q 171 228 171 285 q 207 130 171 163 q 314 97 243 97 q 422 122 374 97 q 514 186 471 148 m 514 80 q 472 48 498 69 q 421 15 446 27 q 356 -11 388 -2 q 268 -21 325 -21 q 179 -3 221 -21 q 105 46 137 14 q 57 123 75 77 q 39 219 39 169 q 72 354 39 298 q 177 441 105 409 q 327 482 240 471 q 514 499 413 493 l 514 523 q 500 595 514 567 q 462 637 486 622 q 403 657 438 652 q 330 663 368 663 q 227 649 286 663 q 108 612 167 636 l 101 612 l 101 741 q 202 763 136 751 q 332 776 267 776 q 463 763 410 776 q 559 719 517 751 q 621 638 601 688 q 642 518 642 589 l 642 0 l 514 0 l 514 80 m 452 883 l 351 883 l 166 1137 l 330 1137 l 452 883 "},"ژ":{"x_min":-74,"x_max":447,"ha":503,"o":"m 447 126 q 395 -71 447 13 q 242 -210 344 -155 q 73 -271 160 -254 q -74 -288 -12 -288 l -74 -160 q 43 -148 -30 -160 q 174 -109 117 -136 q 291 -19 252 -73 q 330 104 330 33 q 307 223 330 162 q 245 341 284 283 l 245 350 l 376 350 q 424 241 402 301 q 447 126 447 181 m 234 517 l 134 517 l 134 617 l 234 617 l 234 517 m 434 517 l 334 517 l 334 617 l 434 617 l 434 517 m 334 658 l 234 658 l 234 758 l 334 758 l 334 658 "},"ﺐ":{"x_min":62,"x_max":1317,"ha":1302,"o":"m 1317 0 l 1222 0 q 1130 22 1180 0 q 1057 83 1079 45 q 975 22 1029 44 q 847 0 921 0 l 559 0 q 185 88 309 0 q 62 340 62 176 q 67 426 62 390 q 76 475 73 462 l 193 475 l 193 468 q 182 417 190 458 q 175 348 175 376 q 195 261 175 302 q 260 191 215 220 q 385 143 310 159 q 561 128 460 128 q 738 128 659 128 q 817 128 817 128 q 956 167 912 128 q 1001 289 1001 207 q 997 329 1001 307 q 992 360 993 352 l 992 371 l 1107 371 q 1111 326 1109 358 q 1114 283 1114 294 q 1149 173 1114 218 q 1253 128 1184 128 l 1317 128 l 1317 0 m 695 -216 l 595 -216 l 595 -116 l 695 -116 l 695 -216 "},"":{"x_min":-463,"x_max":-318,"ha":0,"o":"m -318 -259 l -463 -259 l -463 -127 l -318 -127 l -318 -259 "},"כֿ":{"x_min":41,"x_max":778,"ha":863,"o":"m 661 449 q 588 672 661 598 q 348 747 515 747 q 178 738 266 747 q 47 726 90 730 l 41 726 l 41 860 q 182 873 91 867 q 351 880 273 880 q 548 852 467 880 q 680 771 629 825 q 754 638 731 717 q 778 453 778 559 l 778 409 q 754 224 778 305 q 680 91 731 143 q 548 10 628 37 q 351 -17 469 -17 q 183 -10 280 -17 q 41 2 87 -4 l 41 137 l 47 137 q 181 123 100 131 q 348 116 263 116 q 587 190 514 116 q 661 413 661 265 l 661 449 m 270 971 l 270 1027 l 452 1027 l 452 971 l 270 971 "},"¦":{"x_min":209,"x_max":322,"ha":531,"o":"m 322 514 l 209 514 l 209 1055 l 322 1055 l 322 514 m 322 -266 l 209 -266 l 209 275 l 322 275 l 322 -266 "},"۹":{"x_min":83,"x_max":733,"ha":794,"o":"m 733 0 l 616 0 l 553 195 q 525 315 532 260 q 519 456 519 371 l 519 464 q 441 407 489 427 q 335 387 393 387 q 158 458 233 387 q 83 639 83 529 q 105 763 83 708 q 167 857 128 819 q 257 913 205 894 q 363 933 309 933 q 463 914 414 933 q 549 861 511 895 q 609 779 587 826 q 632 670 632 732 l 632 466 q 639 318 632 367 q 666 206 646 269 l 733 0 m 518 586 l 518 652 q 471 760 518 716 q 365 805 425 805 q 244 760 291 805 q 197 643 197 715 q 237 551 197 588 q 334 515 277 515 q 437 534 386 515 q 518 586 488 553 "},"ֱ":{"x_min":193,"x_max":530,"ha":724,"o":"m 238 -153 q 205 -140 218 -153 q 193 -107 193 -127 q 205 -74 193 -87 q 238 -62 218 -62 q 271 -74 258 -62 q 284 -107 284 -87 q 271 -140 284 -127 q 238 -153 258 -153 m 361 -153 q 328 -140 341 -153 q 316 -107 316 -127 q 328 -74 316 -87 q 361 -62 341 -62 q 394 -74 381 -62 q 407 -107 407 -87 q 394 -140 407 -127 q 361 -153 381 -153 m 484 -153 q 451 -140 464 -153 q 439 -107 439 -127 q 451 -74 439 -87 q 484 -62 464 -62 q 517 -74 504 -62 q 530 -107 530 -87 q 517 -140 530 -127 q 484 -153 504 -153 m 484 -279 q 451 -266 464 -279 q 439 -233 439 -253 q 451 -200 439 -213 q 484 -188 464 -188 q 517 -200 504 -188 q 530 -233 530 -213 q 517 -266 530 -253 q 484 -279 504 -279 m 300 -279 q 267 -266 280 -279 q 255 -233 255 -253 q 267 -200 255 -213 q 300 -188 280 -188 q 333 -200 320 -188 q 346 -233 346 -213 q 333 -266 346 -253 q 300 -279 320 -279 "},"Ỷ":{"x_min":-7,"x_max":809,"ha":800,"o":"m 809 1010 l 468 447 l 468 0 l 334 0 l 334 432 l -7 1010 l 141 1010 l 401 564 l 666 1010 l 809 1010 m 526 1289 q 503 1219 526 1246 q 437 1179 481 1193 l 437 1133 l 362 1133 l 362 1215 q 409 1236 393 1223 q 426 1276 426 1249 q 413 1305 426 1292 q 378 1319 400 1319 q 344 1315 357 1319 q 316 1306 332 1312 l 314 1306 l 314 1377 q 351 1385 326 1381 q 402 1390 376 1390 q 491 1360 456 1390 q 526 1289 526 1331 "},"":{"x_min":-513,"x_max":29,"ha":0,"o":"m 29 1359 q -21 1200 22 1253 q -137 1148 -65 1148 q -203 1160 -173 1148 q -261 1200 -232 1173 q -312 1243 -291 1228 q -355 1258 -334 1257 q -402 1227 -388 1258 q -418 1145 -415 1196 l -513 1145 q -461 1302 -508 1249 q -346 1356 -414 1356 q -283 1342 -312 1356 q -224 1303 -253 1329 q -172 1263 -195 1277 q -129 1250 -148 1250 q -82 1280 -97 1250 q -66 1359 -68 1310 l 29 1359 "},"ی":{"x_min":62,"x_max":1152,"ha":1211,"o":"m 1152 574 l 1145 574 q 1034 625 1097 603 q 893 648 970 648 q 780 620 830 648 q 730 550 730 593 q 802 485 730 514 q 931 436 874 457 q 1004 405 965 423 q 1069 366 1043 386 q 1115 319 1098 345 q 1132 258 1132 294 q 967 65 1132 131 q 479 0 803 0 q 162 72 262 0 q 62 299 62 144 q 68 405 62 352 q 76 471 74 458 l 193 471 l 193 464 q 183 396 191 454 q 175 301 175 339 q 244 167 175 206 q 480 128 313 128 q 885 162 752 128 q 1019 257 1019 196 q 946 316 1019 288 q 818 364 874 343 q 744 397 781 379 q 679 437 707 415 q 634 487 651 459 q 617 551 617 515 q 695 706 617 640 q 895 773 774 773 q 1041 756 977 773 q 1152 718 1105 740 l 1152 574 "},"ﺮ":{"x_min":-74,"x_max":580,"ha":579,"o":"m 580 0 l 527 0 q 480 6 506 0 q 434 23 455 12 q 346 -134 409 -74 q 205 -229 282 -195 q 61 -274 134 -260 q -74 -288 -11 -288 l -74 -160 q 43 -148 -30 -160 q 174 -109 117 -136 q 291 -21 252 -73 q 330 104 330 30 q 319 184 330 144 q 294 253 308 223 q 267 306 281 283 q 245 341 253 328 l 245 350 l 376 350 q 396 306 380 342 q 425 240 412 269 q 483 154 450 180 q 557 128 515 128 l 580 128 l 580 0 m 447 126 l 447 126 m 503 0 l 503 0 "},"e":{"x_min":40,"x_max":694,"ha":731,"o":"m 421 -17 q 140 85 240 -17 q 40 374 40 187 q 136 669 40 560 q 390 779 233 779 q 515 758 460 779 q 609 694 569 738 q 672 588 650 651 q 694 435 694 526 l 694 366 l 170 366 q 236 163 170 233 q 419 94 302 94 q 502 103 461 94 q 575 128 542 113 q 633 158 609 143 q 672 186 656 173 l 680 186 l 680 46 q 624 24 657 37 q 564 4 591 11 q 497 -11 527 -6 q 421 -17 467 -17 m 570 464 q 557 552 568 515 q 526 615 546 590 q 469 659 504 644 q 383 674 434 674 q 296 658 332 674 q 232 614 261 643 q 188 548 203 584 q 170 464 174 512 l 570 464 "},"ﻖ":{"x_min":62,"x_max":1250,"ha":1235,"o":"m 1250 0 l 1150 0 q 1092 -146 1137 -89 q 969 -235 1046 -203 q 791 -276 893 -265 q 559 -288 690 -288 q 185 -199 309 -288 q 62 52 62 -111 q 67 152 62 120 q 75 192 73 185 l 185 192 l 185 184 q 178 133 182 172 q 175 61 175 95 q 195 -26 175 14 q 260 -96 215 -67 q 385 -144 309 -128 q 560 -160 460 -160 q 913 -122 808 -160 q 1032 0 1018 -84 l 992 0 q 881 11 937 0 q 781 48 826 22 q 708 118 736 75 q 681 227 681 162 q 747 404 681 326 q 896 482 814 482 q 1064 380 995 482 q 1145 128 1134 278 l 1250 128 l 1250 0 m 884 144 q 957 131 920 134 q 1026 128 994 128 q 981 293 1016 233 q 904 354 946 354 q 826 316 855 354 q 798 232 798 278 q 823 176 798 197 q 884 144 849 155 m 823 657 l 723 657 l 723 757 l 823 757 l 823 657 m 1004 657 l 904 657 l 904 757 l 1004 757 l 1004 657 "},"₪":{"x_min":102,"x_max":1060,"ha":1160,"o":"m 1060 303 q 1040 160 1060 217 q 982 67 1020 102 q 887 15 943 31 q 755 0 830 0 l 382 0 l 382 520 l 499 520 l 499 133 l 752 133 q 845 144 808 133 q 903 178 882 156 q 934 232 926 202 q 943 307 943 262 l 943 859 l 1060 859 l 1060 303 m 780 339 l 663 339 l 663 551 q 654 625 663 594 q 623 680 646 657 q 564 714 602 702 q 472 726 526 726 l 219 726 l 219 0 l 102 0 l 102 859 l 475 859 q 607 843 550 859 q 702 791 664 827 q 761 696 742 755 q 780 555 780 637 l 780 339 "},"ļ":{"x_min":-28,"x_max":300,"ha":317,"o":"m 191 0 l 95 0 l 95 1055 l 223 1055 l 223 14 l 295 14 q 298 -16 296 1 q 300 -59 300 -35 q 241 -227 300 -169 q 91 -286 182 -286 q 32 -281 66 -286 q -28 -269 0 -277 l -28 -161 l -21 -161 q 20 -176 -5 -168 q 74 -184 47 -184 q 166 -157 138 -184 q 194 -72 194 -130 q 193 -40 194 -57 q 191 0 193 -23 "},"Ѓ":{"x_min":102,"x_max":702,"ha":705,"o":"m 702 891 l 236 891 l 236 0 l 102 0 l 102 1010 l 702 1010 l 702 891 m 632 1390 l 446 1136 l 346 1136 l 467 1390 l 632 1390 "},"ò":{"x_min":39,"x_max":715,"ha":754,"o":"m 715 378 q 622 83 715 187 q 377 -21 530 -21 q 129 86 219 -21 q 39 378 39 194 q 132 673 39 568 q 377 779 225 779 q 622 674 530 779 q 715 378 715 569 m 583 378 q 529 597 583 525 q 377 669 476 669 q 224 597 278 669 q 171 378 171 525 q 224 162 171 236 q 377 89 278 89 q 529 161 475 89 q 583 378 583 233 m 453 883 l 352 883 l 167 1137 l 331 1137 l 453 883 "},"^":{"x_min":90,"x_max":920,"ha":1011,"o":"m 920 464 l 785 464 l 504 886 l 223 463 l 90 463 l 462 1010 l 547 1010 l 920 464 "},"ﺞ":{"x_min":54,"x_max":988,"ha":973,"o":"m 988 0 l 905 0 q 747 49 795 0 q 700 213 700 99 l 700 381 q 476 359 576 378 q 309 304 377 340 q 203 210 240 267 q 167 75 167 153 q 244 -97 167 -31 q 444 -163 322 -163 q 610 -141 536 -163 q 739 -85 684 -120 l 746 -85 l 746 -221 q 620 -269 686 -251 q 445 -288 554 -288 q 291 -263 362 -288 q 167 -193 220 -239 q 84 -78 114 -146 q 54 76 54 -10 q 92 227 54 156 q 213 355 130 298 q 368 425 281 401 q 540 455 455 450 q 379 509 457 494 q 190 524 300 524 l 139 524 l 139 649 l 198 649 q 448 605 308 649 q 710 486 588 561 l 825 486 l 825 381 l 787 381 l 787 275 q 790 214 787 237 q 808 168 794 190 q 842 138 821 149 q 902 128 864 128 l 988 128 l 988 0 m 760 486 l 760 486 m 846 0 l 846 0 m 458 8 l 358 8 l 358 108 l 458 108 l 458 8 "},"к":{"x_min":92,"x_max":702,"ha":692,"o":"m 702 0 l 543 0 l 283 349 l 220 349 l 220 0 l 92 0 l 92 758 l 220 758 l 220 428 q 304 448 269 428 q 363 526 339 468 q 379 565 370 543 q 394 605 388 588 q 476 723 423 689 q 615 758 530 758 l 650 758 l 650 648 l 620 648 q 540 625 567 648 q 495 545 513 603 q 450 453 476 486 q 393 402 424 420 l 702 0 "},"ل":{"x_min":62,"x_max":816,"ha":899,"o":"m 816 298 q 708 73 816 154 q 407 -8 600 -8 q 140 60 218 -8 q 62 291 62 128 q 68 401 62 344 q 76 463 75 457 l 193 463 l 193 456 q 183 388 191 446 q 175 293 175 330 q 184 210 175 241 q 216 159 193 178 q 286 129 240 138 q 408 120 332 120 q 541 136 485 120 q 633 178 597 152 q 686 239 669 206 q 703 307 703 271 l 703 1055 l 816 1055 l 816 298 "},"￼":{"x_min":0,"x_max":1389,"ha":1389,"o":"m 1389 780 l 1321 780 l 1321 931 l 1170 931 l 1170 999 l 1389 999 l 1389 780 m 999 931 l 780 931 l 780 999 l 999 999 l 999 931 m 1389 390 l 1321 390 l 1321 609 l 1389 609 l 1389 390 m 1208 414 q 1065 251 1208 251 q 972 281 1007 251 l 1021 335 q 1064 317 1038 317 q 1129 410 1129 317 l 1129 739 l 1208 739 l 1208 414 m 609 931 l 390 931 l 390 999 l 609 999 l 609 931 m 1389 0 l 1170 0 l 1170 68 l 1321 68 l 1321 219 l 1389 219 l 1389 0 m 965 400 q 779 259 965 259 l 617 259 l 617 739 l 776 739 q 945 612 945 739 q 884 514 945 551 q 965 400 965 483 m 219 931 l 68 931 l 68 780 l 0 780 l 0 999 l 219 999 l 219 931 m 999 0 l 780 0 l 780 68 l 999 68 l 999 0 m 580 498 q 524 316 580 381 q 364 251 468 251 q 205 316 260 251 q 151 498 151 381 q 205 681 151 616 q 364 747 260 747 q 524 681 468 747 q 580 498 580 616 m 68 390 l 0 390 l 0 609 l 68 609 l 68 390 m 609 0 l 390 0 l 390 68 l 609 68 l 609 0 m 219 0 l 0 0 l 0 219 l 68 219 l 68 68 l 219 68 l 219 0 m 866 605 q 756 673 866 673 l 696 673 l 696 541 l 764 541 q 866 605 866 541 m 886 400 q 770 475 886 475 l 696 475 l 696 325 l 779 325 q 886 400 886 325 m 501 498 q 364 681 501 681 q 230 498 230 681 q 364 317 230 317 q 501 498 501 317 "},"ū":{"x_min":87,"x_max":683,"ha":775,"o":"m 683 0 l 555 0 l 555 84 q 443 5 495 32 q 325 -21 390 -21 q 231 -4 275 -21 q 155 46 188 11 q 104 135 122 82 q 87 266 87 189 l 87 758 l 215 758 l 215 326 q 219 225 215 265 q 239 156 223 186 q 281 113 254 127 q 358 100 308 100 q 458 126 405 100 q 555 191 510 153 l 555 758 l 683 758 l 683 0 m 641 905 l 130 905 l 130 1010 l 641 1010 l 641 905 "},"ˆ":{"x_min":148,"x_max":611,"ha":758,"o":"m 611 880 l 503 880 l 377 1053 l 253 880 l 148 880 l 302 1137 l 456 1137 l 611 880 "},"ﺜ":{"x_min":-16,"x_max":503,"ha":488,"o":"m 503 0 l 408 0 q 315 22 366 0 q 242 83 264 45 q 171 21 218 43 q 78 0 123 0 l -16 0 l -16 128 l 48 128 q 147 169 109 128 q 185 289 185 211 l 185 371 l 299 371 l 299 289 q 337 172 299 216 q 438 128 376 128 l 503 128 l 503 0 m 161 522 l 61 522 l 61 622 l 161 622 l 161 522 m 361 522 l 261 522 l 261 622 l 361 622 l 361 522 m 261 663 l 161 663 l 161 763 l 261 763 l 261 663 "},"č":{"x_min":40,"x_max":617,"ha":641,"o":"m 393 -17 q 250 7 315 -17 q 138 79 185 31 q 65 203 91 128 q 40 377 40 277 q 66 549 40 477 q 138 671 93 622 q 249 748 183 721 q 393 775 316 775 q 513 757 455 775 q 617 716 571 739 l 617 574 l 609 574 q 574 600 595 585 q 522 630 553 614 q 460 653 496 643 q 391 664 424 664 q 232 589 292 664 q 172 377 172 514 q 230 168 172 243 q 391 94 288 94 q 509 119 453 94 q 609 186 566 145 l 617 186 l 617 42 q 569 21 598 33 q 518 2 541 8 q 459 -11 485 -6 q 393 -17 433 -17 m 601 1137 l 446 880 l 292 880 l 138 1137 l 245 1137 l 371 963 l 495 1137 l 601 1137 "},"’":{"x_min":66,"x_max":336,"ha":293,"o":"m 336 1055 l 159 676 l 66 676 l 172 1055 l 336 1055 "},"Ν":{"x_min":102,"x_max":825,"ha":927,"o":"m 825 0 l 674 0 l 227 870 l 227 0 l 102 0 l 102 1010 l 292 1010 l 700 210 l 700 1010 l 825 1010 l 825 0 "},"ﻘ":{"x_min":-16,"x_max":716,"ha":700,"o":"m 716 0 l 589 0 q 461 18 524 0 q 347 61 398 36 q 235 17 290 34 q 104 0 180 0 l -16 0 l -16 128 l 106 128 q 193 135 159 128 q 234 144 226 143 q 213 157 229 147 q 177 189 198 167 q 137 245 155 212 q 120 322 120 279 q 182 496 120 426 q 343 566 244 566 q 503 496 437 566 q 569 323 569 427 q 552 245 569 281 q 513 188 535 210 q 478 156 492 165 q 458 143 464 146 q 510 133 471 138 q 586 128 549 128 l 716 128 l 716 0 m 400 232 q 440 271 424 251 q 456 322 456 291 q 424 400 456 365 q 343 436 393 436 q 264 401 296 436 q 233 322 233 367 q 251 273 233 296 q 289 233 269 249 q 326 206 311 214 q 345 195 340 197 q 366 206 351 198 q 400 232 381 215 m 303 695 l 203 695 l 203 795 l 303 795 l 303 695 m 484 695 l 384 695 l 384 795 l 484 795 l 484 695 "},"ﻇ":{"x_min":-14,"x_max":901,"ha":936,"o":"m 901 276 q 874 169 901 219 q 795 81 848 118 q 665 22 743 44 q 480 0 586 0 l -14 0 l -14 128 l 118 128 q 126 134 118 128 q 143 149 134 140 q 160 169 153 160 q 168 187 168 177 l 168 1055 l 281 1055 l 281 323 q 457 486 360 420 q 633 553 553 553 q 823 477 745 553 q 901 276 901 401 m 788 274 q 741 384 788 340 q 631 428 694 428 q 541 396 590 428 q 441 316 492 364 q 352 222 395 274 q 281 128 308 170 l 399 128 q 538 134 457 128 q 663 154 618 140 q 754 198 720 170 q 788 274 788 226 m 560 721 l 460 721 l 460 821 l 560 821 l 560 721 "},"":{"x_min":-177,"x_max":119,"ha":0,"o":"m 119 1394 q 95 1306 114 1344 q 27 1257 70 1257 q -34 1285 1 1257 q -83 1313 -70 1313 q -117 1257 -112 1313 l -177 1257 q -153 1344 -172 1305 q -85 1394 -127 1394 q -23 1366 -60 1394 q 25 1338 12 1338 q 59 1394 54 1338 l 119 1394 "},"Q":{"x_min":45,"x_max":941,"ha":983,"o":"m 941 -247 q 864 -261 904 -256 q 783 -266 823 -266 q 599 -202 670 -266 q 522 -21 528 -138 q 505 -21 513 -21 q 491 -21 497 -21 q 306 13 388 -21 q 165 116 224 48 q 76 281 107 183 q 45 504 45 380 q 76 728 45 631 q 166 893 108 824 q 307 996 224 961 q 491 1031 389 1031 q 676 995 594 1031 q 816 893 759 959 q 906 728 874 827 q 938 504 938 630 q 861 180 938 308 q 652 7 784 52 q 665 -60 655 -30 q 690 -108 675 -90 q 734 -139 708 -129 q 806 -149 760 -149 q 869 -140 833 -149 q 922 -125 906 -131 l 941 -125 l 941 -247 m 798 504 q 776 682 798 604 q 715 810 754 759 q 618 888 675 862 q 491 915 562 915 q 364 889 418 915 q 267 810 309 864 q 206 680 227 758 q 185 504 185 602 q 268 199 185 305 q 491 94 351 94 q 715 199 632 94 q 798 504 798 305 "},"ظ":{"x_min":-14,"x_max":901,"ha":936,"o":"m 901 276 q 874 169 901 219 q 795 81 848 118 q 665 22 743 44 q 480 0 586 0 l -14 0 l -14 128 l 118 128 q 126 134 118 128 q 143 149 134 140 q 160 169 153 160 q 168 187 168 177 l 168 1055 l 281 1055 l 281 323 q 457 486 360 420 q 633 553 553 553 q 823 477 745 553 q 901 276 901 401 m 788 274 q 741 384 788 340 q 631 428 694 428 q 541 396 590 428 q 441 316 492 364 q 352 222 395 274 q 281 128 308 170 l 399 128 q 538 134 457 128 q 663 154 618 140 q 754 198 720 170 q 788 274 788 226 m 560 721 l 460 721 l 460 821 l 560 821 l 560 721 "},"œ":{"x_min":39,"x_max":1226,"ha":1262,"o":"m 1102 464 q 1053 622 1099 570 q 917 674 1008 674 q 771 618 830 674 q 705 464 713 562 l 1102 464 m 581 378 q 527 597 581 525 q 376 669 474 669 q 223 594 276 669 q 171 378 171 519 q 224 162 171 236 q 376 89 277 89 q 527 161 473 89 q 581 378 581 234 m 951 93 q 1034 102 993 93 q 1106 127 1074 112 q 1165 157 1141 142 q 1204 185 1188 172 l 1212 185 l 1212 45 q 1156 23 1189 36 q 1096 3 1123 10 q 1029 -12 1059 -7 q 953 -18 999 -18 q 773 17 853 -18 q 646 120 694 53 q 534 15 600 51 q 376 -21 468 -21 q 129 86 219 -21 q 39 378 39 193 q 130 673 39 567 q 376 779 222 779 q 535 741 464 779 q 648 635 605 704 q 765 741 694 704 q 924 779 837 779 q 1148 688 1070 779 q 1226 435 1226 598 l 1226 366 l 705 366 q 770 163 705 234 q 951 93 836 93 "},"Ộ":{"x_min":45,"x_max":938,"ha":983,"o":"m 816 893 q 906 729 874 827 q 938 504 938 630 q 906 282 938 381 q 816 116 875 183 q 672 12 754 46 q 491 -21 590 -21 q 306 13 388 -21 q 165 116 224 48 q 76 282 107 183 q 45 504 45 380 q 76 728 45 632 q 166 893 108 824 q 307 996 224 961 q 491 1031 389 1031 q 676 995 594 1031 q 816 893 759 959 m 798 504 q 776 682 798 605 q 715 810 754 759 q 618 888 675 862 q 491 915 562 915 q 364 889 418 915 q 267 810 309 864 q 206 681 227 759 q 185 504 185 603 q 268 200 185 305 q 491 95 351 95 q 715 200 632 95 q 798 504 798 305 m 716 1133 l 608 1133 l 482 1306 l 358 1133 l 253 1133 l 407 1390 l 561 1390 l 716 1133 m 557 -259 l 412 -259 l 412 -127 l 557 -127 l 557 -259 "},"ك":{"x_min":62,"x_max":924,"ha":1007,"o":"m 924 307 q 854 78 924 156 q 666 0 784 0 l 317 0 q 220 8 267 0 q 138 38 172 16 q 82 103 102 61 q 62 209 62 144 q 64 261 62 236 q 68 292 67 285 l 182 292 l 182 285 q 178 261 181 279 q 175 211 175 242 q 213 146 175 164 q 318 128 252 128 l 669 128 q 737 144 709 128 q 781 187 766 161 q 803 244 796 212 q 811 315 811 277 l 811 1055 l 924 1055 l 924 307 m 627 499 q 558 407 627 441 q 381 373 490 373 l 381 437 q 511 451 459 437 q 564 492 564 465 q 550 512 564 504 q 513 527 537 520 l 461 540 q 403 570 425 548 q 382 630 382 593 q 429 707 382 677 q 566 737 476 737 l 566 676 q 472 664 502 676 q 442 632 442 652 q 455 611 442 620 q 493 596 469 602 l 550 581 q 603 556 580 574 q 627 499 627 538 "},"ﻑ":{"x_min":62,"x_max":1151,"ha":1209,"o":"m 1151 316 q 1105 157 1151 220 q 981 57 1060 93 q 797 7 904 23 q 559 -8 690 -8 q 185 80 309 -8 q 62 331 62 168 q 67 425 62 385 q 74 471 73 465 l 185 471 l 185 464 q 178 405 181 443 q 175 340 175 368 q 194 253 175 292 q 260 183 213 213 q 385 135 310 151 q 561 120 460 120 q 915 164 797 120 q 1034 304 1034 209 l 1034 312 q 989 295 1021 305 q 928 285 956 285 q 747 345 814 285 q 681 499 681 406 q 747 675 681 597 q 896 754 814 754 q 1081 635 1011 754 q 1151 316 1151 517 m 1025 439 q 1016 489 1025 458 q 991 553 1008 520 q 952 606 974 586 q 904 626 930 626 q 826 586 854 626 q 798 504 798 547 q 834 438 798 464 q 933 413 870 413 q 985 421 959 413 q 1025 439 1010 429 m 858 895 l 758 895 l 758 995 l 858 995 l 858 895 "},"ﮏ":{"x_min":62,"x_max":1358,"ha":1344,"o":"m 1358 0 l 1263 0 q 1159 19 1210 0 q 1074 73 1108 38 q 988 17 1040 35 q 869 0 937 0 l 555 0 q 184 88 306 0 q 62 340 62 176 q 68 429 62 393 q 76 475 74 466 l 193 475 l 193 468 q 182 414 189 453 q 175 348 175 376 q 194 261 175 300 q 259 191 213 221 q 375 144 305 161 q 555 128 445 128 l 867 128 q 981 156 944 128 q 1019 232 1019 184 q 982 303 1019 261 q 867 410 945 346 l 681 562 q 627 616 650 589 q 604 676 604 644 q 639 755 604 720 q 753 828 675 791 l 1189 1038 l 1189 905 l 809 722 q 760 696 788 712 q 733 671 733 681 q 758 638 733 660 q 816 589 784 615 l 997 440 q 1101 332 1070 379 q 1132 233 1132 285 q 1132 227 1132 231 q 1132 224 1132 224 q 1168 154 1132 180 q 1261 128 1204 128 l 1358 128 l 1358 0 m 1283 0 l 1283 0 "},"":{"x_min":-177,"x_max":119,"ha":0,"o":"m 119 1394 q 95 1306 114 1344 q 27 1257 70 1257 q -34 1285 1 1257 q -83 1313 -70 1313 q -117 1257 -112 1313 l -177 1257 q -153 1344 -172 1305 q -85 1394 -127 1394 q -23 1366 -60 1394 q 25 1338 12 1338 q 59 1394 54 1338 l 119 1394 "},"ạ":{"x_min":39,"x_max":642,"ha":729,"o":"m 514 186 l 514 397 q 399 385 468 392 q 287 365 330 378 q 204 318 237 350 q 171 228 171 285 q 207 130 171 163 q 314 97 243 97 q 422 122 374 97 q 514 186 471 148 m 514 80 q 472 48 498 69 q 421 15 446 27 q 356 -11 388 -2 q 268 -21 325 -21 q 179 -3 221 -21 q 105 46 137 14 q 57 123 75 77 q 39 219 39 169 q 72 354 39 298 q 177 441 105 409 q 327 482 240 471 q 514 499 413 493 l 514 523 q 500 595 514 567 q 462 637 486 622 q 403 657 438 652 q 330 663 368 663 q 227 649 286 663 q 108 612 167 636 l 101 612 l 101 741 q 202 763 136 751 q 332 776 267 776 q 463 763 410 776 q 559 719 517 751 q 621 638 601 688 q 642 518 642 589 l 642 0 l 514 0 l 514 80 m 432 -259 l 287 -259 l 287 -127 l 432 -127 l 432 -259 "},"д":{"x_min":5,"x_max":742,"ha":775,"o":"m 742 -182 l 623 -182 l 623 2 l 124 2 l 124 -182 l 5 -182 l 5 109 l 55 109 q 160 385 119 214 q 202 758 202 555 l 667 758 l 667 109 l 742 109 l 742 -182 m 539 109 l 539 651 l 322 651 q 275 341 313 481 q 180 109 237 201 l 539 109 "},"٧":{"x_min":31,"x_max":765,"ha":794,"o":"m 765 933 l 454 0 l 342 0 l 31 933 l 143 933 l 397 183 l 652 933 l 765 933 "},"۴":{"x_min":45,"x_max":724,"ha":794,"o":"m 570 744 q 652 752 613 744 q 717 776 690 760 l 724 776 l 724 645 q 650 628 705 637 q 539 619 595 619 q 421 635 490 619 q 322 672 351 651 l 354 619 q 420 465 402 538 q 439 290 439 391 l 439 0 l 326 0 l 326 290 q 300 461 326 390 q 228 612 274 531 l 45 933 l 165 933 l 171 923 q 281 810 205 863 q 449 744 357 756 q 408 779 424 755 q 393 827 393 803 q 435 923 393 885 q 552 962 477 962 q 629 952 594 962 q 674 941 664 943 l 674 855 l 669 855 q 618 872 652 862 q 550 883 583 883 q 492 864 512 883 q 473 821 473 846 q 500 766 473 788 q 570 744 528 744 "},"¯":{"x_min":-11,"x_max":769,"ha":758,"o":"m 769 1126 l -11 1126 l -11 1213 l 769 1213 l 769 1126 "},"ﻪ":{"x_min":56,"x_max":813,"ha":798,"o":"m 813 0 l 754 0 q 645 23 693 0 q 564 82 597 46 q 513 166 530 120 q 496 258 496 212 q 404 202 460 225 q 279 179 347 179 q 118 240 180 179 q 56 398 56 301 q 87 517 56 467 q 177 601 119 567 q 317 652 233 634 q 496 675 400 671 l 610 682 l 610 315 q 616 246 610 278 q 639 187 622 214 q 681 143 656 159 q 751 128 707 128 l 813 128 l 813 0 m 496 375 l 496 575 q 371 561 426 571 q 276 533 316 551 q 211 480 234 514 q 188 400 188 447 q 216 326 188 356 q 296 296 245 296 q 406 321 348 296 q 496 375 464 347 "},"ﱟ":{"x_min":1,"x_max":417,"ha":418,"o":"m 295 1227 q 383 1263 349 1227 q 417 1366 417 1299 q 415 1414 417 1400 q 413 1436 413 1429 l 349 1436 l 349 1431 q 351 1406 349 1423 q 353 1367 353 1390 q 337 1309 353 1328 q 294 1291 322 1291 q 256 1310 271 1291 q 241 1368 241 1329 l 241 1410 l 177 1410 l 177 1362 q 159 1284 177 1310 q 113 1259 142 1259 q 77 1272 89 1259 q 65 1310 65 1286 q 66 1346 65 1327 q 69 1373 68 1365 l 69 1378 l 4 1378 q 2 1348 3 1369 q 1 1309 1 1327 q 31 1224 1 1254 q 113 1195 61 1195 q 180 1218 153 1195 q 214 1267 208 1241 q 245 1238 223 1250 q 295 1227 267 1227 m 405 1120 l 17 1055 l 17 1123 l 405 1188 l 405 1120 m 405 983 l 17 918 l 17 986 l 405 1051 l 405 983 "},"כּ":{"x_min":41,"x_max":778,"ha":863,"o":"m 661 449 q 588 672 661 598 q 348 747 515 747 q 178 738 266 747 q 47 726 90 730 l 41 726 l 41 860 q 182 873 91 867 q 351 880 273 880 q 548 852 467 880 q 680 771 629 825 q 754 638 731 717 q 778 453 778 559 l 778 409 q 754 224 778 305 q 680 91 731 143 q 548 10 628 37 q 351 -17 469 -17 q 183 -10 280 -17 q 41 2 87 -4 l 41 137 l 47 137 q 181 123 100 131 q 348 116 263 116 q 587 190 514 116 q 661 413 661 265 l 661 449 m 366 444 q 353 411 366 424 q 320 399 340 399 q 287 411 300 399 q 275 444 275 424 q 287 477 275 464 q 320 490 300 490 q 353 477 340 490 q 366 444 366 464 "},"נ":{"x_min":34,"x_max":459,"ha":557,"o":"m 459 0 l 34 0 l 34 133 l 342 133 l 342 584 q 310 712 342 677 q 194 747 278 747 q 132 740 166 747 q 81 729 98 733 l 75 729 l 75 862 q 144 875 98 870 q 227 880 190 880 q 401 811 344 880 q 459 603 459 742 l 459 0 "},"З":{"x_min":21,"x_max":703,"ha":740,"o":"m 624 486 q 680 413 658 457 q 703 301 703 370 q 675 175 703 233 q 601 74 648 117 q 480 5 552 29 q 320 -18 408 -18 q 147 0 225 -18 q 21 39 68 19 l 21 190 l 30 190 q 162 126 84 154 q 317 99 239 99 q 416 112 367 99 q 498 155 465 125 q 547 219 531 184 q 563 307 563 254 q 544 394 563 358 q 492 451 525 429 q 412 481 458 472 q 313 491 366 491 l 208 491 l 208 604 l 300 604 q 472 646 407 604 q 538 771 538 689 q 522 835 538 809 q 476 879 506 862 q 409 904 444 898 q 333 911 374 911 q 247 901 289 911 q 168 876 205 891 q 106 846 132 862 q 62 821 79 831 l 54 821 l 54 969 q 179 1009 100 991 q 336 1028 259 1028 q 470 1014 414 1028 q 574 971 527 1001 q 650 893 625 938 q 676 785 676 848 q 621 642 676 703 q 478 562 566 581 l 478 552 q 551 530 511 546 q 624 486 591 515 "},"⅝":{"x_min":94,"x_max":1327,"ha":1389,"o":"m 538 587 q 520 500 538 541 q 472 429 503 459 q 393 383 439 400 q 288 366 347 366 q 185 375 235 366 q 94 402 134 384 l 94 510 l 104 510 q 179 478 129 496 q 281 460 228 460 q 338 468 311 460 q 385 494 365 476 q 413 536 405 514 q 421 585 421 559 q 410 633 421 614 q 380 666 400 653 q 329 686 360 680 q 263 692 299 692 q 187 687 223 692 q 125 678 150 682 l 125 1016 l 530 1016 l 530 922 l 231 922 l 231 781 q 261 783 244 782 q 287 784 277 784 q 384 776 344 784 q 459 745 424 769 q 517 683 497 720 q 538 587 538 645 m 1017 1010 l 487 0 l 376 0 l 905 1010 l 1017 1010 m 1327 169 q 1258 33 1327 88 q 1084 -21 1189 -21 q 905 32 970 -21 q 841 167 841 86 q 872 262 841 221 q 965 328 904 302 l 965 331 q 885 392 909 358 q 862 474 862 426 q 924 594 862 546 q 1085 642 987 642 q 1247 596 1186 642 q 1309 480 1309 550 q 1281 395 1309 437 q 1199 329 1254 352 l 1199 326 q 1296 263 1265 300 q 1327 169 1327 227 m 1198 468 q 1168 527 1198 503 q 1085 552 1139 552 q 1006 530 1038 552 q 975 472 975 509 q 991 426 975 447 q 1037 392 1007 405 q 1077 374 1053 383 q 1133 356 1102 364 q 1185 408 1172 381 q 1198 468 1198 435 m 1214 170 q 1195 224 1214 204 q 1131 264 1176 244 q 1086 281 1116 272 q 1028 300 1056 290 q 969 247 988 279 q 951 183 951 216 q 990 101 951 133 q 1085 69 1030 69 q 1177 95 1140 69 q 1214 170 1214 121 "},"ẻ":{"x_min":40,"x_max":694,"ha":731,"o":"m 421 -17 q 140 85 240 -17 q 40 374 40 187 q 136 669 40 560 q 390 779 233 779 q 515 758 460 779 q 609 694 569 738 q 672 588 650 651 q 694 435 694 526 l 694 366 l 170 366 q 236 163 170 233 q 419 94 302 94 q 502 103 461 94 q 575 128 542 113 q 633 158 609 143 q 672 186 656 173 l 680 186 l 680 46 q 624 24 657 37 q 564 4 591 11 q 497 -11 527 -6 q 421 -17 467 -17 m 570 464 q 557 552 568 515 q 526 615 546 590 q 469 659 504 644 q 383 674 434 674 q 296 658 332 674 q 232 614 261 643 q 188 548 203 584 q 170 464 174 512 l 570 464 m 493 1036 q 470 966 493 993 q 404 926 448 940 l 404 880 l 329 880 l 329 962 q 376 983 360 970 q 393 1023 393 996 q 380 1052 393 1039 q 345 1066 367 1066 q 311 1062 324 1066 q 283 1053 299 1059 l 281 1053 l 281 1124 q 318 1132 293 1128 q 369 1137 343 1137 q 458 1107 423 1137 q 493 1036 493 1078 "},"ữ":{"x_min":87,"x_max":909,"ha":842,"o":"m 682 0 l 554 0 l 554 84 q 442 5 495 32 q 324 -21 389 -21 q 231 -4 275 -21 q 155 46 187 11 q 104 135 122 82 q 87 266 87 189 l 87 758 l 215 758 l 215 326 q 219 225 215 265 q 239 156 223 186 q 281 113 254 127 q 358 100 308 100 q 457 126 404 100 q 554 191 510 153 l 554 758 l 695 758 q 781 780 756 758 q 807 850 807 802 q 799 905 807 874 q 784 951 792 936 l 784 958 l 892 958 q 905 902 901 926 q 909 844 909 878 q 850 710 909 755 q 683 666 792 666 l 682 666 l 682 0 m 656 1106 q 605 947 649 1000 q 489 895 561 895 q 424 907 453 895 q 365 947 394 920 q 314 990 335 975 q 271 1005 292 1004 q 224 974 238 1005 q 209 892 211 943 l 114 892 q 165 1049 118 996 q 280 1103 212 1103 q 343 1089 314 1103 q 402 1050 373 1076 q 454 1010 431 1024 q 497 997 478 997 q 544 1027 529 997 q 561 1106 558 1057 l 656 1106 "},"ה":{"x_min":102,"x_max":853,"ha":951,"o":"m 102 860 q 246 873 154 867 q 425 880 338 880 q 636 855 554 880 q 765 781 718 830 q 833 655 814 731 q 853 474 853 579 l 853 0 l 736 0 l 736 470 q 720 595 736 542 q 668 682 704 649 q 572 731 632 715 q 423 747 513 747 q 245 738 337 747 q 108 726 153 730 l 102 726 l 102 860 m 219 517 l 219 0 l 102 0 l 102 517 l 219 517 "},"ךּ":{"x_min":14,"x_max":765,"ha":863,"o":"m 14 860 q 158 873 66 867 q 337 880 250 880 q 548 855 466 880 q 677 781 630 830 q 745 655 726 731 q 765 474 765 579 l 765 -279 l 648 -279 l 648 470 q 632 595 648 542 q 580 682 616 649 q 484 731 544 715 q 335 747 425 747 q 157 738 249 747 q 20 726 65 730 l 14 726 l 14 860 m 364 444 q 351 411 364 424 q 318 399 338 399 q 285 411 298 399 q 273 444 273 424 q 285 477 273 464 q 318 490 298 490 q 351 477 338 490 q 364 444 364 464 "},"é":{"x_min":40,"x_max":694,"ha":731,"o":"m 421 -17 q 140 85 240 -17 q 40 374 40 187 q 136 669 40 560 q 390 779 233 779 q 515 758 460 779 q 609 694 569 738 q 672 588 650 651 q 694 435 694 526 l 694 366 l 170 366 q 236 163 170 233 q 419 94 302 94 q 502 103 461 94 q 575 128 542 113 q 633 158 609 143 q 672 186 656 173 l 680 186 l 680 46 q 624 24 657 37 q 564 4 591 11 q 497 -11 527 -6 q 421 -17 467 -17 m 570 464 q 557 552 568 515 q 526 615 546 590 q 469 659 504 644 q 383 674 434 674 q 296 658 332 674 q 232 614 261 643 q 188 548 203 584 q 170 464 174 512 l 570 464 m 603 1137 l 417 883 l 317 883 l 438 1137 l 603 1137 "},"Ş":{"x_min":53,"x_max":739,"ha":774,"o":"m 384 -18 q 197 4 274 -18 q 53 59 120 26 l 53 228 l 62 228 q 212 132 128 166 q 374 98 296 98 q 542 144 485 98 q 599 266 599 190 q 569 364 599 326 q 474 420 539 402 q 389 443 427 434 q 292 467 350 452 q 198 501 240 480 q 125 556 157 522 q 77 634 94 589 q 60 739 60 680 q 155 944 60 861 q 399 1028 251 1028 q 560 1011 484 1028 q 700 962 635 994 l 700 802 l 689 802 q 566 879 641 846 q 408 912 491 912 q 257 868 315 912 q 200 753 200 824 q 233 650 200 688 q 331 595 267 612 q 436 569 374 583 q 538 542 497 554 q 690 445 642 510 q 739 287 739 381 q 714 170 739 228 q 647 72 690 112 q 593 32 621 49 q 530 4 566 16 q 532 -23 531 -6 q 534 -60 534 -40 q 474 -227 534 -169 q 324 -286 414 -286 q 265 -281 299 -286 q 204 -269 231 -277 l 204 -161 l 210 -161 q 252 -176 226 -168 q 306 -184 279 -184 q 400 -157 370 -184 q 430 -72 430 -130 q 429 -46 430 -60 q 428 -15 429 -32 q 407 -17 417 -16 q 384 -18 397 -18 "},"ﺓ":{"x_min":62,"x_max":591,"ha":654,"o":"m 591 273 q 516 66 591 141 q 320 -8 442 -8 q 136 71 211 -8 q 62 272 62 151 q 101 410 62 352 q 239 528 141 469 l 285 556 l 193 659 l 350 659 l 512 476 q 569 386 548 436 q 591 273 591 336 m 428 156 q 465 203 451 176 q 479 273 479 229 q 441 367 479 312 q 364 468 404 423 l 349 484 l 304 456 q 211 378 247 421 q 175 273 175 335 q 218 166 175 213 q 320 120 262 120 q 378 129 347 120 q 428 156 408 138 m 254 811 l 154 811 l 154 911 l 254 911 l 254 811 m 435 811 l 335 811 l 335 911 l 435 911 l 435 811 "},"Ủ":{"x_min":90,"x_max":821,"ha":911,"o":"m 455 -21 q 299 2 366 -21 q 186 71 233 25 q 111 198 133 124 q 90 379 90 272 l 90 1010 l 224 1010 l 224 380 q 232 262 224 310 q 267 176 241 214 q 341 115 294 136 q 455 94 387 94 q 567 115 518 94 q 643 176 616 136 q 677 262 668 215 q 687 376 687 308 l 687 1010 l 821 1010 l 821 379 q 799 199 821 274 q 724 71 778 124 q 612 2 676 25 q 455 -21 548 -21 m 575 1289 q 552 1219 575 1246 q 486 1179 530 1193 l 486 1133 l 411 1133 l 411 1215 q 458 1236 442 1223 q 475 1276 475 1249 q 462 1305 475 1292 q 427 1319 449 1319 q 393 1315 406 1319 q 365 1306 381 1312 l 363 1306 l 363 1377 q 400 1385 375 1381 q 451 1390 425 1390 q 540 1360 505 1390 q 575 1289 575 1331 "},"H":{"x_min":102,"x_max":836,"ha":938,"o":"m 836 0 l 702 0 l 702 495 l 236 495 l 236 0 l 102 0 l 102 1010 l 236 1010 l 236 614 l 702 614 l 702 1010 l 836 1010 l 836 0 "},"î":{"x_min":-37,"x_max":354,"ha":317,"o":"m 223 0 l 95 0 l 95 758 l 223 758 l 223 0 m 354 880 l 251 880 l 156 1058 l 62 880 l -37 880 l 81 1137 l 235 1137 l 354 880 "},"ﺗ":{"x_min":-16,"x_max":298,"ha":389,"o":"m 298 307 q 229 81 298 162 q 40 0 161 0 l -16 0 l -16 128 l 44 128 q 149 177 113 128 q 185 315 185 226 l 185 486 l 298 486 l 298 307 m 104 658 l 4 658 l 4 758 l 104 758 l 104 658 m 285 658 l 185 658 l 185 758 l 285 758 l 285 658 "},"ﭽ":{"x_min":-16,"x_max":960,"ha":945,"o":"m 538 146 q 258 40 388 81 q 56 0 128 0 l -16 0 l -16 128 l 59 128 q 324 185 154 128 q 616 306 494 243 q 428 387 557 347 q 164 428 300 428 l 85 428 l 85 553 l 171 553 q 445 505 296 553 q 733 370 593 457 l 869 440 l 869 312 q 764 254 822 284 q 643 194 706 223 q 688 146 658 164 q 772 128 718 128 l 960 128 l 960 0 l 774 0 q 618 35 680 0 q 538 146 557 71 m 916 0 l 916 0 m 369 -145 l 269 -145 l 269 -45 l 369 -45 l 369 -145 m 569 -145 l 469 -145 l 469 -45 l 569 -45 l 569 -145 m 469 -286 l 369 -286 l 369 -186 l 469 -186 l 469 -286 "},"٠":{"x_min":228,"x_max":574,"ha":794,"o":"m 574 446 l 403 275 l 228 449 l 400 620 l 574 446 "},"†":{"x_min":91,"x_max":667,"ha":758,"o":"m 667 702 l 420 705 l 424 92 l 334 92 l 337 705 l 91 702 l 91 789 l 337 785 l 334 1055 l 424 1055 l 420 785 l 667 789 l 667 702 "},"°":{"x_min":69,"x_max":586,"ha":654,"o":"m 586 770 q 511 587 586 662 q 327 513 436 513 q 144 586 219 513 q 69 770 69 660 q 143 953 69 878 q 327 1028 218 1028 q 511 953 436 1028 q 586 770 586 878 m 480 770 q 436 880 480 835 q 327 925 392 925 q 218 880 262 925 q 175 770 175 835 q 219 660 175 704 q 327 616 264 616 q 436 661 392 616 q 480 770 480 706 "},"Ξ":{"x_min":45,"x_max":742,"ha":787,"o":"m 742 891 l 45 891 l 45 1010 l 742 1010 l 742 891 m 708 495 l 79 495 l 79 614 l 708 614 l 708 495 m 742 0 l 45 0 l 45 119 l 742 119 l 742 0 "},"ﺂ":{"x_min":-4,"x_max":427,"ha":411,"o":"m 427 0 l 368 0 q 176 85 242 0 q 111 307 111 170 l 111 1055 l 224 1055 l 224 315 q 230 246 224 278 q 253 187 236 214 q 295 143 270 159 q 365 128 321 128 l 427 128 l 427 0 m 335 0 l 335 0 m 351 1174 q 312 1150 338 1163 q 251 1137 285 1137 q 173 1158 224 1137 q 95 1179 121 1179 q 42 1162 73 1179 q -4 1136 10 1145 l -4 1205 q 38 1228 7 1214 q 95 1243 69 1243 q 172 1222 119 1243 q 251 1201 225 1201 q 311 1216 280 1201 q 351 1240 342 1232 l 351 1174 "},"ồ":{"x_min":-61,"x_max":715,"ha":754,"o":"m 715 378 q 622 83 715 187 q 377 -21 530 -21 q 129 86 219 -21 q 39 378 39 194 q 132 673 39 568 q 377 779 225 779 q 622 674 530 779 q 715 378 715 569 m 583 378 q 529 597 583 525 q 377 669 476 669 q 224 597 278 669 q 171 378 171 525 q 224 162 171 236 q 377 89 278 89 q 529 161 475 89 q 583 378 583 233 m 610 880 l 502 880 l 376 1053 l 252 880 l 147 880 l 301 1137 l 455 1137 l 610 880 m 174 957 l 86 957 l -61 1137 l 90 1137 l 174 957 "},"ﺩ":{"x_min":62,"x_max":582,"ha":650,"o":"m 437 450 q 543 330 505 388 q 582 219 582 272 q 566 139 582 180 q 520 68 550 97 q 434 17 484 35 q 319 0 384 0 l 62 0 l 62 128 l 317 128 q 428 152 388 128 q 469 218 469 177 q 443 281 469 247 q 376 353 417 316 q 286 425 334 390 q 176 502 238 460 l 176 648 l 182 648 q 308 556 228 615 q 437 450 387 497 "},"ŵ":{"x_min":20,"x_max":1011,"ha":1031,"o":"m 1011 758 l 818 0 l 700 0 l 515 584 l 331 0 l 214 0 l 20 758 l 153 758 l 286 171 l 466 758 l 571 758 l 756 171 l 883 758 l 1011 758 m 751 880 l 643 880 l 517 1053 l 393 880 l 288 880 l 442 1137 l 596 1137 l 751 880 "},"΄":{"x_min":297,"x_max":462,"ha":758,"o":"m 462 1136 l 428 876 l 330 876 l 297 1136 l 462 1136 "},"ڤ":{"x_min":62,"x_max":1151,"ha":1209,"o":"m 1151 316 q 1105 157 1151 220 q 981 57 1060 93 q 797 7 904 23 q 559 -8 690 -8 q 185 80 309 -8 q 62 331 62 168 q 67 425 62 385 q 74 471 73 465 l 185 471 l 185 464 q 178 405 181 443 q 175 340 175 368 q 194 253 175 292 q 260 183 213 213 q 385 135 310 151 q 561 120 460 120 q 915 164 797 120 q 1034 304 1034 209 l 1034 312 q 989 295 1021 305 q 928 285 956 285 q 747 345 814 285 q 681 499 681 406 q 747 675 681 597 q 896 754 814 754 q 1081 635 1011 754 q 1151 316 1151 517 m 1025 439 q 1016 489 1025 458 q 991 553 1008 520 q 952 606 974 586 q 904 626 930 626 q 826 586 854 626 q 798 504 798 547 q 834 438 798 464 q 933 413 870 413 q 985 421 959 413 q 1025 439 1010 429 m 775 869 l 675 869 l 675 969 l 775 969 l 775 869 m 975 869 l 875 869 l 875 969 l 975 969 l 975 869 m 875 1010 l 775 1010 l 775 1110 l 875 1110 l 875 1010 "},"№":{"x_min":102,"x_max":1493,"ha":1584,"o":"m 795 0 l 644 0 l 227 870 l 227 0 l 102 0 l 102 1010 l 292 1010 l 670 210 l 670 1010 l 795 1010 l 795 0 m 1493 698 q 1413 455 1493 544 q 1208 366 1334 366 q 1000 455 1077 366 q 923 698 923 544 q 1002 943 923 856 q 1208 1031 1081 1031 q 1414 943 1335 1031 q 1493 698 1493 856 m 1404 119 l 1012 119 l 1012 229 l 1404 229 l 1404 119 m 1371 698 q 1327 873 1371 817 q 1208 929 1283 929 q 1089 873 1133 929 q 1045 698 1045 817 q 1088 525 1045 583 q 1208 468 1131 468 q 1327 525 1284 468 q 1371 698 1371 583 "},"ί":{"x_min":77,"x_max":242,"ha":317,"o":"m 223 0 l 95 0 l 95 758 l 223 758 l 223 0 m 242 1136 l 208 876 l 110 876 l 77 1136 l 242 1136 "},"ť":{"x_min":14,"x_max":694,"ha":650,"o":"m 321 -15 q 158 44 216 -15 q 100 231 100 103 l 100 652 l 14 652 l 14 758 l 100 758 l 100 976 l 228 976 l 228 758 l 425 758 l 425 652 l 228 652 l 228 291 q 230 202 228 233 q 245 143 232 170 q 282 107 257 119 q 352 96 308 96 q 412 105 383 96 q 454 120 441 114 l 462 120 l 462 6 q 389 -9 426 -3 q 321 -15 352 -15 m 694 1055 l 531 713 l 445 713 l 541 1055 l 694 1055 "},"5":{"x_min":84,"x_max":686,"ha":758,"o":"m 686 321 q 662 185 686 248 q 597 78 639 123 q 490 5 554 31 q 348 -21 427 -21 q 205 -5 276 -21 q 84 36 135 10 l 84 180 l 93 180 q 138 153 109 168 q 202 126 167 139 q 275 103 242 111 q 350 96 309 96 q 429 110 391 96 q 496 157 468 125 q 534 227 521 187 q 548 321 548 267 q 533 410 548 375 q 490 467 518 444 q 419 503 461 492 q 324 514 376 514 q 213 505 269 514 q 125 490 158 497 l 125 1010 l 680 1010 l 680 891 l 255 891 l 255 622 q 303 626 279 625 q 346 628 327 628 q 478 615 424 628 q 581 564 532 602 q 659 469 632 526 q 686 321 686 413 "},"Ѕ":{"x_min":53,"x_max":739,"ha":774,"o":"m 384 -18 q 197 4 274 -18 q 53 60 120 27 l 53 229 l 62 229 q 212 132 128 166 q 374 98 296 98 q 542 144 485 98 q 599 266 599 190 q 569 365 599 327 q 474 421 539 402 q 389 443 427 434 q 292 467 350 452 q 198 501 240 480 q 125 556 157 522 q 77 635 94 590 q 60 739 60 680 q 155 944 60 861 q 399 1028 251 1028 q 560 1011 484 1028 q 700 962 635 994 l 700 802 l 689 802 q 566 879 641 846 q 408 912 491 912 q 257 868 315 912 q 200 753 200 824 q 233 651 200 689 q 331 595 267 613 q 436 569 374 583 q 538 542 497 554 q 690 446 642 510 q 739 287 739 381 q 714 171 739 228 q 647 73 690 113 q 537 5 598 29 q 384 -18 476 -18 "},"□":{"x_min":99,"x_max":739,"ha":839,"o":"m 99 640 l 739 640 l 739 0 l 99 0 l 99 640 m 151 588 l 151 52 l 687 52 l 687 588 l 151 588 "},",":{"x_min":50,"x_max":339,"ha":421,"o":"m 339 193 l 149 -251 l 50 -251 l 169 193 l 339 193 "},"\"":{"x_min":77,"x_max":480,"ha":558,"o":"m 480 1055 l 450 662 l 361 662 l 332 1055 l 480 1055 m 225 1055 l 195 662 l 106 662 l 77 1055 l 225 1055 "},"ר":{"x_min":20,"x_max":693,"ha":791,"o":"m 693 0 l 576 0 l 576 470 q 560 596 576 543 q 508 682 545 649 q 412 731 472 715 q 263 747 353 747 q 145 741 201 747 q 26 726 88 736 l 20 726 l 20 860 q 127 874 75 869 q 265 880 180 880 q 478 855 397 880 q 606 781 558 830 q 673 655 654 732 q 693 474 693 578 l 693 0 "},"ė":{"x_min":40,"x_max":694,"ha":731,"o":"m 421 -17 q 140 85 240 -17 q 40 374 40 187 q 136 669 40 560 q 390 779 233 779 q 515 758 460 779 q 609 694 569 738 q 672 588 650 651 q 694 435 694 526 l 694 366 l 170 366 q 236 163 170 233 q 419 94 302 94 q 502 103 461 94 q 575 128 542 113 q 633 158 609 143 q 672 186 656 173 l 680 186 l 680 46 q 624 24 657 37 q 564 4 591 11 q 497 -11 527 -6 q 421 -17 467 -17 m 570 464 q 557 552 568 515 q 526 615 546 590 q 469 659 504 644 q 383 674 434 674 q 296 658 332 674 q 232 614 261 643 q 188 548 203 584 q 170 464 174 512 l 570 464 m 465 884 l 320 884 l 320 1016 l 465 1016 l 465 884 "},"":{"x_min":-268,"x_max":-46,"ha":0,"o":"m -46 1243 l -133 1243 l -268 1390 l -117 1390 l -46 1243 "},"ề":{"x_min":-51,"x_max":694,"ha":731,"o":"m 421 -17 q 140 85 240 -17 q 40 374 40 187 q 136 669 40 560 q 390 779 233 779 q 515 758 460 779 q 609 694 569 738 q 672 588 650 651 q 694 435 694 526 l 694 366 l 170 366 q 236 163 170 233 q 419 94 302 94 q 502 103 461 94 q 575 128 542 113 q 633 158 609 143 q 672 186 656 173 l 680 186 l 680 46 q 624 24 657 37 q 564 4 591 11 q 497 -11 527 -6 q 421 -17 467 -17 m 570 464 q 557 552 568 515 q 526 615 546 590 q 469 659 504 644 q 383 674 434 674 q 296 658 332 674 q 232 614 261 643 q 188 548 203 584 q 170 464 174 512 l 570 464 m 620 880 l 512 880 l 386 1053 l 262 880 l 157 880 l 311 1137 l 465 1137 l 620 880 m 184 957 l 96 957 l -51 1137 l 100 1137 l 184 957 "},"ﻊ":{"x_min":62,"x_max":828,"ha":814,"o":"m 758 -220 q 617 -269 707 -250 q 448 -288 526 -288 q 169 -201 277 -288 q 62 28 62 -114 q 77 114 62 72 q 123 189 92 155 q 187 243 150 220 q 261 281 224 265 l 235 304 q 135 414 162 369 q 108 501 108 460 q 134 572 108 542 q 200 622 160 602 q 289 652 237 641 q 380 663 340 663 q 470 653 422 663 q 558 624 517 643 q 626 573 600 603 q 653 498 653 542 q 631 410 653 449 q 581 344 610 372 q 515 297 551 317 q 450 264 478 277 l 429 255 l 461 227 q 564 155 509 183 q 690 128 618 128 l 828 128 l 828 0 l 687 0 q 605 13 644 0 q 527 50 566 26 q 454 105 492 72 q 381 169 416 137 l 336 210 q 219 133 264 177 q 175 28 175 89 q 247 -110 175 -57 q 446 -163 320 -163 q 614 -136 524 -163 q 751 -76 705 -109 l 758 -76 l 758 -220 m 538 469 q 501 515 538 498 q 380 533 465 533 q 260 515 298 533 q 223 471 223 497 q 254 420 223 454 q 325 350 285 386 l 355 323 l 371 328 q 499 397 461 366 q 538 469 538 429 "},"Í":{"x_min":63,"x_max":455,"ha":518,"o":"m 455 0 l 63 0 l 63 103 l 192 103 l 192 907 l 63 907 l 63 1010 l 455 1010 l 455 907 l 326 907 l 326 103 l 455 103 l 455 0 m 445 1390 l 259 1136 l 159 1136 l 280 1390 l 445 1390 "},"Ú":{"x_min":90,"x_max":821,"ha":911,"o":"m 455 -21 q 299 2 366 -21 q 186 71 233 25 q 111 198 133 124 q 90 379 90 272 l 90 1010 l 224 1010 l 224 380 q 232 262 224 310 q 267 176 241 214 q 341 115 294 136 q 455 94 387 94 q 567 115 518 94 q 643 176 616 136 q 677 262 668 215 q 687 376 687 308 l 687 1010 l 821 1010 l 821 379 q 799 199 821 274 q 724 71 778 124 q 612 2 676 25 q 455 -21 548 -21 m 676 1390 l 490 1136 l 390 1136 l 511 1390 l 676 1390 "},"چ":{"x_min":54,"x_max":760,"ha":846,"o":"m 760 381 l 739 381 q 499 364 601 381 q 319 309 397 347 q 207 214 247 274 q 167 75 167 155 q 244 -97 167 -31 q 444 -163 322 -163 q 610 -141 536 -163 q 739 -85 684 -120 l 746 -85 l 746 -221 q 620 -269 686 -251 q 445 -288 554 -288 q 163 -188 272 -288 q 54 76 54 -89 q 92 227 54 154 q 213 355 130 299 q 368 425 281 401 q 540 455 455 450 q 379 509 457 494 q 190 524 300 524 l 139 524 l 139 649 l 198 649 q 448 605 308 649 q 710 486 588 561 l 760 486 l 760 381 m 429 87 l 329 87 l 329 187 l 429 187 l 429 87 m 629 87 l 529 87 l 529 187 l 629 187 l 629 87 m 529 -54 l 429 -54 l 429 46 l 529 46 l 529 -54 "},"Ý":{"x_min":-7,"x_max":809,"ha":800,"o":"m 809 1010 l 468 447 l 468 0 l 334 0 l 334 432 l -7 1010 l 141 1010 l 401 564 l 666 1010 l 809 1010 m 604 1390 l 418 1136 l 318 1136 l 439 1390 l 604 1390 "},"ﺈ":{"x_min":111,"x_max":427,"ha":411,"o":"m 427 0 l 368 0 q 176 85 242 0 q 111 307 111 170 l 111 1055 l 224 1055 l 224 315 q 230 246 224 278 q 253 187 236 214 q 295 143 270 159 q 365 128 321 128 l 427 128 l 427 0 m 335 0 l 335 0 m 348 -286 l 120 -286 l 120 -222 l 170 -222 q 143 -193 154 -213 q 133 -153 133 -174 q 164 -77 133 -109 q 250 -45 196 -45 q 303 -49 286 -45 q 328 -56 321 -53 l 328 -125 l 323 -125 q 291 -114 314 -120 q 252 -109 269 -109 q 207 -121 222 -109 q 193 -153 193 -133 q 224 -202 193 -183 q 297 -222 255 -222 l 348 -222 l 348 -286 "},"ã":{"x_min":39,"x_max":642,"ha":729,"o":"m 514 186 l 514 397 q 399 385 468 392 q 287 365 330 378 q 204 318 237 350 q 171 228 171 285 q 207 130 171 163 q 314 97 243 97 q 422 122 374 97 q 514 186 471 148 m 514 80 q 472 48 498 69 q 421 15 446 27 q 356 -11 388 -2 q 268 -21 325 -21 q 179 -3 221 -21 q 105 46 137 14 q 57 123 75 77 q 39 219 39 169 q 72 354 39 298 q 177 441 105 409 q 327 482 240 471 q 514 499 413 493 l 514 523 q 500 595 514 567 q 462 637 486 622 q 403 657 438 652 q 330 663 368 663 q 227 649 286 663 q 108 612 167 636 l 101 612 l 101 741 q 202 763 136 751 q 332 776 267 776 q 463 763 410 776 q 559 719 517 751 q 621 638 601 688 q 642 518 642 589 l 642 0 l 514 0 l 514 80 m 632 1106 q 581 947 625 1000 q 465 895 537 895 q 400 907 429 895 q 341 947 370 920 q 290 990 311 975 q 247 1005 268 1004 q 200 974 214 1005 q 185 892 187 943 l 90 892 q 141 1049 94 996 q 256 1103 188 1103 q 319 1089 290 1103 q 378 1050 349 1076 q 430 1010 407 1024 q 473 997 454 997 q 520 1027 505 997 q 537 1106 534 1057 l 632 1106 "},"ĩ":{"x_min":-37,"x_max":357,"ha":317,"o":"m 223 0 l 95 0 l 95 758 l 223 758 l 223 0 m 357 1083 q 323 951 357 995 q 236 907 290 907 q 189 915 209 907 q 149 946 169 924 q 112 981 127 969 q 81 993 96 993 q 46 969 57 993 q 35 902 35 946 l -37 902 q -3 1033 -37 988 q 82 1078 29 1078 q 131 1068 114 1078 q 170 1038 148 1059 q 208 1003 193 1015 q 238 992 223 992 q 273 1016 262 992 q 285 1083 285 1040 l 357 1083 "},"ŀ":{"x_min":95,"x_max":547,"ha":619,"o":"m 223 0 l 95 0 l 95 1055 l 223 1055 l 223 0 m 547 352 l 390 352 l 390 532 l 547 532 l 547 352 "},"ﻣ":{"x_min":-16,"x_max":639,"ha":708,"o":"m 639 229 q 576 57 639 125 q 417 -11 513 -11 q 301 16 358 -11 q 206 95 244 44 q 125 23 172 47 q 6 0 79 0 l -16 0 l -16 128 l 9 128 q 111 169 76 128 q 150 287 145 211 q 213 457 155 390 q 367 524 272 524 q 468 503 419 524 q 555 444 516 483 q 616 350 594 405 q 639 229 639 295 m 526 222 q 518 277 526 247 q 492 335 510 307 q 447 378 473 361 q 382 395 421 395 q 324 384 346 395 q 287 354 302 373 q 269 316 275 339 q 263 270 263 293 q 272 217 263 243 q 300 166 281 190 q 346 128 320 143 q 409 114 372 114 q 495 145 464 114 q 526 222 526 177 "},"ẅ":{"x_min":20,"x_max":1011,"ha":1031,"o":"m 1011 758 l 818 0 l 700 0 l 515 584 l 331 0 l 214 0 l 20 758 l 153 758 l 286 171 l 466 758 l 571 758 l 756 171 l 883 758 l 1011 758 m 726 884 l 590 884 l 590 1016 l 726 1016 l 726 884 m 446 884 l 310 884 l 310 1016 l 446 1016 l 446 884 "},"ậ":{"x_min":39,"x_max":642,"ha":729,"o":"m 514 186 l 514 397 q 399 385 468 392 q 287 365 330 378 q 204 318 237 350 q 171 228 171 285 q 207 130 171 163 q 314 97 243 97 q 422 122 374 97 q 514 186 471 148 m 514 80 q 472 48 498 69 q 421 15 446 27 q 356 -11 388 -2 q 268 -21 325 -21 q 179 -3 221 -21 q 105 46 137 14 q 57 123 75 77 q 39 219 39 169 q 72 354 39 298 q 177 441 105 409 q 327 482 240 471 q 514 499 413 493 l 514 523 q 500 595 514 567 q 462 637 486 622 q 403 657 438 652 q 330 663 368 663 q 227 649 286 663 q 108 612 167 636 l 101 612 l 101 741 q 202 763 136 751 q 332 776 267 776 q 463 763 410 776 q 559 719 517 751 q 621 638 601 688 q 642 518 642 589 l 642 0 l 514 0 l 514 80 m 593 880 l 485 880 l 359 1053 l 235 880 l 130 880 l 284 1137 l 438 1137 l 593 880 m 432 -259 l 287 -259 l 287 -127 l 432 -127 l 432 -259 "},"ﭘ":{"x_min":-16,"x_max":298,"ha":389,"o":"m 298 307 q 229 81 298 162 q 40 0 161 0 l -16 0 l -16 128 l 44 128 q 149 177 113 128 q 185 315 185 226 l 185 486 l 298 486 l 298 307 m 85 -145 l -15 -145 l -15 -45 l 85 -45 l 85 -145 m 285 -145 l 185 -145 l 185 -45 l 285 -45 l 285 -145 m 185 -286 l 85 -286 l 85 -186 l 185 -186 l 185 -286 "},"К":{"x_min":102,"x_max":849,"ha":837,"o":"m 849 0 l 677 0 l 320 463 l 236 463 l 236 0 l 102 0 l 102 1010 l 236 1010 l 236 555 q 361 595 315 557 q 437 702 408 632 q 459 760 449 732 q 475 806 469 787 q 578 966 515 922 q 754 1010 642 1010 l 796 1010 l 796 891 l 762 891 q 645 858 679 891 q 584 736 612 825 q 522 604 557 646 q 438 531 487 563 l 849 0 "},"%":{"x_min":69,"x_max":1286,"ha":1356,"o":"m 547 729 q 485 503 547 577 q 308 430 424 430 q 129 504 190 430 q 69 729 69 579 q 130 955 69 881 q 308 1029 192 1029 q 486 954 426 1029 q 547 729 547 879 m 999 1010 l 469 0 l 358 0 l 887 1010 l 999 1010 m 1286 279 q 1224 53 1286 127 q 1047 -20 1163 -20 q 868 54 929 -20 q 808 279 808 129 q 869 505 808 431 q 1047 579 931 579 q 1225 504 1165 579 q 1286 279 1286 429 m 426 729 q 401 886 426 833 q 308 939 377 939 q 214 885 238 939 q 190 729 190 831 q 212 573 190 627 q 308 520 235 520 q 401 573 377 520 q 426 729 426 627 m 1165 279 q 1140 436 1165 383 q 1047 489 1116 489 q 953 435 977 489 q 929 279 929 381 q 951 123 929 177 q 1047 70 974 70 q 1140 123 1116 70 q 1165 279 1165 177 "},"ج":{"x_min":54,"x_max":760,"ha":846,"o":"m 760 381 l 739 381 q 499 364 601 381 q 319 309 397 347 q 207 214 247 274 q 167 75 167 155 q 244 -97 167 -31 q 444 -163 322 -163 q 610 -141 536 -163 q 739 -85 684 -120 l 746 -85 l 746 -221 q 620 -269 686 -251 q 445 -288 554 -288 q 163 -188 272 -288 q 54 76 54 -89 q 92 227 54 154 q 213 355 130 299 q 368 425 281 401 q 540 455 455 450 q 379 509 457 494 q 190 524 300 524 l 139 524 l 139 649 l 198 649 q 448 605 308 649 q 710 486 588 561 l 760 486 l 760 381 m 514 45 l 414 45 l 414 145 l 514 145 l 514 45 "},"⅞":{"x_min":104,"x_max":1291,"ha":1389,"o":"m 572 922 l 253 383 l 128 383 l 464 922 l 104 922 l 104 1016 l 572 1016 l 572 922 m 952 1010 l 422 0 l 311 0 l 840 1010 l 952 1010 m 1291 169 q 1222 33 1291 88 q 1048 -21 1153 -21 q 869 32 934 -21 q 805 167 805 86 q 836 262 805 221 q 929 328 868 302 l 929 331 q 849 392 873 358 q 826 474 826 426 q 888 594 826 546 q 1049 642 951 642 q 1211 596 1150 642 q 1273 480 1273 550 q 1245 395 1273 437 q 1163 329 1218 352 l 1163 326 q 1260 263 1229 300 q 1291 169 1291 227 m 1162 468 q 1132 527 1162 503 q 1049 552 1103 552 q 970 530 1002 552 q 939 472 939 509 q 955 426 939 447 q 1001 392 971 405 q 1041 374 1017 383 q 1097 356 1066 364 q 1149 408 1136 381 q 1162 468 1162 435 m 1178 170 q 1159 224 1178 204 q 1095 264 1140 244 q 1050 281 1080 272 q 992 300 1020 290 q 933 247 952 279 q 915 183 915 216 q 954 101 915 133 q 1049 69 994 69 q 1141 95 1104 69 q 1178 170 1178 121 "},"Æ":{"x_min":-26,"x_max":1222,"ha":1268,"o":"m 1222 0 l 604 0 l 604 377 l 260 377 l 114 0 l -26 0 l 382 1010 l 1222 1010 l 1222 891 l 738 891 l 738 614 l 1188 614 l 1188 495 l 738 495 l 738 119 l 1222 119 l 1222 0 m 604 490 l 604 898 l 471 898 l 305 490 l 604 490 "},"₣":{"x_min":23,"x_max":707,"ha":758,"o":"m 707 891 l 278 891 l 278 605 l 687 605 l 687 486 l 278 486 l 278 303 l 493 303 l 493 209 l 278 209 l 278 0 l 144 0 l 144 209 l 23 209 l 23 303 l 144 303 l 144 1010 l 707 1010 l 707 891 "},"Ą":{"x_min":-7,"x_max":952,"ha":833,"o":"m 709 -232 q 654 -79 654 -181 q 663 -5 654 -40 q 680 52 673 29 l 606 282 l 220 282 l 129 0 l -7 0 l 333 1010 l 499 1010 l 840 0 l 773 0 q 766 -32 769 -19 q 763 -72 763 -46 q 785 -154 763 -127 q 866 -182 807 -182 q 911 -175 889 -182 q 945 -162 933 -169 l 952 -162 l 952 -268 q 900 -279 927 -275 q 849 -283 872 -283 q 709 -232 765 -283 m 568 397 l 413 871 l 258 397 l 568 397 "},"Њ":{"x_min":102,"x_max":1341,"ha":1367,"o":"m 1341 312 q 1312 179 1341 239 q 1235 82 1284 120 q 1113 19 1178 38 q 945 0 1048 0 l 667 0 l 667 498 l 236 498 l 236 0 l 102 0 l 102 1010 l 236 1010 l 236 614 l 667 614 l 667 1010 l 801 1010 l 801 614 l 949 614 q 1117 602 1052 614 q 1240 545 1182 590 q 1316 446 1292 505 q 1341 312 1341 387 m 1201 310 q 1184 399 1201 361 q 1131 462 1167 438 q 1045 492 1094 487 q 907 498 996 498 l 801 498 l 801 115 l 904 115 q 1043 123 994 115 q 1128 157 1091 132 q 1183 219 1166 184 q 1201 310 1201 255 "},"ћ":{"x_min":8,"x_max":716,"ha":803,"o":"m 716 0 l 588 0 l 588 431 q 582 529 588 484 q 563 601 577 574 q 520 644 548 630 q 444 658 492 658 q 347 632 397 658 q 249 566 296 607 l 249 0 l 121 0 l 121 861 l 8 861 l 8 951 l 121 951 l 121 1055 l 249 1055 l 249 951 l 500 951 l 500 861 l 249 861 l 249 673 q 361 751 305 724 q 478 779 416 779 q 572 762 529 779 q 647 711 615 746 q 697 622 679 677 q 716 491 716 567 l 716 0 "},"<":{"x_min":136,"x_max":864,"ha":1011,"o":"m 864 54 l 136 401 l 136 483 l 864 831 l 864 710 l 299 442 l 864 174 l 864 54 "},"t":{"x_min":14,"x_max":463,"ha":465,"o":"m 321 -15 q 158 44 216 -15 q 100 231 100 103 l 100 652 l 14 652 l 14 758 l 100 758 l 100 976 l 228 976 l 228 758 l 463 758 l 463 652 l 228 652 l 228 291 q 230 202 228 233 q 245 143 232 170 q 283 107 257 119 q 352 96 308 96 q 413 105 384 96 q 455 120 442 114 l 463 120 l 463 6 q 389 -9 426 -3 q 321 -15 352 -15 "},"ù":{"x_min":87,"x_max":683,"ha":775,"o":"m 683 0 l 555 0 l 555 84 q 443 5 495 32 q 325 -21 390 -21 q 231 -4 275 -21 q 155 46 188 11 q 104 135 122 82 q 87 266 87 189 l 87 758 l 215 758 l 215 326 q 219 225 215 265 q 239 156 223 186 q 281 113 254 127 q 358 100 308 100 q 458 126 405 100 q 555 191 510 153 l 555 758 l 683 758 l 683 0 m 467 883 l 366 883 l 181 1137 l 345 1137 l 467 883 "},"ﺣ":{"x_min":-16,"x_max":869,"ha":916,"o":"m 869 312 q 438 105 701 211 q 56 0 176 0 l -16 0 l -16 128 l 59 128 q 324 185 154 128 q 616 306 494 243 q 428 387 557 347 q 164 428 300 428 l 85 428 l 85 553 l 171 553 q 445 505 296 553 q 733 370 593 457 l 869 440 l 869 312 "},"﴾":{"x_min":73,"x_max":481,"ha":532,"o":"m 481 -279 l 325 -279 q 140 17 207 -138 q 73 388 73 174 q 139 755 73 596 q 325 1055 206 914 l 481 1055 l 481 1048 q 376 934 426 998 q 283 783 326 869 q 217 599 242 699 q 192 388 192 499 q 216 175 192 272 q 283 -7 241 79 q 376 -158 324 -90 q 481 -272 428 -225 l 481 -279 "},"˝":{"x_min":170,"x_max":713,"ha":758,"o":"m 713 1137 l 538 883 l 444 883 l 558 1137 l 713 1137 m 439 1137 l 264 883 l 170 883 l 284 1137 l 439 1137 "},"רּ":{"x_min":20,"x_max":693,"ha":791,"o":"m 693 0 l 576 0 l 576 470 q 560 596 576 543 q 508 682 545 649 q 412 731 472 715 q 263 747 353 747 q 145 741 201 747 q 26 726 88 736 l 20 726 l 20 860 q 127 874 75 869 q 265 880 180 880 q 478 855 397 880 q 606 781 558 830 q 673 655 654 732 q 693 474 693 578 l 693 0 m 347 444 q 334 411 347 424 q 301 399 321 399 q 268 411 281 399 q 256 444 256 424 q 268 477 256 464 q 301 490 281 490 q 334 477 321 490 q 347 444 347 464 "},"ّ":{"x_min":33,"x_max":449,"ha":482,"o":"m 327 1169 q 415 1205 381 1169 q 449 1308 449 1241 q 447 1356 449 1342 q 444 1378 445 1371 l 381 1378 l 381 1373 q 383 1348 382 1365 q 385 1309 385 1332 q 369 1251 385 1270 q 326 1233 354 1233 q 288 1252 303 1233 q 273 1310 273 1271 l 273 1352 l 209 1352 l 209 1304 q 191 1226 209 1252 q 145 1201 174 1201 q 109 1214 121 1201 q 97 1252 97 1228 q 98 1288 97 1269 q 101 1315 100 1307 l 101 1320 l 35 1320 q 34 1290 35 1311 q 33 1251 33 1269 q 63 1166 33 1196 q 145 1137 94 1137 q 212 1160 185 1137 q 246 1209 240 1183 q 277 1180 255 1192 q 327 1169 299 1169 "},"¿":{"x_min":39,"x_max":584,"ha":658,"o":"m 428 867 l 290 867 l 290 1010 l 428 1010 l 428 867 m 584 26 q 470 -7 530 6 q 338 -21 410 -21 q 119 49 199 -21 q 39 236 39 120 q 59 350 39 300 q 119 446 79 401 q 202 518 155 486 q 301 583 250 551 l 301 739 l 422 739 l 422 531 q 332 476 373 502 q 254 416 291 450 q 198 342 219 383 q 177 247 177 300 q 225 132 177 170 q 350 95 273 95 q 480 118 418 95 q 576 165 543 141 l 584 165 l 584 26 "},"בּ":{"x_min":41,"x_max":860,"ha":888,"o":"m 735 133 l 860 133 l 860 0 l 41 0 l 41 133 l 618 133 l 618 470 q 604 586 618 534 q 557 673 590 638 q 462 728 522 709 q 309 747 402 747 q 201 742 282 747 q 67 729 120 738 l 61 729 l 61 862 q 182 875 111 870 q 318 880 253 880 q 635 786 536 880 q 735 474 735 692 l 735 133 m 380 444 q 367 411 380 424 q 334 399 354 399 q 301 411 314 399 q 289 444 289 424 q 301 477 289 464 q 334 490 314 490 q 367 477 354 490 q 380 444 380 464 "},"Ứ":{"x_min":90,"x_max":1046,"ha":999,"o":"m 455 -21 q 299 2 366 -21 q 186 71 233 25 q 111 198 133 124 q 90 379 90 272 l 90 1010 l 224 1010 l 224 380 q 232 262 224 310 q 267 176 241 214 q 341 115 294 136 q 455 94 387 94 q 567 115 518 94 q 643 176 616 136 q 677 262 668 215 q 687 376 687 308 l 687 1010 l 833 1010 q 918 1032 893 1010 q 944 1102 944 1054 q 936 1157 944 1126 q 921 1203 929 1188 l 921 1210 l 1029 1210 q 1042 1154 1038 1178 q 1046 1096 1046 1130 q 987 962 1046 1007 q 821 918 929 918 l 821 379 q 799 199 821 274 q 724 71 778 124 q 612 2 676 25 q 455 -21 548 -21 m 676 1390 l 490 1136 l 390 1136 l 511 1390 l 676 1390 "},"▫":{"x_min":89,"x_max":403,"ha":492,"o":"m 403 616 l 403 302 l 89 302 l 89 616 l 403 616 m 351 564 l 141 564 l 141 354 l 351 354 l 351 564 "},"":{"x_min":-432,"x_max":-287,"ha":0,"o":"m -287 -259 l -432 -259 l -432 -127 l -287 -127 l -287 -259 "},"":{"x_min":-201,"x_max":12,"ha":0,"o":"m 12 1290 q -10 1220 12 1247 q -78 1180 -33 1194 l -78 1134 l -153 1134 l -153 1216 q -104 1237 -120 1224 q -88 1277 -88 1250 q -100 1306 -88 1293 q -136 1320 -113 1320 q -170 1316 -157 1320 q -198 1307 -182 1313 l -201 1307 l -201 1378 q -163 1386 -188 1382 q -112 1391 -138 1391 q -22 1361 -57 1391 q 12 1290 12 1332 "},"●":{"x_min":120,"x_max":718,"ha":839,"o":"m 120 390 q 207 602 120 514 q 419 690 295 690 q 630 602 542 690 q 718 390 718 514 q 630 179 718 267 q 419 92 542 92 q 207 179 295 92 q 120 390 120 267 "},"Ǽ":{"x_min":-26,"x_max":1222,"ha":1268,"o":"m 1222 0 l 604 0 l 604 377 l 260 377 l 114 0 l -26 0 l 382 1010 l 1222 1010 l 1222 891 l 738 891 l 738 614 l 1188 614 l 1188 495 l 738 495 l 738 119 l 1222 119 l 1222 0 m 604 490 l 604 898 l 471 898 l 305 490 l 604 490 m 928 1390 l 742 1136 l 642 1136 l 763 1390 l 928 1390 "},"φ":{"x_min":39,"x_max":942,"ha":981,"o":"m 942 390 q 834 109 942 218 q 555 -10 727 0 l 555 -279 l 427 -279 l 427 -10 q 277 19 347 -5 q 152 95 206 45 q 68 214 98 145 q 39 370 39 284 q 77 573 39 482 q 198 758 116 664 l 352 758 l 352 746 q 213 579 256 668 q 171 385 171 489 q 240 178 171 256 q 427 97 309 101 l 427 774 q 473 776 449 776 q 523 777 497 777 q 830 675 719 777 q 942 390 942 573 m 810 397 q 740 596 810 522 q 555 670 671 670 l 555 97 q 745 183 681 103 q 810 397 810 263 "},";":{"x_min":83,"x_max":372,"ha":491,"o":"m 327 565 l 165 565 l 165 758 l 327 758 l 327 565 m 372 193 l 182 -251 l 83 -251 l 202 193 l 372 193 "},"Ġ":{"x_min":45,"x_max":861,"ha":927,"o":"m 525 -20 q 329 12 418 -20 q 176 111 240 45 q 78 277 112 178 q 45 505 45 376 q 79 724 45 627 q 177 889 113 821 q 329 992 239 956 q 526 1028 419 1028 q 624 1020 577 1028 q 713 1000 671 1013 q 789 972 747 990 q 857 941 831 954 l 857 779 l 845 779 q 793 821 820 801 q 717 864 766 841 q 624 898 677 884 q 510 912 571 912 q 274 802 364 912 q 185 509 185 692 q 208 332 185 408 q 277 203 232 256 q 381 123 320 150 q 519 96 442 96 q 632 104 576 96 q 727 128 688 112 l 727 390 l 495 390 l 495 508 l 861 508 l 861 66 q 792 37 835 55 q 711 9 749 20 q 622 -12 662 -5 q 525 -20 582 -20 m 566 1137 l 421 1137 l 421 1269 l 566 1269 l 566 1137 "},"ﺻ":{"x_min":-16,"x_max":991,"ha":1053,"o":"m 991 276 q 964 169 991 219 q 886 81 938 118 q 756 22 834 44 q 571 0 678 0 l 300 0 q 220 13 256 0 q 157 55 184 26 q 95 13 131 27 q 15 0 60 0 l -16 0 l -16 128 l 18 128 q 81 162 63 128 q 100 257 100 197 l 100 264 l 214 264 l 214 257 q 221 190 214 220 q 245 144 228 160 q 352 298 293 224 q 474 428 411 372 q 601 519 536 485 q 724 553 666 553 q 913 476 836 553 q 991 276 991 400 m 754 154 q 850 203 823 175 q 878 274 878 232 q 833 382 878 336 q 722 428 789 428 q 632 396 681 428 q 532 316 583 364 q 443 222 486 274 q 372 128 399 170 l 490 128 q 629 134 549 128 q 754 154 709 140 "},"n":{"x_min":92,"x_max":688,"ha":775,"o":"m 688 0 l 560 0 l 560 431 q 554 529 560 484 q 535 601 549 574 q 492 644 520 630 q 416 658 464 658 q 318 632 369 658 q 220 566 268 607 l 220 0 l 92 0 l 92 758 l 220 758 l 220 673 q 332 751 276 724 q 449 779 388 779 q 624 705 561 779 q 688 491 688 631 l 688 0 "},"ά":{"x_min":40,"x_max":678,"ha":770,"o":"m 678 0 l 550 0 l 550 77 q 441 3 495 27 q 323 -21 388 -21 q 116 83 193 -21 q 40 373 40 188 q 65 542 40 466 q 138 673 90 617 q 238 750 179 722 q 361 779 297 779 q 461 765 418 779 q 550 726 503 752 l 553 726 l 553 758 l 678 758 l 678 0 m 550 184 l 550 621 q 464 653 502 644 q 382 662 426 662 q 225 582 278 662 q 172 375 172 503 q 215 170 172 241 q 353 100 259 100 q 454 122 403 100 q 550 184 505 145 m 457 1136 l 423 876 l 325 876 l 292 1136 l 457 1136 "},"ϊ":{"x_min":-26,"x_max":343,"ha":317,"o":"m 223 0 l 95 0 l 95 758 l 223 758 l 223 0 m 343 885 l 215 885 l 215 1017 l 343 1017 l 343 885 m 102 885 l -26 885 l -26 1017 l 102 1017 l 102 885 "},"ģ":{"x_min":40,"x_max":676,"ha":768,"o":"m 548 205 l 548 621 q 460 654 500 644 q 379 664 419 664 q 227 592 283 664 q 172 388 172 521 q 214 196 172 262 q 351 131 256 131 q 453 150 400 131 q 548 205 506 170 m 119 -121 q 157 -135 132 -126 q 214 -151 182 -144 q 279 -165 249 -160 q 344 -171 309 -171 q 444 -155 403 -171 q 508 -112 485 -140 q 539 -48 530 -84 q 548 34 548 -12 l 548 100 q 446 34 496 55 q 322 13 397 13 q 116 109 193 13 q 40 386 40 205 q 66 553 40 480 q 137 677 92 626 q 238 752 180 726 q 359 779 297 779 q 461 765 418 779 q 548 725 504 751 l 555 758 l 676 758 l 676 86 q 591 -195 676 -105 q 334 -286 507 -286 q 221 -277 279 -286 q 113 -253 163 -268 l 113 -121 l 119 -121 m 551 1137 l 429 883 l 265 883 l 450 1137 l 551 1137 "},"Ẵ":{"x_min":-7,"x_max":840,"ha":833,"o":"m -7 0 l 333 1010 l 499 1010 l 840 0 l 698 0 l 607 282 l 220 282 l 129 0 l -7 0 m 569 397 l 413 872 l 258 397 l 569 397 m 630 1220 q 570 1126 630 1162 q 406 1091 511 1091 q 242 1125 301 1091 q 183 1220 183 1160 l 293 1220 q 329 1175 293 1188 q 406 1162 366 1162 q 483 1175 447 1162 q 520 1220 520 1188 l 630 1220 m 630 1390 q 584 1298 622 1334 q 492 1262 546 1262 q 442 1270 467 1262 q 398 1288 417 1279 q 359 1306 381 1297 q 324 1315 338 1315 q 291 1303 305 1315 q 274 1262 278 1292 l 183 1262 q 227 1352 189 1314 q 320 1390 265 1390 q 369 1382 347 1390 q 414 1363 392 1374 q 454 1344 437 1352 q 488 1337 470 1337 q 521 1349 506 1337 q 539 1390 535 1361 l 630 1390 "},"∂":{"x_min":45,"x_max":700,"ha":758,"o":"m 700 568 q 694 463 700 521 q 677 348 689 405 q 645 232 665 290 q 594 129 624 175 q 473 12 539 45 q 334 -21 408 -21 q 125 62 205 -21 q 45 287 45 146 q 133 540 45 442 q 354 639 222 639 q 465 621 414 639 q 567 559 517 603 q 569 595 569 577 q 570 635 570 613 q 519 850 570 781 q 369 920 468 920 q 257 898 315 920 q 147 839 199 877 l 139 839 l 139 970 q 260 1015 192 1000 q 387 1031 328 1031 q 547 992 482 1031 q 653 872 613 954 q 690 743 681 814 q 700 568 700 671 m 563 460 q 476 510 525 491 q 379 529 427 529 q 234 468 288 529 q 181 290 181 408 q 224 139 181 191 q 338 88 267 88 q 494 185 435 88 q 563 460 553 282 "},"κ":{"x_min":92,"x_max":702,"ha":692,"o":"m 702 0 l 542 0 l 272 362 l 220 303 l 220 0 l 92 0 l 92 758 l 220 758 l 220 423 l 431 673 q 510 738 468 717 q 594 759 552 759 q 632 758 612 759 q 657 757 652 757 l 657 647 l 649 647 q 628 648 639 648 q 612 648 617 648 q 599 647 608 648 q 574 642 589 646 q 542 626 559 637 q 513 600 526 614 l 369 434 l 702 0 "},"ň":{"x_min":92,"x_max":688,"ha":775,"o":"m 688 0 l 560 0 l 560 431 q 554 529 560 484 q 535 601 549 574 q 492 644 520 630 q 416 658 464 658 q 318 632 369 658 q 220 566 268 607 l 220 0 l 92 0 l 92 758 l 220 758 l 220 673 q 332 751 276 724 q 449 779 388 779 q 624 705 561 779 q 688 491 688 631 l 688 0 m 626 1137 l 471 880 l 317 880 l 163 1137 l 270 1137 l 396 963 l 520 1137 l 626 1137 "},"√":{"x_min":55,"x_max":1054,"ha":1011,"o":"m 1054 1213 l 518 -102 l 447 -102 l 215 571 l 55 571 l 55 665 l 321 665 l 501 125 l 943 1213 l 1054 1213 "},"ę":{"x_min":40,"x_max":694,"ha":731,"o":"m 390 -17 q 131 93 223 -8 q 40 374 40 194 q 136 669 40 559 q 390 779 233 779 q 515 758 460 779 q 609 694 569 738 q 672 588 650 651 q 694 434 694 525 l 694 365 l 170 365 q 236 162 170 232 q 419 93 302 93 q 502 102 461 93 q 575 126 542 111 q 633 156 609 142 q 672 184 656 171 l 680 184 l 680 45 q 624 23 657 36 q 565 2 591 10 q 530 -5 549 -1 q 497 -11 511 -9 q 493 -40 495 -23 q 491 -73 491 -57 q 513 -154 491 -127 q 594 -182 535 -182 q 639 -175 617 -182 q 673 -162 661 -169 l 680 -162 l 680 -268 q 628 -279 655 -275 q 577 -283 600 -283 q 438 -232 494 -283 q 382 -79 382 -182 q 384 -47 382 -63 q 390 -17 386 -31 m 570 463 q 557 552 568 514 q 526 615 546 589 q 469 659 504 644 q 383 674 434 674 q 296 658 332 674 q 232 614 261 643 q 188 547 203 584 q 170 463 174 511 l 570 463 "},"ố":{"x_min":39,"x_max":818,"ha":754,"o":"m 715 378 q 622 83 715 187 q 377 -21 530 -21 q 129 86 219 -21 q 39 378 39 194 q 132 673 39 568 q 377 779 225 779 q 622 674 530 779 q 715 378 715 569 m 583 378 q 529 597 583 525 q 377 669 476 669 q 224 597 278 669 q 171 378 171 525 q 224 162 171 236 q 377 89 278 89 q 529 161 475 89 q 583 378 583 233 m 610 880 l 502 880 l 376 1053 l 252 880 l 147 880 l 301 1137 l 455 1137 l 610 880 m 818 1137 l 670 957 l 583 957 l 666 1137 l 818 1137 "},"Ặ":{"x_min":-7,"x_max":840,"ha":833,"o":"m -7 0 l 333 1010 l 499 1010 l 840 0 l 698 0 l 607 282 l 220 282 l 129 0 l -7 0 m 569 397 l 413 872 l 258 397 l 569 397 m 640 1362 q 625 1256 640 1303 q 585 1175 611 1208 q 515 1121 554 1139 q 416 1104 477 1104 q 319 1122 361 1104 q 249 1175 277 1141 q 207 1257 221 1209 q 193 1362 193 1304 l 303 1362 q 331 1230 303 1270 q 416 1190 359 1190 q 500 1229 470 1190 q 530 1362 530 1269 l 640 1362 m 491 -259 l 346 -259 l 346 -127 l 491 -127 l 491 -259 "},"ص":{"x_min":62,"x_max":1542,"ha":1604,"o":"m 1542 276 q 1506 151 1542 204 q 1415 65 1471 98 q 1286 16 1359 33 q 1137 0 1214 0 l 749 0 q 635 -210 730 -133 q 389 -288 539 -288 q 150 -202 239 -288 q 62 38 62 -116 q 70 194 62 135 q 81 264 78 252 l 204 264 l 204 253 q 185 154 195 220 q 175 37 175 88 q 233 -111 175 -62 q 388 -160 292 -160 q 492 -146 445 -160 q 571 -98 539 -132 q 624 -3 607 -61 q 641 135 641 54 q 637 223 641 193 q 633 264 634 254 l 754 264 l 754 255 q 766 183 754 217 q 796 135 778 149 q 1032 429 897 305 q 1275 553 1167 553 q 1465 474 1389 553 q 1542 276 1542 396 m 1305 154 q 1403 207 1378 176 q 1429 274 1429 237 q 1386 380 1429 332 q 1273 428 1344 428 q 1183 396 1231 428 q 1082 316 1134 364 q 993 222 1036 274 q 922 128 949 170 l 1040 128 q 1179 134 1099 128 q 1305 154 1259 140 "},"ﻚ":{"x_min":62,"x_max":1127,"ha":1111,"o":"m 1127 0 l 1032 0 q 937 25 991 0 q 861 88 884 51 q 780 22 827 45 q 666 0 733 0 l 317 0 q 220 8 267 0 q 138 38 172 16 q 82 103 102 61 q 62 209 62 144 q 64 261 62 236 q 68 292 67 286 l 182 292 l 182 285 q 177 258 180 275 q 175 211 175 242 q 213 146 175 164 q 318 128 251 128 l 669 128 q 737 144 709 128 q 781 187 766 161 q 803 244 796 212 q 811 315 811 277 l 811 1055 l 924 1055 l 924 311 q 965 179 924 230 q 1063 128 1006 128 l 1127 128 l 1127 0 m 627 499 q 558 407 627 441 q 381 373 490 373 l 381 437 q 511 451 459 437 q 564 492 564 465 q 550 512 564 504 q 513 527 537 520 l 461 540 q 403 570 425 548 q 382 630 382 593 q 429 707 382 677 q 566 737 476 737 l 566 676 q 472 664 502 676 q 442 632 442 652 q 455 611 442 620 q 493 596 469 602 l 550 581 q 603 556 580 574 q 627 499 627 538 m 1007 0 l 1007 0 "},"":{"x_min":-394,"x_max":-249,"ha":0,"o":"m -249 -259 l -394 -259 l -394 -127 l -249 -127 l -249 -259 "},"Ế":{"x_min":102,"x_max":859,"ha":779,"o":"m 102 0 l 102 1010 l 734 1010 l 734 891 l 236 891 l 236 614 l 700 614 l 700 495 l 236 495 l 236 119 l 734 119 l 734 0 l 102 0 m 651 1133 l 543 1133 l 417 1306 l 293 1133 l 188 1133 l 342 1390 l 496 1390 l 651 1133 m 859 1390 l 711 1210 l 624 1210 l 707 1390 l 859 1390 "},"ắ":{"x_min":39,"x_max":642,"ha":729,"o":"m 514 186 l 514 397 q 399 385 468 392 q 287 365 330 378 q 204 318 237 350 q 171 228 171 285 q 207 130 171 163 q 314 97 243 97 q 422 122 374 97 q 514 186 471 148 m 514 80 q 472 48 498 69 q 421 15 446 27 q 356 -11 388 -2 q 268 -21 325 -21 q 179 -3 221 -21 q 105 46 137 14 q 57 123 75 77 q 39 219 39 169 q 72 354 39 298 q 177 441 105 409 q 327 482 240 471 q 514 499 413 493 l 514 523 q 500 595 514 567 q 462 637 486 622 q 403 657 438 652 q 330 663 368 663 q 227 649 286 663 q 108 612 167 636 l 101 612 l 101 741 q 202 763 136 751 q 332 776 267 776 q 463 763 410 776 q 559 719 517 751 q 621 638 601 688 q 642 518 642 589 l 642 0 l 514 0 l 514 80 m 585 1089 q 524 914 585 978 q 361 851 464 851 q 198 914 258 851 q 138 1089 138 978 l 248 1089 q 276 970 248 1004 q 361 937 305 937 q 446 970 417 937 q 475 1089 475 1004 l 585 1089 m 539 1211 l 391 1031 l 304 1031 l 387 1211 l 539 1211 "},"Τ":{"x_min":-1,"x_max":811,"ha":811,"o":"m 338 0 l 338 891 l -1 891 l -1 1010 l 811 1010 l 811 891 l 472 891 l 472 0 l 338 0 "},"٩":{"x_min":83,"x_max":733,"ha":794,"o":"m 733 0 l 616 0 l 553 195 q 525 315 532 260 q 519 456 519 371 l 519 464 q 441 407 489 427 q 335 387 393 387 q 158 458 233 387 q 83 639 83 529 q 105 763 83 708 q 167 857 128 819 q 257 913 205 894 q 363 933 309 933 q 463 914 414 933 q 549 861 511 895 q 609 779 587 826 q 632 670 632 732 l 632 466 q 639 318 632 367 q 666 206 646 269 l 733 0 m 518 586 l 518 652 q 471 760 518 716 q 365 805 425 805 q 244 760 291 805 q 197 643 197 715 q 237 551 197 588 q 334 515 277 515 q 437 534 386 515 q 518 586 488 553 "},"ΐ":{"x_min":-68,"x_max":386,"ha":317,"o":"m 226 1137 l 187 877 l 130 877 l 92 1137 l 226 1137 m 386 885 l 270 885 l 270 1017 l 386 1017 l 386 885 m 48 885 l -68 885 l -68 1017 l 48 1017 l 48 885 m 223 0 l 95 0 l 95 758 l 223 758 l 223 0 "},"ر":{"x_min":-74,"x_max":447,"ha":503,"o":"m 447 126 q 395 -71 447 13 q 242 -210 344 -155 q 73 -271 160 -254 q -74 -288 -12 -288 l -74 -160 q 43 -148 -30 -160 q 174 -109 117 -136 q 291 -19 252 -73 q 330 104 330 33 q 307 223 330 162 q 245 341 284 283 l 245 350 l 376 350 q 424 241 402 301 q 447 126 447 181 "},"g":{"x_min":40,"x_max":676,"ha":768,"o":"m 548 205 l 548 621 q 460 654 500 644 q 379 664 419 664 q 227 592 283 664 q 172 388 172 521 q 214 196 172 262 q 351 131 256 131 q 453 150 400 131 q 548 205 506 170 m 119 -121 q 157 -135 132 -126 q 214 -151 182 -144 q 279 -165 249 -160 q 344 -171 309 -171 q 444 -155 403 -171 q 508 -112 485 -140 q 539 -48 530 -84 q 548 34 548 -12 l 548 100 q 446 34 496 55 q 322 13 397 13 q 116 109 193 13 q 40 386 40 205 q 66 553 40 480 q 137 677 92 626 q 238 752 180 726 q 359 779 297 779 q 461 765 418 779 q 548 725 504 751 l 555 758 l 676 758 l 676 86 q 591 -195 676 -105 q 334 -286 507 -286 q 221 -277 279 -286 q 113 -253 163 -268 l 113 -121 l 119 -121 "},"²":{"x_min":125,"x_max":587,"ha":685,"o":"m 587 384 l 125 384 l 125 486 q 225 563 177 526 q 303 630 273 600 q 397 738 375 699 q 420 832 420 777 q 390 905 420 879 q 309 931 361 931 q 215 910 262 931 q 139 868 167 889 l 129 868 l 129 989 q 223 1019 171 1007 q 325 1031 275 1031 q 488 977 431 1031 q 545 840 545 924 q 518 729 545 782 q 418 610 491 676 q 336 543 382 578 q 252 481 289 508 l 587 481 l 587 384 "},"́":{"x_min":-435,"x_max":-200,"ha":0,"o":"m -200 1327 l -348 1147 l -435 1147 l -351 1327 l -200 1327 "},"ﺕ":{"x_min":62,"x_max":1059,"ha":1121,"o":"m 560 120 q 385 135 460 120 q 260 183 309 151 q 194 253 213 213 q 175 340 175 292 q 182 402 175 361 q 193 460 189 442 l 193 467 l 76 467 q 67 406 72 444 q 62 331 62 369 q 185 80 62 168 q 559 -8 309 -8 q 935 79 812 -8 q 1059 331 1059 167 q 1053 406 1059 369 q 1045 467 1048 444 l 928 467 l 928 460 q 938 402 931 442 q 946 340 946 361 q 926 253 946 292 q 860 183 906 214 q 736 135 811 151 q 560 120 661 120 m 520 553 l 420 553 l 420 653 l 520 653 l 520 553 m 701 553 l 601 553 l 601 653 l 701 653 l 701 553 "},"Ã":{"x_min":-7,"x_max":840,"ha":833,"o":"m -7 0 l 333 1010 l 499 1010 l 840 0 l 698 0 l 607 282 l 220 282 l 129 0 l -7 0 m 569 397 l 413 872 l 258 397 l 569 397 m 686 1332 q 635 1173 679 1226 q 519 1121 591 1121 q 454 1133 483 1121 q 395 1173 424 1146 q 344 1216 365 1201 q 301 1231 322 1230 q 254 1200 268 1231 q 239 1118 241 1169 l 144 1118 q 195 1275 148 1222 q 310 1329 242 1329 q 373 1315 344 1329 q 432 1276 403 1302 q 484 1236 461 1250 q 527 1223 508 1223 q 574 1253 559 1223 q 591 1332 588 1283 l 686 1332 "},"©":{"x_min":58,"x_max":1231,"ha":1290,"o":"m 1231 444 q 1059 29 1231 201 q 644 -142 887 -142 q 229 29 401 -142 q 58 444 58 201 q 229 859 58 687 q 644 1031 401 1031 q 1059 859 887 1031 q 1231 444 1231 687 m 1152 444 q 1003 806 1152 657 q 644 956 854 956 q 285 806 434 956 q 137 444 137 657 q 285 82 137 232 q 644 -67 434 -67 q 1003 82 854 -67 q 1152 444 1152 232 m 864 174 q 773 138 818 153 q 665 123 727 123 q 442 206 524 123 q 360 448 360 290 q 444 690 360 604 q 665 776 529 776 q 773 761 722 776 q 864 726 825 746 l 864 603 l 853 603 q 772 652 823 628 q 668 676 720 676 q 534 620 584 676 q 485 448 485 564 q 532 280 485 338 q 668 223 580 223 q 776 247 725 223 q 853 296 827 272 l 864 296 l 864 174 "},"≥":{"x_min":146,"x_max":874,"ha":1011,"o":"m 874 535 l 146 207 l 146 329 l 696 575 l 146 821 l 146 944 l 874 615 l 874 535 m 874 0 l 146 0 l 146 109 l 874 109 l 874 0 "},"Ă":{"x_min":-7,"x_max":840,"ha":833,"o":"m -7 0 l 333 1010 l 499 1010 l 840 0 l 698 0 l 607 282 l 220 282 l 129 0 l -7 0 m 569 397 l 413 872 l 258 397 l 569 397 m 640 1362 q 625 1256 640 1303 q 585 1175 611 1208 q 515 1121 554 1139 q 416 1104 477 1104 q 319 1122 361 1104 q 249 1175 277 1141 q 207 1257 221 1209 q 193 1362 193 1304 l 303 1362 q 331 1230 303 1270 q 416 1190 359 1190 q 500 1229 470 1190 q 530 1362 530 1269 l 640 1362 "},"\\":{"x_min":35,"x_max":545,"ha":531,"o":"m 545 -220 l 430 -220 l 35 1055 l 151 1055 l 545 -220 "},"ъ":{"x_min":3,"x_max":761,"ha":789,"o":"m 761 234 q 738 135 761 179 q 678 62 716 90 q 583 14 634 28 q 452 0 532 0 l 195 0 l 195 647 l 3 647 l 3 758 l 323 758 l 323 463 l 455 463 q 588 454 541 463 q 682 410 635 445 q 741 336 721 381 q 761 234 761 290 m 629 233 q 617 293 629 267 q 578 336 605 319 q 513 356 549 353 q 409 360 477 360 l 323 360 l 323 102 l 406 102 q 511 107 474 102 q 576 129 549 113 q 616 171 603 147 q 629 233 629 195 "},"ς":{"x_min":39,"x_max":623,"ha":598,"o":"m 623 -65 q 593 -182 623 -124 q 524 -279 563 -239 l 403 -279 l 403 -269 q 484 -177 459 -219 q 509 -88 509 -135 q 490 -26 509 -53 q 442 1 471 1 l 388 1 q 250 21 314 1 q 139 87 186 42 q 65 202 92 131 q 39 372 39 273 q 137 664 39 553 q 404 775 236 775 q 511 761 459 775 q 603 731 563 748 l 603 589 l 595 589 q 491 645 542 627 q 395 664 440 664 q 233 587 295 664 q 171 371 171 511 q 188 249 171 299 q 236 168 206 198 q 309 124 268 137 q 395 112 350 112 l 459 112 q 577 60 532 112 q 623 -65 623 8 "},"ç":{"x_min":40,"x_max":617,"ha":641,"o":"m 393 -17 q 250 7 315 -17 q 138 79 185 31 q 65 203 91 128 q 40 377 40 277 q 66 549 40 477 q 138 671 93 622 q 249 748 183 721 q 393 775 316 775 q 513 757 455 775 q 617 716 571 739 l 617 574 l 609 574 q 574 600 595 585 q 522 630 553 614 q 460 653 496 643 q 391 664 424 664 q 232 589 292 664 q 172 377 172 514 q 230 168 172 243 q 391 94 288 94 q 509 119 453 94 q 609 186 566 145 l 617 186 l 617 42 q 572 23 597 33 q 526 5 547 12 q 528 -23 527 -5 q 530 -60 530 -40 q 474 -223 530 -160 q 320 -286 418 -286 q 261 -281 295 -286 q 200 -269 227 -277 l 200 -161 l 206 -161 q 248 -176 222 -168 q 302 -184 275 -184 q 396 -157 366 -184 q 426 -72 426 -130 q 425 -46 426 -60 q 424 -15 425 -32 q 409 -16 415 -15 q 393 -17 403 -17 "},"Й":{"x_min":102,"x_max":829,"ha":931,"o":"m 829 0 l 695 0 l 695 801 l 238 0 l 102 0 l 102 1010 l 236 1010 l 236 221 l 686 1010 l 829 1010 l 829 0 m 730 1313 q 665 1148 727 1211 q 478 1086 603 1086 q 291 1148 353 1086 q 227 1313 229 1211 l 348 1313 q 381 1202 349 1236 q 478 1169 414 1169 q 575 1202 543 1169 q 609 1313 607 1235 l 730 1313 "},"ﺚ":{"x_min":62,"x_max":1317,"ha":1302,"o":"m 1317 0 l 1222 0 q 1130 22 1180 0 q 1057 83 1079 45 q 975 22 1029 44 q 847 0 921 0 l 559 0 q 185 88 309 0 q 62 340 62 176 q 67 426 62 390 q 76 475 73 462 l 193 475 l 193 468 q 182 417 190 458 q 175 348 175 376 q 195 261 175 302 q 260 191 215 220 q 385 143 310 159 q 561 128 460 128 q 738 128 659 128 q 817 128 817 128 q 956 167 912 128 q 1001 289 1001 207 q 997 329 1001 307 q 992 360 993 352 l 992 371 l 1107 371 q 1111 326 1109 358 q 1114 283 1114 294 q 1149 173 1114 218 q 1253 128 1184 128 l 1317 128 l 1317 0 m 568 553 l 468 553 l 468 653 l 568 653 l 568 553 m 768 553 l 668 553 l 668 653 l 768 653 l 768 553 m 668 694 l 568 694 l 568 794 l 668 794 l 668 694 "},"":{"x_min":-621,"x_max":-476,"ha":0,"o":"m -476 -259 l -621 -259 l -621 -127 l -476 -127 l -476 -259 "},"ċ":{"x_min":40,"x_max":617,"ha":641,"o":"m 393 -17 q 250 7 315 -17 q 138 79 185 31 q 65 203 91 128 q 40 377 40 277 q 66 549 40 477 q 138 671 93 622 q 249 748 183 721 q 393 775 316 775 q 513 757 455 775 q 617 716 571 739 l 617 574 l 609 574 q 574 600 595 585 q 522 630 553 614 q 460 653 496 643 q 391 664 424 664 q 232 589 292 664 q 172 377 172 514 q 230 168 172 243 q 391 94 288 94 q 509 119 453 94 q 609 186 566 145 l 617 186 l 617 42 q 569 21 598 33 q 518 2 541 8 q 459 -11 485 -6 q 393 -17 433 -17 m 443 884 l 298 884 l 298 1016 l 443 1016 l 443 884 "},"Ā":{"x_min":-7,"x_max":840,"ha":833,"o":"m -7 0 l 333 1010 l 499 1010 l 840 0 l 698 0 l 607 282 l 220 282 l 129 0 l -7 0 m 569 397 l 413 872 l 258 397 l 569 397 m 672 1151 l 161 1151 l 161 1256 l 672 1256 l 672 1151 "},"ִ":{"x_min":317,"x_max":408,"ha":724,"o":"m 362 -153 q 329 -140 342 -153 q 317 -107 317 -127 q 329 -74 317 -87 q 362 -62 342 -62 q 395 -74 382 -62 q 408 -107 408 -87 q 395 -140 408 -127 q 362 -153 382 -153 "},"ٍ":{"x_min":0,"x_max":389,"ha":389,"o":"m 389 -83 l 0 -151 l 0 -83 l 389 -18 l 389 -83 m 389 -219 l 0 -287 l 0 -219 l 389 -154 l 389 -219 "},"}":{"x_min":67,"x_max":627,"ha":667,"o":"m 627 342 l 612 342 q 512 324 553 342 q 447 273 472 307 q 413 192 422 239 q 405 97 405 144 l 405 -3 q 336 -199 405 -132 q 145 -266 267 -266 l 67 -266 l 67 -172 l 121 -172 q 190 -163 161 -172 q 241 -136 220 -155 q 273 -79 262 -115 q 284 8 284 -43 l 284 126 q 296 220 284 182 q 334 291 309 258 q 392 346 356 321 q 467 386 428 370 l 467 402 q 392 442 428 418 q 334 497 356 467 q 296 568 309 530 q 284 662 284 606 l 284 780 q 273 868 284 832 q 241 925 262 904 q 190 952 220 944 q 121 961 161 961 l 67 961 l 67 1055 l 145 1055 q 336 988 267 1055 q 405 792 405 921 l 405 691 q 413 596 405 644 q 447 515 422 549 q 512 464 472 481 q 612 447 553 447 l 627 447 l 627 342 "},"Δ":{"x_min":-7,"x_max":867,"ha":860,"o":"m 867 0 l -7 0 l 347 1010 l 512 1010 l 867 0 m 685 116 l 426 876 l 168 116 l 685 116 "},"‰":{"x_min":69,"x_max":1858,"ha":1932,"o":"m 547 729 q 485 503 547 577 q 308 430 424 430 q 129 504 190 430 q 69 729 69 579 q 130 955 69 881 q 308 1029 192 1029 q 486 954 426 1029 q 547 729 547 879 m 999 1010 l 469 0 l 358 0 l 887 1010 l 999 1010 m 1286 279 q 1224 53 1286 127 q 1047 -20 1163 -20 q 868 54 929 -20 q 808 279 808 129 q 869 505 808 431 q 1047 579 931 579 q 1225 504 1165 579 q 1286 279 1286 429 m 426 729 q 401 886 426 833 q 308 939 377 939 q 214 885 238 939 q 190 729 190 831 q 212 573 190 627 q 308 520 235 520 q 401 573 377 520 q 426 729 426 627 m 1165 279 q 1140 436 1165 383 q 1047 489 1116 489 q 953 435 977 489 q 929 279 929 381 q 951 123 929 177 q 1047 70 974 70 q 1140 123 1116 70 q 1165 279 1165 177 m 1858 279 q 1796 53 1858 127 q 1619 -20 1735 -20 q 1440 54 1501 -20 q 1380 279 1380 129 q 1441 505 1380 431 q 1619 579 1503 579 q 1797 504 1737 579 q 1858 279 1858 429 m 1737 279 q 1712 436 1737 383 q 1619 489 1688 489 q 1525 435 1549 489 q 1501 279 1501 381 q 1523 123 1501 177 q 1619 70 1546 70 q 1712 123 1688 70 q 1737 279 1737 177 "},"Ä":{"x_min":-7,"x_max":840,"ha":833,"o":"m -7 0 l 333 1010 l 499 1010 l 840 0 l 698 0 l 607 282 l 220 282 l 129 0 l -7 0 m 569 397 l 413 872 l 258 397 l 569 397 m 620 1123 l 484 1123 l 484 1255 l 620 1255 l 620 1123 m 340 1123 l 204 1123 l 204 1255 l 340 1255 l 340 1123 "},"ﬠ":{"x_min":34,"x_max":814,"ha":901,"o":"m 392 177 q 451 205 426 190 q 494 236 476 220 q 579 325 540 275 q 643 443 618 374 q 683 612 669 516 q 697 859 697 708 l 814 859 q 796 574 814 694 q 746 374 778 454 q 673 240 714 295 q 582 141 632 186 q 361 27 494 62 q 34 -7 228 -7 l 34 131 q 177 135 114 131 q 285 148 240 140 l 92 859 l 212 859 l 392 177 "},"—":{"x_min":-3,"x_max":1266,"ha":1263,"o":"m 1266 387 l -3 387 l -3 496 l 1266 496 l 1266 387 "},"N":{"x_min":102,"x_max":825,"ha":927,"o":"m 825 0 l 674 0 l 227 870 l 227 0 l 102 0 l 102 1010 l 292 1010 l 700 210 l 700 1010 l 825 1010 l 825 0 "},"ד":{"x_min":14,"x_max":804,"ha":834,"o":"m 804 726 l 658 726 l 658 0 l 541 0 l 541 726 l 14 726 l 14 859 l 804 859 l 804 726 "},"⁄":{"x_min":-20,"x_max":621,"ha":601,"o":"m 621 1010 l 91 0 l -20 0 l 509 1010 l 621 1010 "},"2":{"x_min":74,"x_max":697,"ha":758,"o":"m 697 0 l 74 0 l 74 142 q 200 264 141 206 q 317 386 260 323 q 474 589 432 512 q 517 746 517 665 q 503 820 517 788 q 467 873 490 852 q 412 903 443 893 q 344 914 381 914 q 271 904 308 914 q 200 881 234 895 q 145 853 171 870 q 102 826 118 837 l 95 826 l 95 969 q 211 1010 137 990 q 353 1031 286 1031 q 575 956 495 1031 q 655 753 655 881 q 641 644 655 694 q 602 551 627 593 q 542 463 577 507 q 467 378 507 420 q 325 234 404 309 q 200 117 247 160 l 697 117 l 697 0 "},"":{"x_min":-833,"x_max":-291,"ha":0,"o":"m -291 1359 q -341 1200 -297 1253 q -457 1148 -385 1148 q -523 1160 -493 1148 q -581 1200 -552 1173 q -632 1243 -611 1228 q -675 1258 -654 1257 q -722 1227 -708 1258 q -738 1145 -735 1196 l -833 1145 q -781 1302 -828 1249 q -666 1356 -734 1356 q -603 1342 -632 1356 q -544 1303 -573 1329 q -492 1263 -515 1277 q -449 1250 -468 1250 q -402 1280 -417 1250 q -386 1359 -388 1310 l -291 1359 "},"М":{"x_min":102,"x_max":968,"ha":1070,"o":"m 968 0 l 834 0 l 834 870 l 570 278 l 488 278 l 227 870 l 227 0 l 102 0 l 102 1010 l 284 1010 l 537 447 l 781 1010 l 968 1010 l 968 0 "},"וֹ":{"x_min":14,"x_max":282,"ha":380,"o":"m 282 0 l 165 0 l 165 664 q 146 725 165 704 q 86 747 127 747 q 54 745 74 747 q 14 740 33 743 l 14 873 q 61 877 31 875 q 111 880 90 880 q 238 826 194 880 q 282 677 282 772 l 282 0 m 263 966 q 250 933 263 946 q 217 921 237 921 q 184 933 197 921 q 172 966 172 946 q 184 999 172 986 q 217 1012 197 1012 q 250 999 237 1012 q 263 966 263 986 "},"‍":{"x_min":-148.109375,"x_max":149.109375,"ha":0,"o":"m 25 -187 l -24 -187 l -24 755 l -114 663 l -148 696 l -32 810 l -148 924 l -114 958 l 0 842 l 115 958 l 149 924 l 33 810 l 149 696 l 115 663 l 25 755 l 25 -187 "},"Ó":{"x_min":45,"x_max":938,"ha":983,"o":"m 816 893 q 906 729 874 827 q 938 504 938 630 q 906 282 938 381 q 816 116 875 183 q 672 12 754 46 q 491 -21 590 -21 q 306 13 388 -21 q 165 116 224 48 q 76 282 107 183 q 45 504 45 380 q 76 728 45 632 q 166 893 108 824 q 307 996 224 961 q 491 1031 389 1031 q 676 995 594 1031 q 816 893 759 959 m 798 504 q 776 682 798 605 q 715 810 754 759 q 618 888 675 862 q 491 915 562 915 q 364 889 418 915 q 267 810 309 864 q 206 681 227 759 q 185 504 185 603 q 268 200 185 305 q 491 95 351 95 q 715 200 632 95 q 798 504 798 305 m 679 1390 l 493 1136 l 393 1136 l 514 1390 l 679 1390 "},"":{"x_min":-224,"x_max":-79,"ha":0,"o":"m -79 -259 l -224 -259 l -224 -127 l -79 -127 l -79 -259 "},"Ў":{"x_min":-1,"x_max":808,"ha":799,"o":"m 808 1010 l 441 159 q 389 73 418 106 q 329 24 360 41 q 268 2 298 7 q 207 -3 238 -3 q 143 -1 180 -3 q 97 0 107 0 l 97 126 l 106 126 q 137 122 116 124 q 189 121 158 121 q 225 122 204 121 q 262 132 245 124 q 299 157 282 142 q 330 208 316 173 l 353 262 l -1 1010 l 147 1010 l 421 415 l 669 1010 l 808 1010 m 663 1313 q 598 1148 660 1211 q 412 1086 536 1086 q 225 1148 287 1086 q 161 1313 163 1211 l 282 1313 q 315 1202 283 1236 q 412 1169 348 1169 q 508 1202 476 1169 q 542 1313 540 1235 l 663 1313 "},"":{"x_min":-245,"x_max":-33,"ha":0,"o":"m -33 1036 q -55 966 -33 993 q -122 926 -77 940 l -122 880 l -197 880 l -197 962 q -149 983 -165 970 q -133 1023 -133 996 q -145 1052 -133 1039 q -180 1066 -158 1066 q -214 1062 -201 1066 q -242 1053 -226 1059 l -245 1053 l -245 1124 q -207 1132 -232 1128 q -156 1137 -182 1137 q -67 1107 -102 1137 q -33 1036 -33 1078 "},"Ŭ":{"x_min":90,"x_max":821,"ha":911,"o":"m 455 -21 q 299 2 366 -21 q 186 71 233 25 q 111 198 133 124 q 90 379 90 272 l 90 1010 l 224 1010 l 224 380 q 232 262 224 310 q 267 176 241 214 q 341 115 294 136 q 455 94 387 94 q 567 115 518 94 q 643 176 616 136 q 677 262 668 215 q 687 376 687 308 l 687 1010 l 821 1010 l 821 379 q 799 199 821 274 q 724 71 778 124 q 612 2 676 25 q 455 -21 548 -21 m 679 1362 q 664 1256 679 1303 q 624 1175 650 1208 q 554 1121 593 1139 q 455 1104 516 1104 q 358 1122 400 1104 q 288 1175 316 1141 q 246 1257 260 1209 q 232 1362 232 1304 l 342 1362 q 370 1230 342 1270 q 455 1190 398 1190 q 539 1229 509 1190 q 569 1362 569 1269 l 679 1362 "}}}
